<?xml version="1.0" encoding="UTF-8"?>
<svg version="1.1" xmlns="http://www.w3.org/2000/svg" width="19" height="18">
<path d="M0 0 C3.37163695 2.23486944 4.80166229 5.04797899 5.625 9 C4.79902237 12.96469261 3.3604483 15.73905322 0 18 C-3.14252854 18.73810279 -5.85321863 18.70582012 -9 18 C-11.50160818 16.12379387 -12.61945652 14.76108697 -14 12 C-14.41314256 7.3521462 -13.78987316 4.75559848 -11 1 C-7.49945062 -0.75027469 -3.80988517 -0.68972059 0 0 Z M-11 4 C-12.42041821 6.84083641 -12.31452272 8.85477278 -12 12 C-10.20412315 14.37312298 -8.73136969 15.64611144 -6.0625 16.9375 C-2.99860514 17.0303453 -1.42556601 15.78725916 1 14 C3.31537595 11.18291805 3.31537595 11.18291805 2.8125 8 C1.98173446 4.93255801 1.55733651 3.79960718 -1 2 C-4.94419756 0.09590463 -7.45673966 1.8740438 -11 4 Z " fill="#FFFFFF" transform="translate(14,0)"/>
<path d="M0 0 C0.33 1.32 0.66 2.64 1 4 C2.32 4 3.64 4 5 4 C5 4.66 5 5.32 5 6 C3.68 6 2.36 6 1 6 C1 7.32 1 8.64 1 10 C0.34 10 -0.32 10 -1 10 C-1 8.68 -1 7.36 -1 6 C-2.32 5.67 -3.64 5.34 -5 5 C-3.68 4.67 -2.36 4.34 -1 4 C-0.67 2.68 -0.34 1.36 0 0 Z " fill="#FFFFFF" transform="translate(9,4)"/>
</svg>
