<svg width="24" height="24" viewBox="0 0 24 24" fill="none" xmlns="http://www.w3.org/2000/svg">
<mask id="mask0_1578_2800" style="mask-type:alpha" maskUnits="userSpaceOnUse" x="0" y="0" width="24" height="24">
<rect width="24" height="24" fill="#D9D9D9"/>
</mask>
<g mask="url(#mask0_1578_2800)">
<path d="M10.8641 12.5V16C10.8641 16.1417 10.912 16.2604 11.008 16.3562C11.1039 16.4521 11.2227 16.5 11.3645 16.5C11.5062 16.5 11.6248 16.4521 11.7202 16.3562C11.8156 16.2604 11.8633 16.1417 11.8633 16V12.5H15.3608C15.5023 12.5 15.621 12.452 15.7168 12.356C15.8125 12.26 15.8604 12.1411 15.8604 11.9993C15.8604 11.8574 15.8125 11.7388 15.7168 11.6433C15.621 11.5478 15.5023 11.5 15.3608 11.5H11.8633V8C11.8633 7.85833 11.8154 7.73958 11.7194 7.64375C11.6235 7.54792 11.5047 7.5 11.363 7.5C11.2212 7.5 11.1027 7.54792 11.0072 7.64375C10.9118 7.73958 10.8641 7.85833 10.8641 8V11.5H7.36664C7.22508 11.5 7.10641 11.548 7.01065 11.644C6.91489 11.74 6.867 11.8589 6.867 12.0008C6.867 12.1426 6.91489 12.2612 7.01065 12.3567C7.10641 12.4522 7.22508 12.5 7.36664 12.5H10.8641ZM11.367 21C10.1234 21 8.95414 20.7638 7.85928 20.2915C6.76458 19.8192 5.81228 19.1782 5.00237 18.3685C4.19246 17.5588 3.55135 16.6067 3.07903 15.512C2.60654 14.4175 2.3703 13.2479 2.3703 12.0033C2.3703 10.7587 2.60629 9.58867 3.07828 8.493C3.55027 7.3975 4.1908 6.4445 4.99987 5.634C5.80895 4.8235 6.76042 4.18192 7.85428 3.70925C8.94798 3.23642 10.1167 3 11.3605 3C12.604 3 13.7733 3.23617 14.8681 3.7085C15.9628 4.18083 16.9151 4.82183 17.725 5.6315C18.535 6.44117 19.1761 7.39333 19.6484 8.488C20.1209 9.5825 20.3571 10.7521 20.3571 11.9967C20.3571 13.2413 20.1211 14.4113 19.6491 15.507C19.1771 16.6025 18.5366 17.5555 17.7275 18.366C16.9185 19.1765 15.967 19.8181 14.8731 20.2908C13.7794 20.7636 12.6107 21 11.367 21ZM11.3637 20C13.5954 20 15.4857 19.225 17.0346 17.675C18.5834 16.125 19.3578 14.2333 19.3578 12C19.3578 9.76667 18.5834 7.875 17.0346 6.325C15.4857 4.775 13.5954 4 11.3637 4C9.13201 4 7.24173 4.775 5.69287 6.325C4.144 7.875 3.36957 9.76667 3.36957 12C3.36957 14.2333 4.144 16.125 5.69287 17.675C7.24173 19.225 9.13201 20 11.3637 20Z" fill="white"/>
</g>
</svg>
