<svg width="16" height="10" viewBox="0 0 16 10" fill="none" xmlns="http://www.w3.org/2000/svg">
<path d="M7.99872 2.64172L14.276 8.91897C14.4416 9.08457 14.6387 9.16524 14.8673 9.16097C15.0959 9.15669 15.2931 9.07176 15.4586 8.90616C15.6242 8.74056 15.707 8.54345 15.707 8.31483C15.707 8.0862 15.6242 7.88909 15.4586 7.72349L9.06601 1.34368C8.91537 1.19304 8.74657 1.0814 8.55961 1.00874C8.37264 0.936105 8.18568 0.899786 7.99872 0.899786C7.81176 0.899786 7.62479 0.936105 7.43782 1.00874C7.25086 1.0814 7.08206 1.19304 6.93142 1.34368L0.538801 7.73631C0.373203 7.9019 0.292536 8.09688 0.2968 8.32124C0.301077 8.54559 0.386016 8.74056 0.551614 8.90616C0.717211 9.07176 0.914321 9.15456 1.14295 9.15456C1.37157 9.15456 1.56868 9.07176 1.73428 8.90616L7.99872 2.64172Z" fill="black"/>
</svg>
