<svg width="16" height="10" viewBox="0 0 16 10" fill="none" xmlns="http://www.w3.org/2000/svg">
<path d="M7.99872 7.35828L14.276 1.08103C14.4416 0.91543 14.6387 0.834764 14.8673 0.839028C15.0959 0.843305 15.2931 0.928243 15.4586 1.09384C15.6242 1.25944 15.707 1.45655 15.707 1.68517C15.707 1.9138 15.6242 2.11091 15.4586 2.27651L9.06601 8.65632C8.91537 8.80696 8.74657 8.9186 8.55961 8.99126C8.37264 9.06389 8.18568 9.10021 7.99872 9.10021C7.81176 9.10021 7.62479 9.06389 7.43782 8.99126C7.25086 8.9186 7.08206 8.80696 6.93142 8.65632L0.538801 2.26369C0.373203 2.0981 0.292536 1.90312 0.2968 1.67876C0.301077 1.45441 0.386016 1.25944 0.551614 1.09384C0.717211 0.928242 0.914321 0.845443 1.14295 0.845443C1.37157 0.845443 1.56868 0.928242 1.73428 1.09384L7.99872 7.35828Z" fill="black"/>
</svg>
