<svg width="9" height="15" viewBox="0 0 9 15" fill="none" xmlns="http://www.w3.org/2000/svg">
<path d="M2.73832 7.2785L8.16932 1.84783C8.35376 1.66317 8.44821 1.43105 8.45265 1.1515C8.45687 0.872166 8.36243 0.635832 8.16932 0.442499C7.97598 0.249388 7.74176 0.152832 7.46665 0.152832C7.19154 0.152832 6.95732 0.249388 6.76399 0.442499L0.771652 6.43483C0.646986 6.55972 0.558983 6.69139 0.50765 6.82983C0.456317 6.96828 0.430651 7.11783 0.430651 7.2785C0.430651 7.43917 0.456317 7.58872 0.50765 7.72717C0.558983 7.86561 0.646986 7.99728 0.771652 8.12217L6.76399 14.1145C6.94865 14.2989 7.18076 14.3934 7.46032 14.3978C7.73965 14.4021 7.97598 14.3076 8.16932 14.1145C8.36243 13.9212 8.45898 13.6869 8.45898 13.4118C8.45898 13.1367 8.36243 12.9025 8.16932 12.7092L2.73832 7.2785Z" fill="white"/>
</svg>
