<svg width="9" height="15" viewBox="0 0 9 15" fill="none" xmlns="http://www.w3.org/2000/svg">
<path d="M6.26168 7.2785L0.830682 1.84783C0.646238 1.66317 0.551793 1.43105 0.547349 1.1515C0.543127 0.872166 0.637571 0.635832 0.830682 0.442499C1.02402 0.249388 1.25824 0.152832 1.53335 0.152832C1.80846 0.152832 2.04268 0.249388 2.23601 0.442499L8.22835 6.43483C8.35301 6.55972 8.44102 6.69139 8.49235 6.82983C8.54368 6.96828 8.56935 7.11783 8.56935 7.2785C8.56935 7.43917 8.54368 7.58872 8.49235 7.72717C8.44102 7.86561 8.35301 7.99728 8.22835 8.12217L2.23601 14.1145C2.05135 14.2989 1.81924 14.3934 1.53968 14.3978C1.26035 14.4021 1.02402 14.3076 0.830682 14.1145C0.637571 13.9212 0.541016 13.6869 0.541016 13.4118C0.541016 13.1367 0.637571 12.9025 0.830682 12.7092L6.26168 7.2785Z" fill="white"/>
</svg>
