<?xml version="1.0" encoding="UTF-8"?>
<svg version="1.1" xmlns="http://www.w3.org/2000/svg" width="33" height="32">
<path d="M0 0 C3.18500291 1.62145603 5.22111096 2.97328264 7.375 5.8125 C8.65125865 10.27940528 8.39873543 13.90872409 6.8125 18.25 C4.71251242 21.43618806 3.5544915 22.60911202 0 24 C-4.79308349 24.71763357 -8.08298953 24.46684169 -12.4375 22.25 C-16.10930681 19.02597451 -16.86261424 17.48376618 -17.3125 12.625 C-16.88288535 7.64147006 -15.65829885 4.46320487 -11.875 1.125 C-7.83066162 -0.45756719 -4.28553904 -0.68659164 0 0 Z M-14 7 C-15.19389536 10.93283177 -15.44799464 12.96253872 -13.8125 16.75 C-10.89540842 20.37121713 -9.32815813 21.80323583 -4.625 22.5 C0.06052555 21.85372061 1.86373357 20.50963148 5 17 C6.19389536 13.06716823 6.44799464 11.03746128 4.8125 7.25 C1.89540842 3.62878287 0.32815813 2.19676417 -4.375 1.5 C-9.06052555 2.14627939 -10.86373357 3.49036852 -14 7 Z " fill="#1B1A1E" transform="translate(21,4)"/>
<path d="M0 0 C1.98 1.65 3.96 3.3 6 5 C5.01 5.33 4.02 5.66 3 6 C2.01 5.34 1.02 4.68 0 4 C-0.66 4.66 -1.32 5.32 -2 6 C-2.99 5.67 -3.98 5.34 -5 5 C-3.35 3.35 -1.7 1.7 0 0 Z " fill="#1C1C1E" transform="translate(16,12)"/>
</svg>
