<?xml version="1.0" encoding="UTF-8"?>
<svg version="1.1" xmlns="http://www.w3.org/2000/svg" width="60" height="60">
<path d="M0 0 C0.99 0 1.98 0 3 0 C2.48594831 4.96916636 1.76615118 9.29026351 0 14 C0.63808594 14.04898437 1.27617188 14.09796875 1.93359375 14.1484375 C2.75988281 14.22320312 3.58617188 14.29796875 4.4375 14.375 C5.26121094 14.44460937 6.08492187 14.51421875 6.93359375 14.5859375 C7.61550781 14.72257812 8.29742187 14.85921875 9 15 C9.33 15.66 9.66 16.32 10 17 C8.42998416 19.02548118 6.85651174 21.04804226 5.27734375 23.06640625 C3.56551672 25.27152134 1.87355814 27.48731333 0.19140625 29.71484375 C-0.78889959 30.99752035 -1.76936814 32.28007262 -2.75 33.5625 C-3.22155518 34.19430176 -3.69311035 34.82610352 -4.17895508 35.47705078 C-5.38291997 37.04093735 -6.68514721 38.52811862 -8 40 C-8.99 40 -9.98 40 -11 40 C-10.48594831 35.03083364 -9.76615118 30.70973649 -8 26 C-8.63808594 25.95101562 -9.27617187 25.90203125 -9.93359375 25.8515625 C-10.75988281 25.77679688 -11.58617187 25.70203125 -12.4375 25.625 C-13.26121094 25.55539063 -14.08492187 25.48578125 -14.93359375 25.4140625 C-15.61550781 25.27742188 -16.29742188 25.14078125 -17 25 C-17.33 24.34 -17.66 23.68 -18 23 C-16.42998416 20.97451882 -14.85651174 18.95195774 -13.27734375 16.93359375 C-11.56551672 14.72847866 -9.87355814 12.51268667 -8.19140625 10.28515625 C-7.21110041 9.00247965 -6.23063186 7.71992738 -5.25 6.4375 C-4.77844482 5.80569824 -4.30688965 5.17389648 -3.82104492 4.52294922 C-2.61708003 2.95906265 -1.31485279 1.47188138 0 0 Z M-5 12 C-6.05654417 13.47506444 -7.0707001 14.98064696 -8.0625 16.5 C-8.88427734 17.75296875 -8.88427734 17.75296875 -9.72265625 19.03125 C-10.35494141 20.00578125 -10.35494141 20.00578125 -11 21 C-8.69 21.33 -6.38 21.66 -4 22 C-4 23.98 -4 25.96 -4 28 C-1.03595495 25.19195732 1.44499019 22.81684226 3 19 C0.69 18.67 -1.62 18.34 -4 18 C-4 16.02 -4 14.04 -4 12 C-4.33 12 -4.66 12 -5 12 Z " fill="#FFFFFF" transform="translate(34,10)"/>
<path d="M0 0 C0.99 0.33 1.98 0.66 3 1 C2.95359375 1.75023438 2.9071875 2.50046875 2.859375 3.2734375 C2.57471251 11.34565232 3.19316444 18.44143489 8.54296875 24.84765625 C14.94669215 30.81176478 21.51141108 32.37689814 30.09375 32.10546875 C30.7228125 32.07066406 31.351875 32.03585938 32 32 C32 33.32 32 34.64 32 36 C23.18412107 36.62180964 16.28237461 36.35943072 9 31 C3.02802711 25.5399105 -0.69646504 20.71250894 -1.23046875 12.421875 C-1.21628906 11.21015625 -1.20210938 9.9984375 -1.1875 8.75 C-1.18105469 7.52796875 -1.17460938 6.3059375 -1.16796875 5.046875 C-1 2 -1 2 0 0 Z " fill="#FFFFFF" transform="translate(4,21)"/>
<path d="M0 0 C8.81587893 -0.62180964 15.71762539 -0.35943072 23 5 C28.97197289 10.4600895 32.69646504 15.28749106 33.23046875 23.578125 C33.21628906 24.78984375 33.20210937 26.0015625 33.1875 27.25 C33.18105469 28.47203125 33.17460938 29.6940625 33.16796875 30.953125 C33 34 33 34 32 36 C31.01 35.67 30.02 35.34 29 35 C29.04640625 34.24976563 29.0928125 33.49953125 29.140625 32.7265625 C29.42528749 24.65434768 28.80683556 17.55856511 23.45703125 11.15234375 C17.05330785 5.18823522 10.48858892 3.62310186 1.90625 3.89453125 C1.2771875 3.92933594 0.648125 3.96414063 0 4 C0 2.68 0 1.36 0 0 Z " fill="#FFFFFF" transform="translate(24,3)"/>
<path d="M0 0 C0.2976609 2.92699884 0.50314531 5.14531238 0 8 C-3.84289838 12.31154452 -7.28082872 13.83498363 -13 15 C-14.32 15 -15.64 15 -17 15 C-17 14.01 -17 13.02 -17 12 C-15.68 11.67 -14.36 11.34 -13 11 C-12.9175 9.9275 -12.835 8.855 -12.75 7.75 C-11.93508472 3.67542358 -11.27879877 2.43567909 -8 0 C-5.00418914 -1.21704816 -3.04838368 -0.97983761 0 0 Z " fill="#FFFFFF" transform="translate(57,42)"/>
<path d="M0 0 C0 0.99 0 1.98 0 3 C-1.32 3.33 -2.64 3.66 -4 4 C-4.0825 5.0725 -4.165 6.145 -4.25 7.25 C-5.06771975 11.33859877 -5.67065289 12.59547153 -9 15 C-12.35228621 16.06292002 -13.61786861 16.12737713 -17 15 C-17.2976609 12.07300116 -17.50314531 9.85468762 -17 7 C-12.27485381 1.69861647 -7.13251419 0 0 0 Z " fill="#FFFFFF" transform="translate(20,3)"/>
</svg>
