<?xml version="1.0" encoding="UTF-8"?>
<svg version="1.1" xmlns="http://www.w3.org/2000/svg" width="32" height="32">
<path d="M0 0 C3.12578143 1.6720747 5.39281175 3.7856235 7 7 C7.51512617 11.09157355 7.94367269 15.23589546 5.953125 18.95703125 C3.55501226 21.85592636 1.60351712 23.79811835 -2.171875 24.2734375 C-9.98876369 24.58137554 -9.98876369 24.58137554 -13.5625 21.625 C-17.3057723 17.59378368 -17.39037018 14.90519941 -17.359375 9.55078125 C-16.78039966 5.44131496 -15.00085071 3.78650423 -12 1 C-8.27533151 -0.86233425 -4.05504687 -0.57130829 0 0 Z M-14 6 C-15.60086627 9.20173254 -15.49917089 12.52577059 -15 16 C-13.20636089 18.8100346 -11.98119065 20.50940468 -9 22 C-3.18654053 22.53365513 -3.18654053 22.53365513 1.9375 20.125 C5.09695358 16.8698054 5.33421243 14.57586762 5.29296875 10.0390625 C4.83745033 6.86865433 3.24684343 5.1807598 1 3 C-4.71872108 0.14063946 -9.77770087 1.64975241 -14 6 Z " fill="#1B1A1E" transform="translate(21,4)"/>
<path d="M0 0 C0.9075 0.37125 1.815 0.7425 2.75 1.125 C5.88097015 2.30359299 5.88097015 2.30359299 8.375 1.125 C8.91125 0.75375 9.4475 0.3825 10 0 C8.95125002 2.62187494 8.35068687 3.79371361 5.875 5.25 C5.25625 5.4975 4.6375 5.745 4 6 C2.62437146 4.71034824 1.29233607 3.37310707 0 2 C0 1.34 0 0.68 0 0 Z " fill="#1D1C1F" transform="translate(11,14)"/>
</svg>
