<svg width="24" height="24" viewBox="0 0 24 24" fill="none" xmlns="http://www.w3.org/2000/svg">
<mask id="mask0_1578_2821" style="mask-type:alpha" maskUnits="userSpaceOnUse" x="0" y="0" width="24" height="24">
<rect width="24" height="24" fill="#D9D9D9"/>
</mask>
<g mask="url(#mask0_1578_2821)">
<path d="M7.70384 12.5H15.698C15.8395 12.5 15.9582 12.452 16.0539 12.356C16.1497 12.26 16.1976 12.1411 16.1976 11.9993C16.1976 11.8574 16.1497 11.7388 16.0539 11.6433C15.9582 11.5478 15.8395 11.5 15.698 11.5H7.70384C7.56228 11.5 7.44362 11.548 7.34785 11.644C7.25209 11.74 7.20421 11.8589 7.20421 12.0008C7.20421 12.1426 7.25209 12.2612 7.34785 12.3567C7.44362 12.4522 7.56228 12.5 7.70384 12.5ZM11.7041 21C10.4606 21 9.29134 20.7638 8.19648 20.2915C7.10178 19.8192 6.14949 19.1782 5.33958 18.3685C4.52968 17.5588 3.88857 16.6067 3.41625 15.512C2.94376 14.4175 2.70752 13.2479 2.70752 12.0033C2.70752 10.7587 2.94351 9.58867 3.4155 8.493C3.88748 7.3975 4.52801 6.4445 5.33708 5.634C6.14615 4.8235 7.09762 4.18192 8.19148 3.70925C9.28518 3.23642 10.4539 3 11.6976 3C12.9412 3 14.1105 3.23617 15.2053 3.7085C16.3 4.18083 17.2523 4.82183 18.0622 5.6315C18.8721 6.44117 19.5132 7.39333 19.9855 8.488C20.458 9.5825 20.6943 10.7521 20.6943 11.9967C20.6943 13.2413 20.4583 14.4113 19.9863 15.507C19.5143 16.6025 18.8738 17.5555 18.0647 18.366C17.2556 19.1765 16.3042 19.8181 15.2103 20.2908C14.1166 20.7636 12.9479 21 11.7041 21ZM11.7009 20C13.9326 20 15.8229 19.225 17.3717 17.675C18.9206 16.125 19.695 14.2333 19.695 12C19.695 9.76667 18.9206 7.875 17.3717 6.325C15.8229 4.775 13.9326 4 11.7009 4C9.46921 4 7.57893 4.775 6.03007 6.325C4.48121 7.875 3.70678 9.76667 3.70678 12C3.70678 14.2333 4.48121 16.125 6.03007 17.675C7.57893 19.225 9.46921 20 11.7009 20Z" fill="white"/>
</g>
</svg>
