<?xml version="1.0" encoding="UTF-8"?>
<!DOCTYPE svg PUBLIC "-//W3C//DTD SVG 1.1//EN" "http://www.w3.org/Graphics/SVG/1.1/DTD/svg11.dtd">
<svg xmlns="http://www.w3.org/2000/svg" version="1.1" width="19px" height="18px" style="shape-rendering:geometricPrecision; text-rendering:geometricPrecision; image-rendering:optimizeQuality; fill-rule:evenodd; clip-rule:evenodd" xmlns:xlink="http://www.w3.org/1999/xlink">
<g><path style="opacity:0.503" fill="#fefffe" d="M 4.5,-0.5 C 7.5,-0.5 10.5,-0.5 13.5,-0.5C 15.386,0.930149 17.0527,2.59682 18.5,4.5C 18.5,7.16667 18.5,9.83333 18.5,12.5C 17.0527,14.4032 15.386,16.0699 13.5,17.5C 10.8333,17.5 8.16667,17.5 5.5,17.5C 2.75333,15.7573 0.753325,13.4239 -0.5,10.5C -0.5,9.16667 -0.5,7.83333 -0.5,6.5C 0.716859,3.93332 2.38353,1.59998 4.5,-0.5 Z M 8.5,0.5 C 15.962,2.09027 18.1286,6.42361 15,13.5C 8.53169,17.7298 4.03169,16.0632 1.5,8.5C 2.48038,4.52689 4.81371,1.86022 8.5,0.5 Z"/></g>
<g><path style="opacity:0.445" fill="#fefffe" d="M 4.5,7.5 C 7.89838,7.17964 11.2317,7.51298 14.5,8.5C 12.8333,8.83333 11.1667,9.16667 9.5,9.5C 7.3603,9.44392 5.69363,8.77725 4.5,7.5 Z"/></g>
</svg>
