<svg width="20" height="14" viewBox="0 0 20 14" fill="none" xmlns="http://www.w3.org/2000/svg">
<path d="M16.175 8.00005H1C0.716667 8.00005 0.479167 7.90422 0.2875 7.71255C0.0958333 7.52088 0 7.28338 0 7.00005C0 6.71672 0.0958333 6.47922 0.2875 6.28755C0.479167 6.09588 0.716667 6.00005 1 6.00005H16.175L12.3 2.10005C12.1167 1.91672 12.0208 1.68755 12.0125 1.41255C12.0042 1.13755 12.1 0.900049 12.3 0.700049C12.4833 0.516715 12.7167 0.425049 13 0.425049C13.2833 0.425049 13.5167 0.516715 13.7 0.700049L19.3 6.30005C19.4 6.40005 19.4708 6.50838 19.5125 6.62505C19.5542 6.74172 19.575 6.86672 19.575 7.00005C19.575 7.13338 19.5542 7.25838 19.5125 7.37505C19.4708 7.49172 19.4 7.60005 19.3 7.70005L13.7 13.3C13.5167 13.4834 13.2875 13.575 13.0125 13.575C12.7375 13.575 12.5 13.4834 12.3 13.3C12.1 13.1 12 12.8625 12 12.5875C12 12.3125 12.1 12.075 12.3 11.875L16.175 8.00005Z" fill="white"/>
</svg>
