<svg width="60" height="60" viewBox="0 0 60 60" fill="none" xmlns="http://www.w3.org/2000/svg">
<path fill-rule="evenodd" clip-rule="evenodd" d="M4.70544 15.9375V22.8879C4.70614 23.0525 4.74986 23.2141 4.83227 23.3566C4.91468 23.4991 5.03291 23.6176 5.17525 23.7003L10.7244 26.9054V33.0952L5.17525 36.3003C5.03297 36.383 4.91477 36.5014 4.83237 36.6438C4.74996 36.7863 4.70621 36.9478 4.70544 37.1123V44.0625C4.7062 44.227 4.74996 44.3885 4.83237 44.5309C4.91477 44.6733 5.03297 44.7917 5.17525 44.8743L11.1941 48.3492C11.3371 48.4315 11.499 48.4751 11.6639 48.4758C11.829 48.4758 11.9911 48.4322 12.1337 48.3492L17.6829 45.1452L23.0442 48.2403V54.649C23.0438 54.8138 23.087 54.9758 23.1696 55.1185C23.2521 55.2613 23.3709 55.3796 23.514 55.4614L29.5329 58.9368C29.6759 59.019 29.8379 59.0622 30.0028 59.0624C30.1676 59.0615 30.3294 59.0183 30.4726 58.9368L36.4915 55.4614C36.6338 55.3787 36.752 55.2602 36.8344 55.1176C36.9168 54.9751 36.9606 54.8136 36.9613 54.649V48.2404L42.3226 45.1453L47.8718 48.3493C48.0135 48.4322 48.1747 48.4759 48.3388 48.4759C48.5029 48.4759 48.6641 48.4322 48.8058 48.3493L54.8304 44.8745C54.972 44.7915 55.0893 44.6728 55.1708 44.5304C55.2522 44.3879 55.2949 44.2266 55.2946 44.0625V37.1123C55.2949 36.9482 55.2522 36.7869 55.1708 36.6444C55.0893 36.502 54.972 36.3833 54.8304 36.3003L49.2757 33.0952V26.9054L54.8304 23.7003C54.972 23.6173 55.0894 23.4986 55.1709 23.356C55.2523 23.2134 55.295 23.052 55.2946 22.8879V15.9375C55.2949 15.7734 55.2522 15.6121 55.1708 15.4696C55.0893 15.3272 54.972 15.2086 54.8304 15.1256L48.8058 11.6507C48.6639 11.5685 48.5028 11.5251 48.3388 11.5251C48.1748 11.5251 48.0137 11.5685 47.8718 11.6507L42.3226 14.8548L36.961 11.7602V5.35098C36.9602 5.18637 36.9165 5.02481 36.8341 4.8823C36.7517 4.73979 36.6334 4.62129 36.4911 4.53852L30.4726 1.06309C30.3297 0.980808 30.1677 0.9375 30.0028 0.9375C29.8379 0.9375 29.6758 0.980808 29.5329 1.06309L23.514 4.53852C23.371 4.62039 23.2521 4.73869 23.1696 4.8814C23.0871 5.02411 23.0438 5.18613 23.0442 5.35098V11.7602L17.6829 14.8548L12.1337 11.6507C11.9908 11.5685 11.8288 11.5252 11.6639 11.5252C11.499 11.5252 11.337 11.5685 11.1941 11.6507L5.17525 15.1256C5.03297 15.2082 4.91477 15.3266 4.83237 15.469C4.74996 15.6115 4.7062 15.7729 4.70544 15.9375ZM12.6039 24.7394V19.9535L16.7492 17.5619V22.3467L12.6035 24.7394H12.6039ZM12.6039 26.9054L17.6833 23.9711L23.0446 27.0657V33.4759C23.0442 33.6405 23.0875 33.8023 23.17 33.9447C23.2525 34.0872 23.3714 34.2052 23.5144 34.2867L29.0636 37.4919V43.6828L23.9842 46.6161L18.6229 43.5209V37.1123C18.6221 36.9478 18.5784 36.7863 18.4959 36.6438C18.4135 36.5014 18.2953 36.383 18.1531 36.3003L12.6039 33.0952V26.9054ZM30.9372 35.3275V30.5411L35.0822 28.1484V32.9343L30.9368 35.3275H30.9372ZM36.4919 34.2868C36.6341 34.2044 36.7523 34.0862 36.8347 33.9439C36.9171 33.8017 36.9609 33.6404 36.9617 33.476V27.0658L42.323 23.9713L47.4024 26.9054V33.0952L41.8532 36.3003C41.7101 36.3821 41.5913 36.5003 41.5087 36.6429C41.4262 36.7856 41.383 36.9475 41.3834 37.1123V43.5209L36.0222 46.6161L30.9368 43.6828V37.492L36.4915 34.2868H36.4919ZM44.1966 37.1123L48.342 34.719L52.4872 37.1123L48.342 39.5049L44.1966 37.1123ZM49.276 41.1282L53.4213 38.735V43.5209L49.2756 45.914V41.1281L49.276 41.1282ZM25.8574 47.6988L30.0028 45.3062L34.1485 47.6988L30.0032 50.092L25.8574 47.6988ZM30.9368 51.7159L35.0822 49.3233V54.108L30.9368 56.5006V51.7159ZM11.6639 34.719L15.8093 37.1123L11.6639 39.5049L7.51865 37.1123L11.6639 34.719ZM12.6035 41.1282L16.7488 38.735V43.5209L12.6035 45.914V41.1281V41.1282ZM11.6639 18.3308L7.51865 15.9375L11.6639 13.5449L15.8093 15.9375L11.6639 18.3308ZM34.1485 5.35098L30.0028 7.74255L25.8574 5.35098L30.0028 2.95778L34.1485 5.35098ZM18.6225 22.3467V16.4791L23.9838 13.384L29.5329 16.5881C29.6757 16.6707 29.8379 16.7139 30.0028 16.7135C30.1677 16.7132 30.3296 16.67 30.4726 16.5881L36.0218 13.384L41.383 16.4791V22.3467L36.0218 25.4424L30.4726 22.2378C30.3297 22.1555 30.1677 22.1122 30.0028 22.1122C29.8379 22.1122 29.6758 22.1555 29.5329 22.2378L23.9838 25.4424L18.6225 22.3467ZM48.3413 18.3308L44.1962 15.9375L48.3416 13.5449L52.4869 15.9375L48.3416 18.3308H48.3413ZM49.2753 19.9535L53.4206 17.5619V22.3467L49.2756 24.7394V19.9535H49.2753ZM30.0028 28.9173L25.8574 26.5247L30.0028 24.1325L34.1485 26.5247L30.0032 28.9173H30.0028ZM30.9368 14.1528V9.367L35.0822 6.97368V11.7602L30.9368 14.1528Z" fill="black"/>
</svg>
