<svg width="60" height="60" viewBox="0 0 60 60" fill="none" xmlns="http://www.w3.org/2000/svg">
<path fill-rule="evenodd" clip-rule="evenodd" d="M37.4268 24.457L29.3256 32.7668C29.124 32.9709 28.8642 32.9735 28.688 32.7971L24.4166 28.5259L24.4174 28.5249C24.3604 28.4693 24.2838 28.4383 24.2041 28.4385C24.1245 28.4387 24.048 28.47 23.9912 28.5259L22.817 29.7L22.8162 29.6992C22.7606 29.7562 22.7295 29.8328 22.7297 29.9124C22.7298 29.9921 22.7612 30.0685 22.817 30.1254L28.7553 36.0635C28.786 36.0945 28.8225 36.1191 28.8629 36.1358C28.9032 36.1525 28.9465 36.161 28.9901 36.1608C29.0338 36.1606 29.0769 36.1517 29.1171 36.1345C29.1573 36.1174 29.1936 36.0925 29.224 36.0611L38.9897 26.1014C39.0219 26.0746 39.0482 26.0413 39.0667 26.0038C39.0852 25.9662 39.0956 25.9252 39.0973 25.8833C39.0989 25.8414 39.0917 25.7997 39.0762 25.7608C39.0606 25.7219 39.0371 25.6867 39.007 25.6575L37.8297 24.4804L37.8304 24.4796C37.7796 24.4244 37.7094 24.3912 37.6346 24.3868C37.5598 24.3824 37.4862 24.4073 37.4294 24.4562L37.4285 24.4552L37.4268 24.457ZM45.126 30.903C45.126 39.6322 37.7387 46.2651 30.1465 49.8023C30.1031 49.8233 30.0555 49.8342 30.0073 49.8342C29.9591 49.8342 29.9116 49.8233 29.8682 49.8023C22.2756 46.2647 14.8886 39.6328 14.8886 30.9023V16.4246C14.8883 16.3737 14.8998 16.3235 14.9223 16.2778C14.9448 16.2322 14.9776 16.1924 15.0181 16.1616C15.0585 16.1308 15.1057 16.1098 15.1557 16.1003C15.2056 16.0909 15.2572 16.0932 15.3061 16.107C20.1304 17.443 25.6375 18.2292 29.7436 14.675C29.8164 14.611 29.91 14.5754 30.0069 14.5749V14.5767C30.1037 14.5766 30.1972 14.6114 30.2703 14.6749C34.3766 18.2291 39.8838 17.4433 44.7078 16.107C44.7567 16.0932 44.8082 16.0909 44.8582 16.1003C44.9082 16.1098 44.9553 16.1308 44.9958 16.1616C45.0363 16.1924 45.0691 16.2322 45.0916 16.2778C45.114 16.3235 45.1256 16.3737 45.1253 16.4246L45.126 30.903ZM44.2432 53.0006C44.3032 52.9636 44.3699 52.9387 44.4394 52.9274C44.509 52.9162 44.5802 52.9187 44.6487 52.9349C44.7173 52.9512 44.7821 52.9807 44.8392 53.022C44.8964 53.0632 44.9449 53.1153 44.9819 53.1753C45.0189 53.2352 45.0438 53.3019 45.0551 53.3715C45.0663 53.4411 45.0638 53.5122 45.0476 53.5808C45.0313 53.6494 45.0018 53.7141 44.9605 53.7713C44.9193 53.8284 44.8672 53.8769 44.8072 53.914C44.0145 54.4076 43.1967 54.8597 42.3571 55.2685C42.2293 55.331 42.0819 55.3402 41.9473 55.2941C41.8127 55.2479 41.702 55.1501 41.6394 55.0223C41.5769 54.8945 41.5677 54.7471 41.6139 54.6125C41.6601 54.4779 41.7578 54.3672 41.8856 54.3047C42.6921 53.9082 43.4788 53.473 44.2432 53.0006ZM16.4145 6.60642C15.8024 6.96091 15.2632 6.0322 15.8754 5.67618C16.7317 5.17977 17.6132 4.72826 18.5165 4.32349C18.6461 4.26785 18.7925 4.26547 18.9239 4.31685C19.0553 4.36824 19.1612 4.46927 19.2187 4.59811C19.2762 4.72694 19.2807 4.87323 19.2312 5.00537C19.1817 5.1375 19.0823 5.24485 18.9543 5.30423C18.0847 5.69191 17.2368 6.12662 16.4145 6.60642ZM29.2227 31.6406C31.7422 29.0508 34.2587 26.3789 36.8207 23.8476L36.8199 23.8467C37.0388 23.6374 37.3314 23.5227 37.6343 23.5274C37.9371 23.5322 38.226 23.656 38.4382 23.8721L38.439 23.8712L39.6161 25.0482C39.7252 25.1571 39.8116 25.2867 39.87 25.4294C39.9285 25.5721 39.958 25.725 39.9567 25.8792C39.9554 26.0334 39.9234 26.1858 39.8625 26.3274C39.8016 26.4691 39.7131 26.5972 39.6021 26.7043L29.2991 37.2122C29.2593 37.2526 29.2119 37.2847 29.1596 37.3068C29.1073 37.3288 29.0512 37.3402 28.9945 37.3405C28.9377 37.3407 28.8815 37.3297 28.8291 37.3081C28.7766 37.2865 28.7289 37.2547 28.6888 37.2146L28.688 37.2154L22.2075 30.735C21.9901 30.5167 21.8681 30.2212 21.8683 29.9131C21.8684 29.605 21.9907 29.3096 22.2083 29.0915L22.2075 29.0906L23.4203 27.8816C23.6405 27.6788 23.9308 27.5691 24.2301 27.5757C24.5294 27.5822 24.8146 27.7045 25.0258 27.9167L25.0266 27.9158L28.754 31.6432C28.7847 31.6742 28.8214 31.6987 28.8617 31.7153C28.9021 31.732 28.9453 31.7404 28.989 31.7401C29.0327 31.7398 29.0758 31.7308 29.1159 31.7136C29.1561 31.6964 29.1924 31.672 29.2227 31.6406ZM51.5938 48.8718L53.0202 48.8171C53.1625 48.8121 53.301 48.8638 53.4053 48.9609C53.5095 49.058 53.5708 49.1925 53.5759 49.3348C53.5809 49.4771 53.5292 49.6156 53.4321 49.7198C53.335 49.824 53.2005 49.8854 53.0582 49.8904L49.6329 50.0286C49.5397 50.0511 49.4422 50.0485 49.3504 50.0208C49.2586 49.9932 49.1758 49.9416 49.1106 49.8713C49.0453 49.8011 48.9999 49.7147 48.9791 49.6211C48.9583 49.5276 48.9628 49.4301 48.9921 49.3388C49.0273 49.2308 49.121 46.3346 49.134 45.9663C49.1391 45.824 49.2004 45.6895 49.3046 45.5924C49.4088 45.4953 49.5473 45.4435 49.6896 45.4486C49.832 45.4536 49.9665 45.5149 50.0636 45.6191C50.1607 45.7233 50.2124 45.8618 50.2074 46.0042L50.1642 47.1281C50.1616 47.1968 50.1806 47.2646 50.2184 47.322C50.2562 47.3794 50.311 47.4235 50.3751 47.4482C50.4392 47.473 50.5095 47.4771 50.576 47.4599C50.6426 47.4428 50.7021 47.4053 50.7463 47.3526C59.676 36.7022 59.089 20.8429 49.1236 10.8775C45.6532 7.4081 41.3049 4.94729 36.5439 3.75834C31.7829 2.56938 26.7883 2.697 22.0942 4.12755C21.4192 4.33298 21.106 3.30642 21.7827 3.1004C26.6629 1.61232 31.8558 1.47896 36.8059 2.7146C41.756 3.95024 46.2771 6.50839 49.8854 10.1154C60.3397 20.5695 60.8659 37.2551 51.3317 48.3274C51.2898 48.376 51.263 48.4357 51.2546 48.4993C51.2462 48.5629 51.2565 48.6276 51.2844 48.6854C51.3122 48.7432 51.3563 48.7916 51.4113 48.8246C51.4663 48.8577 51.5297 48.8743 51.5938 48.8718ZM10.918 10.0945C10.9716 10.1467 11.0137 10.2095 11.0415 10.279C11.0693 10.3484 11.0823 10.4229 11.0796 10.4976L10.9453 13.9852C10.9403 14.1276 10.879 14.2621 10.7748 14.3592C10.6706 14.4563 10.5321 14.508 10.3897 14.503C10.2474 14.498 10.1129 14.4366 10.0158 14.3324C9.91872 14.2282 9.86699 14.0897 9.87201 13.9474L9.91689 12.7773C9.91943 12.7087 9.90055 12.6411 9.86287 12.5838C9.82519 12.5265 9.77059 12.4824 9.70667 12.4576C9.64274 12.4327 9.57267 12.4285 9.50619 12.4453C9.43972 12.4621 9.38014 12.4993 9.33576 12.5516C0.322634 23.2002 0.878923 39.1261 10.8764 49.124C14.4174 52.6671 18.8728 55.1571 23.7459 56.3165C28.6191 57.4758 33.7185 57.2589 38.4756 55.69C38.611 55.647 38.7578 55.6592 38.8842 55.7241C39.0106 55.789 39.1061 55.9012 39.15 56.0362C39.194 56.1713 39.1827 56.3183 39.1186 56.445C39.0546 56.5718 38.943 56.6681 38.8082 56.7129C33.8514 58.3404 28.5407 58.5633 23.4651 57.3567C10.7882 54.3406 1.87783 42.9856 1.87783 30.0006C1.86934 23.2529 4.29514 16.7286 8.70986 11.6256C8.75185 11.577 8.77874 11.5172 8.78722 11.4536C8.79569 11.3899 8.7854 11.3252 8.75759 11.2673C8.72978 11.2094 8.68567 11.161 8.63068 11.1278C8.5757 11.0947 8.51222 11.0783 8.44806 11.0808L7.05881 11.1341C6.98833 11.1366 6.91806 11.1251 6.85199 11.1005C6.78593 11.0758 6.72538 11.0383 6.67379 10.9903C6.6222 10.9422 6.58058 10.8844 6.55131 10.8203C6.52205 10.7561 6.50571 10.6868 6.50322 10.6163C6.50073 10.5459 6.51216 10.4756 6.53683 10.4095C6.5615 10.3435 6.59895 10.2829 6.64702 10.2313C6.6951 10.1797 6.75286 10.1381 6.81702 10.1088C6.88118 10.0796 6.95048 10.0632 7.02095 10.0608L10.5088 9.92681C10.5849 9.92396 10.6608 9.93743 10.7313 9.96632C10.8018 9.9952 10.8658 10.0391 10.918 10.0945Z" fill="black"/>
</svg>
