<svg width="50" height="58" viewBox="0 0 50 58" fill="none" xmlns="http://www.w3.org/2000/svg">
<path d="M48.5193 29C48.9371 28.576 49.2528 28.0623 49.4422 27.4979C49.6317 26.9336 49.69 26.3335 49.6127 25.7432C48.2961 15.6993 41.0126 7.62734 31.5452 5.04828C30.3932 2.58582 27.8932 0.875 25 0.875C22.1068 0.875 19.6067 2.58582 18.4548 5.04828C8.98785 7.62723 1.70395 15.6989 0.387346 25.7431C0.310035 26.3334 0.368336 26.9335 0.557816 27.4979C0.747296 28.0623 1.06297 28.576 1.48082 29C1.06298 29.424 0.74731 29.9377 0.557831 30.502C0.368351 31.0664 0.310045 31.6665 0.387346 32.2568C1.70395 42.3007 8.98738 50.3727 18.4548 52.9517C19.6067 55.4142 22.1068 57.125 25 57.125C27.8932 57.125 30.3932 55.4142 31.5452 52.9517C41.0121 50.3728 48.2961 42.3011 49.6127 32.2569C49.69 31.6666 49.6317 31.0665 49.4422 30.5021C49.2528 29.9378 48.9371 29.424 48.5193 29ZM47.2888 26.048C47.4125 26.9914 46.678 27.8281 45.7223 27.8281C44.9328 27.8281 44.2611 27.2444 44.1597 26.4703C43.2224 19.3068 38.3848 13.321 31.6728 10.8589C32.0727 9.89609 32.2723 8.82816 32.2114 7.70234C40.2183 10.4227 46.1791 17.5823 47.2888 26.048ZM19.6076 45.1045C13.4662 43.0536 9.00942 37.6854 8.16414 31.2256C8.05071 30.3587 7.65285 29.5878 7.07254 29C7.65285 28.4122 8.05082 27.6413 8.16414 26.7744C9.0093 20.3146 13.4661 14.9464 19.6076 12.8955C22.4883 16.1296 27.514 16.1271 30.3925 12.8955C36.5339 14.9463 40.9907 20.3146 41.836 26.7744C41.9494 27.6413 42.3473 28.4122 42.9276 29C42.3473 29.5878 41.9493 30.3588 41.836 31.2256C40.9908 37.6854 36.5341 43.0536 30.3925 45.1045C27.5117 41.8702 22.486 41.8729 19.6076 45.1045ZM25 3.21875C27.6902 3.21875 29.8789 5.40746 29.8789 8.09762C29.8789 10.7878 27.6902 12.9765 25 12.9765C22.3098 12.9765 20.1211 10.7878 20.1211 8.09762C20.1211 5.40746 22.3098 3.21875 25 3.21875ZM2.71117 26.0479C3.82094 17.5824 9.78168 10.4227 17.7886 7.70246C17.7276 8.8277 17.927 9.89563 18.3272 10.859C11.6152 13.321 6.77758 19.307 5.84031 26.4703C5.73895 27.2444 5.06723 27.8281 4.27774 27.8281C3.32231 27.8281 2.58742 26.9918 2.71117 26.0479ZM2.71117 31.952C2.58754 31.0086 3.32196 30.1719 4.27774 30.1719C5.06723 30.1719 5.73895 30.7556 5.84031 31.5297C6.77758 38.693 11.6152 44.679 18.3272 47.1411C17.9273 48.1039 17.7277 49.1718 17.7886 50.2977C9.78168 47.5773 3.82094 40.4177 2.71117 31.952ZM25 54.7812C22.3098 54.7812 20.1211 52.5925 20.1211 49.9024C20.1211 47.2122 22.3098 45.0235 25 45.0235C27.6902 45.0235 29.8789 47.2122 29.8789 49.9024C29.8789 52.5925 27.6902 54.7812 25 54.7812ZM47.2888 31.9521C46.1791 40.4176 40.2183 47.5773 32.2114 50.2975C32.2724 49.1723 32.073 48.1044 31.6728 47.141C38.3848 44.679 43.2224 38.693 44.1597 31.5297C44.2611 30.7556 44.9328 30.1718 45.7223 30.1718C46.6777 30.1719 47.4126 31.0082 47.2888 31.9521Z" fill="black"/>
<path fill-rule="evenodd" clip-rule="evenodd" d="M47.9577 29L48.2344 28.7192C48.6095 28.3385 48.8929 27.8773 49.063 27.3706C49.2331 26.8639 49.2855 26.3251 49.216 25.7952C47.9208 15.9142 40.7549 7.9717 31.44 5.43422L31.2613 5.38554L31.1828 5.21777C30.0939 2.89011 27.7316 1.275 25 1.275C22.2684 1.275 19.9059 2.89012 18.8172 5.21776L18.7387 5.38553L18.56 5.43422C9.24562 7.97158 2.07922 15.9138 0.783959 25.7951C0.714545 26.325 0.766891 26.8639 0.937014 27.3706C1.10714 27.8773 1.39056 28.3385 1.76573 28.7192L2.04241 29L1.76573 29.2808C1.39057 29.6615 1.10715 30.1227 0.937027 30.6294C0.766905 31.1361 0.714555 31.6749 0.783959 32.2048C2.0792 42.0858 9.24515 50.0283 18.56 52.5658L18.7387 52.6145L18.8172 52.7822C19.9059 55.1099 22.2684 56.725 25 56.725C27.7316 56.725 30.0939 55.1099 31.1828 52.7822L31.2613 52.6145L31.44 52.5658C40.7544 50.0284 47.9208 42.0862 49.216 32.2049C49.2855 31.675 49.2331 31.1361 49.063 30.6294C48.8929 30.1227 48.6095 29.6615 48.2344 29.2807L47.9577 29ZM49.6127 32.2569C48.2961 42.3011 41.0121 50.3728 31.5452 52.9517C30.3932 55.4142 27.8932 57.125 25 57.125C22.1068 57.125 19.6067 55.4142 18.4548 52.9517C8.98738 50.3727 1.70395 42.3007 0.387346 32.2568C0.310045 31.6665 0.368351 31.0664 0.557831 30.502C0.74731 29.9377 1.06298 29.424 1.48082 29C1.06297 28.576 0.747296 28.0623 0.557816 27.4979C0.368336 26.9335 0.310035 26.3334 0.387346 25.7431C1.70395 15.6989 8.98785 7.62723 18.4548 5.04828C19.6067 2.58582 22.1068 0.875 25 0.875C27.8932 0.875 30.3932 2.58582 31.5452 5.04828C41.0126 7.62734 48.2961 15.6993 49.6127 25.7432C49.69 26.3335 49.6317 26.9336 49.4422 27.4979C49.2528 28.0623 48.9372 28.5759 48.5194 28.9999C48.5193 29 48.5193 29 48.5193 29C48.5193 29 48.5193 29 48.5194 29.0001C48.9372 29.4241 49.2528 29.9378 49.4422 30.5021C49.6317 31.0665 49.69 31.6666 49.6127 32.2569ZM31.1433 11.0908L31.3034 10.7055C31.681 9.7964 31.8696 8.7882 31.812 7.72396L31.78 7.13332L32.34 7.32361C40.4895 10.0924 46.5556 17.3775 47.6854 25.9961C47.8406 27.1798 46.9188 28.2281 45.7223 28.2281C44.7354 28.2281 43.891 27.4989 43.7631 26.5222C42.8452 19.5072 38.1081 13.6456 31.535 11.2344L31.1433 11.0908ZM19.731 45.5674L19.4809 45.4839C13.1949 43.3847 8.63276 37.8898 7.76752 31.2775C7.6659 30.5008 7.30958 29.8095 6.78789 29.281L6.51045 29L6.78789 28.719C7.3096 28.1905 7.66601 27.4991 7.76752 26.7225L7.76752 26.7225C8.63264 20.1102 13.1948 14.6153 19.4809 12.5161L19.731 12.4326L19.9063 12.6295C22.6278 15.6849 27.3743 15.6825 30.0938 12.6295L30.2691 12.4326L30.5192 12.5161C36.8052 14.6152 41.3674 20.1102 42.2326 26.7225L41.836 26.7744C40.9907 20.3146 36.5339 14.9463 30.3925 12.8955C27.514 16.1271 22.4883 16.1296 19.6076 12.8955C13.4661 14.9464 9.0093 20.3146 8.16414 26.7744C8.05082 27.6413 7.65285 28.4122 7.07254 29C7.65285 29.5878 8.05071 30.3587 8.16414 31.2256C9.00942 37.6854 13.4662 43.0536 19.6076 45.1045C22.486 41.8729 27.5117 41.8702 30.3925 45.1045C36.5341 43.0536 40.9908 37.6854 41.836 31.2256C41.9493 30.3588 42.3473 29.5878 42.9276 29C42.3473 28.4122 41.9494 27.6413 41.836 26.7744L42.2326 26.7225C42.3342 27.4992 42.6905 28.1905 43.2122 28.719L43.4897 29L43.2122 29.281C42.6905 29.8095 42.3341 30.501 42.2326 31.2775C41.3675 37.8898 36.8053 43.3847 30.5192 45.4839L30.2691 45.5674L30.0938 45.3705C27.3722 42.315 22.6257 42.3175 19.9063 45.3705L19.731 45.5674ZM18.2201 7.13342L18.188 7.72413C18.1303 8.78774 18.3188 9.79593 18.6966 10.7056L18.8567 11.0909L18.465 11.2346C11.8919 13.6456 7.15477 19.5074 6.23693 26.5222L6.23693 26.5222C6.10904 27.4989 5.26459 28.2281 4.27774 28.2281C3.08171 28.2281 2.15929 27.1802 2.31457 25.9959C3.44437 17.3776 9.51049 10.0924 17.66 7.32372L18.2201 7.13342ZM17.953 11.0007C11.4358 13.5451 6.76007 19.4408 5.84031 26.4703C5.73895 27.2444 5.06723 27.8281 4.27774 27.8281C3.32231 27.8281 2.58742 26.9918 2.71117 26.0479C3.80207 17.7263 9.58041 10.6666 17.382 7.84504C17.517 7.79624 17.6525 7.74871 17.7886 7.70246C17.7809 7.84564 17.7773 7.98788 17.7779 8.1291C17.781 8.95624 17.9247 9.74822 18.1841 10.4855C18.2284 10.6116 18.2762 10.7362 18.3272 10.859C18.2018 10.905 18.0771 10.9523 17.953 11.0007ZM6.23693 31.4778L6.23693 31.4778C7.15477 38.4926 11.8919 44.3544 18.465 46.7656L18.8567 46.9092L18.6966 47.2945C18.319 48.2036 18.1304 49.2118 18.1881 50.276L18.22 50.8667L17.66 50.6764C9.51049 47.9076 3.44437 40.6225 2.31457 32.0039L2.71117 31.952C3.80207 40.2738 9.58042 47.3335 17.3821 50.1551C17.517 50.2039 17.6525 50.2514 17.7886 50.2977C17.7809 50.1545 17.7774 50.0122 17.7779 49.871C17.7811 49.0436 17.9248 48.2516 18.1841 47.5146C18.2284 47.3885 18.2762 47.2639 18.3272 47.1411C18.2018 47.0951 18.0771 47.0478 17.953 46.9994C11.4358 44.4549 6.76007 38.5592 5.84031 31.5297C5.73895 30.7556 5.06723 30.1719 4.27774 30.1719C3.32196 30.1719 2.58754 31.0086 2.71117 31.952L2.31457 32.0039C2.15944 30.8202 3.08123 29.7719 4.27774 29.7719C5.26459 29.7719 6.10904 30.5011 6.23693 31.4778ZM31.7799 50.8666L31.812 50.2759C31.8697 49.2123 31.6812 48.2041 31.3034 47.2944L31.1433 46.9091L31.535 46.7654C38.1081 44.3544 42.8452 38.4926 43.7631 31.4778C43.891 30.5011 44.7354 29.7718 45.7223 29.7718C46.9183 29.7719 47.8407 30.8198 47.6854 32.0041C46.5556 40.6224 40.4895 47.9076 32.34 50.6763L31.7799 50.8666ZM32.6179 7.84492C40.4196 10.6665 46.1979 17.7262 47.2888 26.048C47.4125 26.9914 46.678 27.8281 45.7223 27.8281C44.9328 27.8281 44.2611 27.2444 44.1597 26.4703C43.2399 19.4407 38.5642 13.5451 32.047 11.0006C31.923 10.9521 31.7982 10.9049 31.6728 10.8589C31.7238 10.7361 31.7716 10.6115 31.8159 10.4854C32.0752 9.74842 32.2189 8.95644 32.2221 8.12898C32.2227 7.98777 32.2191 7.84552 32.2114 7.70234C32.3475 7.74859 32.483 7.79612 32.6179 7.84492ZM25 2.81875C27.9111 2.81875 30.2789 5.18655 30.2789 8.09762C30.2789 11.0087 27.9111 13.3765 25 13.3765C22.0889 13.3765 19.7211 11.0087 19.7211 8.09762C19.7211 5.18655 22.0889 2.81875 25 2.81875ZM25 55.1813C22.0889 55.1813 19.7211 52.8135 19.7211 49.9024C19.7211 46.9913 22.0889 44.6235 25 44.6235C27.9111 44.6235 30.2789 46.9913 30.2789 49.9024C30.2789 52.8135 27.9111 55.1813 25 55.1813ZM44.1597 31.5297C43.2399 38.5592 38.5642 44.4549 32.047 46.9993C31.923 47.0477 31.7982 47.095 31.6728 47.141C31.6728 47.141 31.6728 47.141 31.6728 47.141C31.7238 47.2638 31.7716 47.3884 31.8159 47.5145C32.0753 48.2518 32.219 49.0438 32.2221 49.8709C32.2227 50.0121 32.2191 50.1544 32.2114 50.2975C32.3475 50.2513 32.483 50.2038 32.618 50.155C40.4196 47.3334 46.1979 40.2737 47.2888 31.9521C47.4126 31.0082 46.6777 30.1719 45.7223 30.1718C44.9328 30.1718 44.2611 30.7556 44.1597 31.5297ZM29.8789 8.09762C29.8789 5.40746 27.6902 3.21875 25 3.21875C22.3098 3.21875 20.1211 5.40746 20.1211 8.09762C20.1211 10.7878 22.3098 12.9765 25 12.9765C27.6902 12.9765 29.8789 10.7878 29.8789 8.09762ZM20.1211 49.9024C20.1211 52.5925 22.3098 54.7812 25 54.7812C27.6902 54.7812 29.8789 52.5925 29.8789 49.9024C29.8789 47.2122 27.6902 45.0235 25 45.0235C22.3098 45.0235 20.1211 47.2122 20.1211 49.9024Z" fill="#F4F4F4"/>
<path d="M25.0014 22.0738C22.7959 20.4867 19.6522 20.6596 17.6511 22.5922C15.4506 24.7176 15.4485 28.1626 17.6511 30.2899C17.6637 30.3022 24.2979 36.71 24.313 36.7244C24.6763 37.0761 25.2907 37.1099 25.6975 36.7169L32.352 30.29C34.5492 28.1677 34.5492 24.7146 32.352 22.5923C30.3499 20.6586 27.2041 20.4866 25.0014 22.0738Z" fill="black"/>
</svg>
