<svg width="60" height="60" viewBox="0 0 60 60" fill="none" xmlns="http://www.w3.org/2000/svg">
<path d="M56.4112 9.63548C55.593 8.63548 54.5021 8.09002 53.2294 7.99911L50.6839 7.72639V5.54457C50.6839 2.99911 48.593 0.908203 46.0476 0.908203H17.4112C14.8657 0.908203 12.7748 2.99911 12.7748 5.54457V23.09L9.32029 26.5446C8.32029 27.5446 8.32029 29.1809 9.32029 30.09C9.86575 30.6355 10.5021 30.8173 11.1385 30.8173C11.5021 30.8173 11.8657 30.7264 12.1385 30.6355L13.1385 31.6355L3.59302 40.5446C2.95665 41.1809 2.59302 41.9991 2.59302 42.8173C2.59302 43.7264 2.86574 44.5446 3.50211 45.1809C4.13847 45.8173 4.95665 46.09 5.77484 46.09H5.86575C6.77484 46.09 7.59302 45.7264 8.13847 45.09L12.7748 40.09V47.5446C12.7748 49.5446 14.0476 51.2718 15.7748 51.9082C15.7748 52.9991 16.1385 53.9991 16.8657 54.8173C17.6839 55.7264 18.7748 56.3627 20.0476 56.4537L48.5021 59.09H48.9567C51.3203 59.09 53.3203 57.2718 53.593 54.8173L57.4112 12.9991C57.5021 11.8173 57.1385 10.6355 56.4112 9.63548ZM13.5021 29.5446L17.3203 25.7264L22.9567 31.3627L19.1385 35.1809L17.593 33.6355L15.0476 31.09L13.5021 29.5446ZM33.8657 50.3628H18.9567V48.1809H33.8657V50.3628ZM48.8657 47.5446C48.8657 49.09 47.593 50.3628 46.0476 50.3628H35.6839V47.2718C35.6839 46.7264 35.2294 46.3628 34.7748 46.3628H33.9567V45.4537C33.9567 43.7264 32.5021 42.3627 30.8657 42.3627H21.9567C20.2294 42.3627 18.8657 43.7264 18.8657 45.4537V46.3628H18.0476C17.593 46.3628 17.1385 46.7264 17.1385 47.2718V50.3628C15.6839 50.2718 14.5021 48.9991 14.5021 47.5446V38.1809L16.8657 35.6355L17.8657 36.7264C17.5021 37.6355 17.6839 38.7264 18.4112 39.5446C18.9567 39.9991 19.593 40.2718 20.2294 40.2718C20.8657 40.2718 21.5021 39.9991 22.0476 39.5446L27.1385 34.4537C28.1385 33.4537 28.1385 31.8173 27.1385 30.8173C26.4112 30.09 25.3203 29.9082 24.3203 30.2718L18.4112 24.3627C18.7748 23.4537 18.593 22.3627 17.8657 21.5446C16.9567 20.6355 15.5021 20.5446 14.5021 21.3627V5.54457C14.5021 3.99911 15.7748 2.72638 17.3203 2.72638H45.9567C47.5021 2.72638 48.7748 3.99911 48.7748 5.54457V47.5446H48.8657Z" fill="white"/>
<path d="M31.2294 25.6355C31.4113 25.7264 31.5931 25.8173 31.684 25.8173C31.8658 25.8173 32.0476 25.7264 32.1385 25.6355C38.0476 21.8173 41.5931 15.3628 41.5931 8.45366V8.36275C41.5931 7.9082 41.2294 7.45366 40.7749 7.45366C39.5931 7.36275 38.4113 7.18093 37.3203 6.81729C35.5022 6.27184 33.8658 5.54457 32.3203 4.54457C32.0476 4.36275 31.5931 4.36275 31.3203 4.54457C29.7749 5.54457 28.0476 6.36275 26.2294 6.81729C25.0476 7.18093 23.9567 7.36275 22.7749 7.45366C22.3203 7.45366 21.9567 7.99911 21.9567 8.45366C21.8658 15.3628 25.3203 21.8173 31.2294 25.6355ZM26.684 8.54457C28.5022 8.09002 30.1385 7.27184 31.7749 6.36275C33.3203 7.36275 35.0476 8.09002 36.8658 8.54457C37.8658 8.81729 38.8658 8.99911 39.8658 9.18093C39.5931 15.09 36.684 20.4537 31.8658 23.8173C27.0476 20.4537 24.0476 15.1809 23.8658 9.18093C24.684 8.99911 25.684 8.81729 26.684 8.54457Z" fill="white"/>
<path d="M30.0476 17.6348C30.3203 17.6348 30.5021 17.5439 30.6839 17.362L35.8658 12.1802C36.2294 11.8166 36.2294 11.2711 35.8658 10.9075C35.5021 10.5439 34.9567 10.5439 34.593 10.9075L30.0476 15.4529L28.8658 14.2711C28.5021 13.9075 27.9567 13.9075 27.593 14.2711C27.2294 14.6348 27.2294 15.1802 27.593 15.5439L29.4112 17.362C29.593 17.5439 29.8658 17.6348 30.0476 17.6348ZM31.5021 29.9984C31.5021 30.5439 31.8658 30.9075 32.4112 30.9075H44.7749C45.3203 30.9075 45.6839 30.5439 45.6839 29.9984C45.6839 29.453 45.3203 29.0893 44.7749 29.0893H32.4112C31.8658 29.0893 31.5021 29.453 31.5021 29.9984ZM44.7749 34.362H30.9567C30.4112 34.362 30.0476 34.7257 30.0476 35.2711C30.0476 35.8166 30.4112 36.1802 30.9567 36.1802H44.7749C45.3203 36.1802 45.6839 35.8166 45.6839 35.2711C45.6839 34.7257 45.2294 34.362 44.7749 34.362ZM44.7749 39.5439H36.3203C35.7749 39.5439 35.4112 39.9075 35.4112 40.453C35.4112 40.9984 35.7749 41.362 36.3203 41.362H44.7749C45.3203 41.362 45.6839 40.9984 45.6839 40.453C45.6839 39.9984 45.2294 39.5439 44.7749 39.5439ZM44.7749 44.8166H40.0476C39.5021 44.8166 39.1385 45.1802 39.1385 45.7257C39.1385 46.2711 39.5021 46.6348 40.0476 46.6348H44.7749C45.3203 46.6348 45.6839 46.2711 45.6839 45.7257C45.6839 45.1802 45.2294 44.8166 44.7749 44.8166Z" fill="white"/>
</svg>
