<svg version="1.2" xmlns="http://www.w3.org/2000/svg" viewBox="0 0 60 60" width="60" height="60">
	<title>f2-svg</title>
	<style>
		.s0 { fill: #ffffff } 
	</style>
	<path fill-rule="evenodd" class="s0" d="m45.1 30.9c0 8.7-7.4 15.4-15 18.9q0 0-0.1 0-0.1 0-0.1 0c-7.6-3.5-15-10.2-15-18.9v-14.5q0-0.1 0-0.1 0.1-0.1 0.1-0.1 0.1-0.1 0.2-0.1 0 0 0.1 0c4.8 1.3 10.3 2.1 14.4-1.4q0.2-0.1 0.3-0.1 0.2 0 0.3 0.1c4.1 3.5 9.6 2.7 14.4 1.4q0.1 0 0.2 0 0 0 0.1 0.1 0.1 0 0.1 0.1 0 0 0 0.1zm6.5 18l1.4-0.1q0.2 0 0.4 0.2 0.2 0.1 0.2 0.4 0 0.2-0.2 0.3-0.1 0.2-0.3 0.2l-3.5 0.2q-0.1 0-0.3-0.1-0.1 0-0.2-0.1-0.1-0.1-0.1-0.3-0.1-0.1 0-0.2c0-0.1 0.1-3 0.1-3.4q0-0.2 0.2-0.4 0.2-0.1 0.4-0.1 0.2 0 0.4 0.1 0.1 0.2 0.1 0.4v1.1q0 0.2 0 0.2 0.1 0.1 0.2 0.2 0.1 0 0.2 0 0.1 0 0.1-0.1c9-10.7 8.4-26.5-1.6-36.5-3.4-3.5-7.8-5.9-12.6-7.1-4.7-1.2-9.7-1.1-14.4 0.3-0.7 0.3-1-0.8-0.3-1 4.9-1.5 10.1-1.6 15-0.4 5 1.3 9.5 3.8 13.1 7.4 10.4 10.5 11 27.2 1.4 38.2q0 0.1 0 0.2-0.1 0.1 0 0.2 0 0.1 0.1 0.1 0.1 0.1 0.2 0.1zm-7.4 4.1q0.1 0 0.2-0.1 0.1 0 0.2 0.1 0.2 0 0.2 0 0.1 0.1 0.2 0.2 0 0.1 0.1 0.2 0 0.1-0.1 0.2 0 0.1 0 0.2-0.1 0.1-0.2 0.1-1.2 0.8-2.4 1.4-0.2 0.1-0.5 0-0.2-0.1-0.3-0.3-0.1-0.2 0-0.4 0.1-0.2 0.3-0.3 1.2-0.6 2.3-1.3zm-27.8-46.4c-0.6 0.4-1.1-0.5-0.5-0.9q1.3-0.7 2.6-1.4 0.2 0 0.4 0 0.2 0.1 0.3 0.3 0.1 0.2 0 0.4 0 0.2-0.2 0.3-1.4 0.6-2.6 1.3zm12.7 25.1q0 0.1-0.1 0.1-0.1 0-0.1-0.1-0.1 0-0.1 0l-3.8-3.8c-0.2-0.2-0.5-0.3-0.8-0.3-0.3 0-0.6 0.1-0.8 0.3l-1.2 1.2c-0.2 0.2-0.3 0.5-0.3 0.8 0 0.3 0.1 0.6 0.3 0.9l6.5 6.4q0 0.1 0.1 0.1 0.1 0.1 0.2 0.1 0.1 0 0.2-0.1 0 0 0.1-0.1l10.3-10.5q0.2-0.1 0.3-0.4 0.1-0.2 0.1-0.4 0-0.2-0.1-0.4-0.1-0.3-0.3-0.4l-1.2-1.2c-0.2-0.2-0.5-0.3-0.8-0.4-0.3 0-0.6 0.2-0.8 0.4-2.5 2.5-5.1 5.2-7.6 7.8q0 0-0.1 0zm-18.2-21.6q0.1 0.1 0.1 0.2 0.1 0.1 0.1 0.2l-0.2 3.5q0 0.2-0.1 0.4-0.2 0.1-0.4 0.1-0.2 0-0.4-0.1-0.1-0.2-0.1-0.4v-1.2q0-0.1 0-0.2-0.1-0.1-0.2-0.1-0.1-0.1-0.2 0-0.1 0-0.2 0.1c-9 10.6-8.4 26.5 1.6 36.5 3.5 3.6 8 6.1 12.8 7.2 4.9 1.2 10 1 14.8-0.6q0.2-0.1 0.4 0 0.2 0.1 0.2 0.4 0.1 0.2 0 0.4-0.1 0.2-0.3 0.2c-4.9 1.7-10.3 1.9-15.3 0.7-12.7-3-21.6-14.4-21.6-27.4 0-6.7 2.4-13.2 6.8-18.4q0.1 0 0.1-0.1 0-0.1 0-0.2-0.1-0.1-0.2-0.2-0.1 0-0.2 0l-1.3 0.1q-0.1 0-0.2-0.1-0.1 0-0.2-0.1-0.1-0.1-0.1-0.2-0.1-0.1-0.1-0.2 0-0.1 0-0.2 0.1-0.1 0.1-0.1 0.1-0.1 0.2-0.2 0.1 0 0.2 0l3.5-0.2q0.1 0 0.2 0.1 0.1 0 0.2 0.1zm26.5 14.4q0.1-0.1 0.2-0.1 0.1 0 0.2 0.1l1.2 1.2q0.1 0 0.1 0.1 0 0 0 0.1 0 0.1 0 0.1-0.1 0.1-0.1 0.1l-9.8 10q0 0-0.1 0.1 0 0-0.1 0-0.1 0-0.1 0-0.1-0.1-0.1-0.1l-6-6q-0.1 0-0.1-0.2 0-0.1 0.1-0.2l1.2-1.2q0.1 0 0.2 0 0.1 0 0.2 0l4.3 4.3c0.2 0.2 0.4 0.2 0.6 0l8.1-8.3z"/>
</svg>