<svg width="60" height="60" viewBox="0 0 60 60" fill="none" xmlns="http://www.w3.org/2000/svg">
<g clip-path="url(#clip0_1578_206)">
<path d="M11.25 16.2963L14.3739 14.7343L13.4095 13.7984L14.7155 12.453L16.1507 13.8459L16.875 13.4838V8.08008L11.25 10.8927V16.2963ZM9.375 10.8927L3.75 8.08008V13.4838L9.375 16.2963V10.8927ZM3.75 52.8588L9.375 55.6713V50.2677L3.75 47.4551V52.8588ZM15.7162 6.5632L10.3125 3.86133L4.90875 6.5632L10.3125 9.2652L15.7162 6.5632ZM55.0913 6.5632L49.6875 3.86133L44.2837 6.5632L49.6875 9.2652L55.0913 6.5632ZM45.2845 12.453L46.5905 13.7984L45.6261 14.7343L48.75 16.2963V10.8927L43.125 8.08008V13.4838L43.8493 13.8459L45.2845 12.453ZM38.6201 35.6545C39.6413 34.0994 40.2228 32.2969 40.3029 30.4382C40.3831 28.5794 39.9589 26.7336 39.0753 25.0964C38.1917 23.4591 36.8817 22.0913 35.284 21.1381C33.6863 20.1848 31.8605 19.6815 30 19.6815C28.1395 19.6815 26.3137 20.1848 24.716 21.1381C23.1183 22.0913 21.8083 23.4591 20.9247 25.0964C20.0411 26.7336 19.6169 28.5794 19.6971 30.4382C19.7772 32.2969 20.3587 34.0994 21.3799 35.6545L23.0687 34.0155L24.375 35.3609L22.5539 37.128C23.5153 38.1347 24.6708 38.936 25.9506 39.4835C27.2305 40.031 28.608 40.3132 30 40.3132C31.392 40.3132 32.7695 40.031 34.0494 39.4835C35.3292 38.936 36.4847 38.1347 37.4461 37.128L35.625 35.3609L36.9308 34.0155L38.6201 35.6545ZM50.625 55.6713L56.25 52.8588V47.4551L50.625 50.2677V55.6713ZM10.3125 43.2363L4.90875 45.9382L10.3125 48.6402L15.7162 45.9382L10.3125 43.2363ZM43.125 52.8588L48.75 55.6713V50.2677L43.125 47.4551V52.8588ZM50.625 10.8927V16.2963L56.25 13.4838V8.08008L50.625 10.8927ZM49.6875 43.2363L44.2837 45.9382L49.6875 48.6402L55.0913 45.9382L49.6875 43.2363ZM11.25 55.6713L16.875 52.8588V47.4551L11.25 50.2677V55.6713ZM9.375 20.6257H11.25V39.3757H9.375V20.6257ZM48.75 20.6257H50.625V39.3757H48.75V20.6257ZM20.625 8.4382H39.375V10.3132H20.625V8.4382ZM20.625 49.6882H39.375V51.5632H20.625V49.6882ZM46.1132 42.9273L39.9854 36.9798L38.7909 38.4332L44.3364 43.8156L46.1132 42.9273ZM15.6636 43.8156L21.2091 38.4332L20.0146 36.9798L13.8868 42.9273L15.6636 43.8156ZM21.3093 21.4657L22.7259 20.228L17.5761 15.2296L15.7993 16.118L21.3093 21.4657ZM38.6907 21.4657L44.2007 16.118L42.4239 15.2296L37.2741 20.228L38.6907 21.4657Z" fill="white"/>
</g>
<defs>
<clipPath id="clip0_1578_206">
<rect width="60" height="60" fill="white"/>
</clipPath>
</defs>
</svg>
