<svg width="60" height="60" viewBox="0 0 60 60" fill="none" xmlns="http://www.w3.org/2000/svg">
<g clip-path="url(#clip0_1578_569)">
<path d="M33.6 24.7874L41.663 16.7766L38.7145 16.7854L38.7049 13.6006L47.1161 13.5755L47.0909 21.9866L43.9061 21.977L43.915 19.0285L35.852 27.0394L33.6 24.7874ZM53.8152 49.6184H57V57H49.6184V53.8152H53.8152V49.6184ZM57 24.7874H53.8152V36.5394H57V24.7874ZM57 10.3816H53.8152V6.18479H49.6184V3H57V10.3816ZM36.5395 3H24.7875V6.18479H36.5395V3ZM10.3816 3V6.18479H6.1848V10.3816H3V3H10.3816ZM6.1848 30.331H28.8918V53.8152H36.3468V57H3V23.4605H6.1848V30.331Z" fill="black"/>
</g>
<defs>
<clipPath id="clip0_1578_569">
<rect width="54" height="54" fill="white" transform="matrix(-1 0 0 1 57 3)"/>
</clipPath>
</defs>
</svg>
