<svg width="60" height="60" viewBox="0 0 60 60" fill="none" xmlns="http://www.w3.org/2000/svg">
<path d="M53.5193 30C53.9371 29.576 54.2528 29.0623 54.4422 28.4979C54.6317 27.9336 54.69 27.3335 54.6127 26.7432C53.2961 16.6993 46.0126 8.62734 36.5452 6.04828C35.3932 3.58582 32.8932 1.875 30 1.875C27.1068 1.875 24.6067 3.58582 23.4548 6.04828C13.9879 8.62723 6.70395 16.6989 5.38735 26.7431C5.31004 27.3334 5.36834 27.9335 5.55782 28.4979C5.7473 29.0623 6.06297 29.576 6.48082 30C6.06298 30.424 5.74731 30.9377 5.55783 31.502C5.36835 32.0664 5.31004 32.6665 5.38735 33.2568C6.70395 43.3007 13.9874 51.3727 23.4548 53.9517C24.6067 56.4142 27.1068 58.125 30 58.125C32.8932 58.125 35.3932 56.4142 36.5452 53.9517C46.0121 51.3728 53.2961 43.3011 54.6127 33.2569C54.69 32.6666 54.6317 32.0665 54.4422 31.5021C54.2528 30.9378 53.9371 30.424 53.5193 30ZM52.2888 27.048C52.4125 27.9914 51.678 28.8281 50.7223 28.8281C49.9328 28.8281 49.2611 28.2444 49.1597 27.4703C48.2224 20.3068 43.3848 14.321 36.6728 11.8589C37.0727 10.8961 37.2723 9.82816 37.2114 8.70234C45.2183 11.4227 51.1791 18.5823 52.2888 27.048ZM24.6076 46.1045C18.4662 44.0536 14.0094 38.6854 13.1641 32.2256C13.0507 31.3587 12.6529 30.5878 12.0725 30C12.6529 29.4122 13.0508 28.6413 13.1641 27.7744C14.0093 21.3146 18.4661 15.9464 24.6076 13.8955C27.4883 17.1296 32.514 17.1271 35.3925 13.8955C41.5339 15.9463 45.9907 21.3146 46.836 27.7744C46.9494 28.6413 47.3473 29.4122 47.9276 30C47.3473 30.5878 46.9493 31.3588 46.836 32.2256C45.9908 38.6854 41.5341 44.0536 35.3925 46.1045C32.5117 42.8702 27.486 42.8729 24.6076 46.1045ZM30 4.21875C32.6902 4.21875 34.8789 6.40746 34.8789 9.09762C34.8789 11.7878 32.6902 13.9765 30 13.9765C27.3098 13.9765 25.1211 11.7878 25.1211 9.09762C25.1211 6.40746 27.3098 4.21875 30 4.21875ZM7.71117 27.0479C8.82094 18.5824 14.7817 11.4227 22.7886 8.70246C22.7276 9.8277 22.927 10.8956 23.3272 11.859C16.6152 14.321 11.7776 20.307 10.8403 27.4703C10.7389 28.2444 10.0672 28.8281 9.27774 28.8281C8.32231 28.8281 7.58742 27.9918 7.71117 27.0479ZM7.71117 32.952C7.58754 32.0086 8.32196 31.1719 9.27774 31.1719C10.0672 31.1719 10.7389 31.7556 10.8403 32.5297C11.7776 39.693 16.6152 45.679 23.3272 48.1411C22.9273 49.1039 22.7277 50.1718 22.7886 51.2977C14.7817 48.5773 8.82094 41.4177 7.71117 32.952ZM30 55.7812C27.3098 55.7812 25.1211 53.5925 25.1211 50.9024C25.1211 48.2122 27.3098 46.0235 30 46.0235C32.6902 46.0235 34.8789 48.2122 34.8789 50.9024C34.8789 53.5925 32.6902 55.7812 30 55.7812ZM52.2888 32.9521C51.1791 41.4176 45.2183 48.5773 37.2114 51.2975C37.2724 50.1723 37.073 49.1044 36.6728 48.141C43.3848 45.679 48.2224 39.693 49.1597 32.5297C49.2611 31.7556 49.9328 31.1718 50.7223 31.1718C51.6777 31.1719 52.4126 32.0082 52.2888 32.9521Z" fill="white"/>
<path fill-rule="evenodd" clip-rule="evenodd" d="M52.9577 30L53.2344 29.7192C53.6095 29.3385 53.8929 28.8773 54.063 28.3706C54.2331 27.8639 54.2855 27.3251 54.216 26.7952C52.9208 16.9142 45.7549 8.9717 36.44 6.43422L36.2613 6.38554L36.1828 6.21777C35.0939 3.89011 32.7316 2.275 30 2.275C27.2684 2.275 24.9059 3.89012 23.8172 6.21776L23.7387 6.38553L23.56 6.43422C14.2456 8.97158 7.07922 16.9138 5.78396 26.7951C5.71455 27.325 5.76689 27.8639 5.93701 28.3706C6.10714 28.8773 6.39056 29.3385 6.76573 29.7192L7.04241 30L6.76573 30.2808C6.39057 30.6615 6.10715 31.1227 5.93703 31.6294C5.7669 32.1361 5.71455 32.6749 5.78396 33.2048C7.0792 43.0858 14.2451 51.0283 23.56 53.5658L23.7387 53.6145L23.8172 53.7822C24.9059 56.1099 27.2684 57.725 30 57.725C32.7316 57.725 35.0939 56.1099 36.1828 53.7822L36.2613 53.6145L36.44 53.5658C45.7544 51.0284 52.9208 43.0862 54.216 33.2049C54.2855 32.675 54.2331 32.1361 54.063 31.6294C53.8929 31.1227 53.6095 30.6615 53.2344 30.2807L52.9577 30ZM54.6127 33.2569C53.2961 43.3011 46.0121 51.3728 36.5452 53.9517C35.3932 56.4142 32.8932 58.125 30 58.125C27.1068 58.125 24.6067 56.4142 23.4548 53.9517C13.9874 51.3727 6.70395 43.3007 5.38735 33.2568C5.31004 32.6665 5.36835 32.0664 5.55783 31.502C5.74731 30.9377 6.06298 30.424 6.48082 30C6.06297 29.576 5.7473 29.0623 5.55782 28.4979C5.36834 27.9335 5.31004 27.3334 5.38735 26.7431C6.70395 16.6989 13.9879 8.62723 23.4548 6.04828C24.6067 3.58582 27.1068 1.875 30 1.875C32.8932 1.875 35.3932 3.58582 36.5452 6.04828C46.0126 8.62734 53.2961 16.6993 54.6127 26.7432C54.69 27.3335 54.6317 27.9336 54.4422 28.4979C54.2528 29.0623 53.9372 29.5759 53.5194 29.9999C53.5193 30 53.5193 30 53.5193 30C53.5193 30 53.5193 30 53.5194 30.0001C53.9372 30.4241 54.2528 30.9378 54.4422 31.5021C54.6317 32.0665 54.69 32.6666 54.6127 33.2569ZM36.1433 12.0908L36.3034 11.7055C36.681 10.7964 36.8696 9.7882 36.812 8.72396L36.78 8.13332L37.34 8.32361C45.4895 11.0924 51.5556 18.3775 52.6854 26.9961C52.8406 28.1798 51.9188 29.2281 50.7223 29.2281C49.7354 29.2281 48.891 28.4989 48.7631 27.5222C47.8452 20.5072 43.1081 14.6456 36.535 12.2344L36.1433 12.0908ZM24.731 46.5674L24.4809 46.4839C18.1949 44.3847 13.6328 38.8898 12.7675 32.2775C12.6659 31.5008 12.3096 30.8095 11.7879 30.281L11.5105 30L11.7879 29.719C12.3096 29.1905 12.666 28.4991 12.7675 27.7225L12.7675 27.7225C13.6326 21.1102 18.1948 15.6153 24.4809 13.5161L24.731 13.4326L24.9063 13.6295C27.6278 16.6849 32.3743 16.6825 35.0938 13.6295L35.2691 13.4326L35.5192 13.5161C41.8052 15.6152 46.3674 21.1102 47.2326 27.7225L46.836 27.7744C45.9907 21.3146 41.5339 15.9463 35.3925 13.8955C32.514 17.1271 27.4883 17.1296 24.6076 13.8955C18.4661 15.9464 14.0093 21.3146 13.1641 27.7744C13.0508 28.6413 12.6529 29.4122 12.0725 30C12.6529 30.5878 13.0507 31.3587 13.1641 32.2256C14.0094 38.6854 18.4662 44.0536 24.6076 46.1045C27.486 42.8729 32.5117 42.8702 35.3925 46.1045C41.5341 44.0536 45.9908 38.6854 46.836 32.2256C46.9493 31.3588 47.3473 30.5878 47.9276 30C47.3473 29.4122 46.9494 28.6413 46.836 27.7744L47.2326 27.7225C47.3342 28.4992 47.6905 29.1905 48.2122 29.719L48.4897 30L48.2122 30.281C47.6905 30.8095 47.3341 31.501 47.2326 32.2775C46.3675 38.8898 41.8053 44.3847 35.5192 46.4839L35.2691 46.5674L35.0938 46.3705C32.3722 43.315 27.6257 43.3175 24.9063 46.3705L24.731 46.5674ZM23.2201 8.13342L23.188 8.72413C23.1303 9.78774 23.3188 10.7959 23.6966 11.7056L23.8567 12.0909L23.465 12.2346C16.8919 14.6456 12.1548 20.5074 11.2369 27.5222L11.2369 27.5222C11.109 28.4989 10.2646 29.2281 9.27774 29.2281C8.08171 29.2281 7.15929 28.1802 7.31457 26.9959C8.44437 18.3776 14.5105 11.0924 22.66 8.32372L23.2201 8.13342ZM22.953 12.0007C16.4358 14.5451 11.7601 20.4408 10.8403 27.4703C10.7389 28.2444 10.0672 28.8281 9.27774 28.8281C8.32231 28.8281 7.58742 27.9918 7.71117 27.0479C8.80207 18.7263 14.5804 11.6666 22.382 8.84504C22.517 8.79624 22.6525 8.74871 22.7886 8.70246C22.7809 8.84564 22.7773 8.98788 22.7779 9.1291C22.781 9.95624 22.9247 10.7482 23.1841 11.4855C23.2284 11.6116 23.2762 11.7362 23.3272 11.859C23.2018 11.905 23.0771 11.9523 22.953 12.0007ZM11.2369 32.4778L11.2369 32.4778C12.1548 39.4926 16.8919 45.3544 23.465 47.7656L23.8567 47.9092L23.6966 48.2945C23.319 49.2036 23.1304 50.2118 23.1881 51.276L23.22 51.8667L22.66 51.6764C14.5105 48.9076 8.44437 41.6225 7.31457 33.0039L7.71117 32.952C8.80207 41.2738 14.5804 48.3335 22.3821 51.1551C22.517 51.2039 22.6525 51.2514 22.7886 51.2977C22.7809 51.1545 22.7774 51.0122 22.7779 50.871C22.7811 50.0436 22.9248 49.2516 23.1841 48.5146C23.2284 48.3885 23.2762 48.2639 23.3272 48.1411C23.2018 48.0951 23.0771 48.0478 22.953 47.9994C16.4358 45.4549 11.7601 39.5592 10.8403 32.5297C10.7389 31.7556 10.0672 31.1719 9.27774 31.1719C8.32196 31.1719 7.58754 32.0086 7.71117 32.952L7.31457 33.0039C7.15944 31.8202 8.08123 30.7719 9.27774 30.7719C10.2646 30.7719 11.109 31.5011 11.2369 32.4778ZM36.7799 51.8666L36.812 51.2759C36.8697 50.2123 36.6812 49.2041 36.3034 48.2944L36.1433 47.9091L36.535 47.7654C43.1081 45.3544 47.8452 39.4926 48.7631 32.4778C48.891 31.5011 49.7354 30.7718 50.7223 30.7718C51.9183 30.7719 52.8407 31.8198 52.6854 33.0041C51.5556 41.6224 45.4895 48.9076 37.34 51.6763L36.7799 51.8666ZM37.6179 8.84492C45.4196 11.6665 51.1979 18.7262 52.2888 27.048C52.4125 27.9914 51.678 28.8281 50.7223 28.8281C49.9328 28.8281 49.2611 28.2444 49.1597 27.4703C48.2399 20.4407 43.5642 14.5451 37.047 12.0006C36.923 11.9521 36.7982 11.9049 36.6728 11.8589C36.7238 11.7361 36.7716 11.6115 36.8159 11.4854C37.0752 10.7484 37.2189 9.95644 37.2221 9.12898C37.2227 8.98777 37.2191 8.84552 37.2114 8.70234C37.3475 8.74859 37.483 8.79612 37.6179 8.84492ZM30 3.81875C32.9111 3.81875 35.2789 6.18655 35.2789 9.09762C35.2789 12.0087 32.9111 14.3765 30 14.3765C27.0889 14.3765 24.7211 12.0087 24.7211 9.09762C24.7211 6.18655 27.0889 3.81875 30 3.81875ZM30 56.1813C27.0889 56.1813 24.7211 53.8135 24.7211 50.9024C24.7211 47.9913 27.0889 45.6235 30 45.6235C32.9111 45.6235 35.2789 47.9913 35.2789 50.9024C35.2789 53.8135 32.9111 56.1813 30 56.1813ZM49.1597 32.5297C48.2399 39.5592 43.5642 45.4549 37.047 47.9993C36.923 48.0477 36.7982 48.095 36.6728 48.141C36.6728 48.141 36.6728 48.141 36.6728 48.141C36.7238 48.2638 36.7716 48.3884 36.8159 48.5145C37.0753 49.2518 37.219 50.0438 37.2221 50.8709C37.2227 51.0121 37.2191 51.1544 37.2114 51.2975C37.3475 51.2513 37.483 51.2038 37.618 51.155C45.4196 48.3334 51.1979 41.2737 52.2888 32.9521C52.4126 32.0082 51.6777 31.1719 50.7223 31.1718C49.9328 31.1718 49.2611 31.7556 49.1597 32.5297ZM34.8789 9.09762C34.8789 6.40746 32.6902 4.21875 30 4.21875C27.3098 4.21875 25.1211 6.40746 25.1211 9.09762C25.1211 11.7878 27.3098 13.9765 30 13.9765C32.6902 13.9765 34.8789 11.7878 34.8789 9.09762ZM25.1211 50.9024C25.1211 53.5925 27.3098 55.7812 30 55.7812C32.6902 55.7812 34.8789 53.5925 34.8789 50.9024C34.8789 48.2122 32.6902 46.0235 30 46.0235C27.3098 46.0235 25.1211 48.2122 25.1211 50.9024Z" fill="black"/>
<path d="M30.0014 23.0738C27.7959 21.4867 24.6522 21.6596 22.6511 23.5922C20.4506 25.7176 20.4485 29.1626 22.6511 31.2899C22.6637 31.3022 29.2979 37.71 29.313 37.7244C29.6763 38.0761 30.2907 38.1099 30.6975 37.7169L37.352 31.29C39.5492 29.1677 39.5492 25.7146 37.352 23.5923C35.3499 21.6586 32.2041 21.4866 30.0014 23.0738Z" fill="white"/>
</svg>
