<svg width="60" height="60" viewBox="0 0 60 60" fill="none" xmlns="http://www.w3.org/2000/svg">
<path fill-rule="evenodd" clip-rule="evenodd" d="M37.4267 24.4571L29.3255 32.7669C29.1239 32.971 28.8641 32.9736 28.6879 32.7972L24.4165 28.526L24.4173 28.5251C24.3603 28.4695 24.2837 28.4384 24.204 28.4386C24.1244 28.4388 24.0479 28.4701 23.9911 28.526L22.8169 29.7001L22.8161 29.6993C22.7605 29.7563 22.7294 29.8329 22.7296 29.9125C22.7297 29.9922 22.7611 30.0687 22.8169 30.1255L28.7551 36.0636C28.7858 36.0946 28.8224 36.1192 28.8628 36.1359C28.9031 36.1526 28.9463 36.1611 28.99 36.1609C29.0337 36.1607 29.0768 36.1518 29.117 36.1347C29.1571 36.1176 29.1935 36.0926 29.2239 36.0613L38.9896 26.1015C39.0218 26.0747 39.048 26.0415 39.0666 26.0039C39.0851 25.9663 39.0955 25.9253 39.0972 25.8834C39.0988 25.8415 39.0916 25.7998 39.0761 25.7609C39.0605 25.722 39.037 25.6868 39.0069 25.6576L37.8295 24.4806L37.8302 24.4797C37.7795 24.4246 37.7093 24.3913 37.6345 24.3869C37.5597 24.3825 37.4861 24.4074 37.4292 24.4563L37.4284 24.4554L37.4267 24.4571ZM45.1259 30.9031C45.1259 39.6323 37.7386 46.2653 30.1464 49.8024C30.103 49.8234 30.0554 49.8343 30.0072 49.8343C29.959 49.8343 29.9114 49.8234 29.8681 49.8024C22.2755 46.2648 14.8885 39.6329 14.8885 30.9024V16.4247C14.8882 16.3739 14.8997 16.3236 14.9222 16.278C14.9446 16.2323 14.9774 16.1925 15.0179 16.1617C15.0584 16.1309 15.1055 16.1099 15.1555 16.1005C15.2055 16.091 15.257 16.0933 15.306 16.1072C20.1302 17.4431 25.6374 18.2293 29.7435 14.6751C29.8163 14.6111 29.9098 14.5756 30.0068 14.5751V14.5768C30.1036 14.5767 30.1971 14.6116 30.2701 14.675C34.3765 18.2292 39.8837 17.4435 44.7076 16.1072C44.7566 16.0933 44.8081 16.091 44.8581 16.1005C44.9081 16.1099 44.9552 16.1309 44.9957 16.1617C45.0362 16.1925 45.069 16.2323 45.0914 16.278C45.1139 16.3236 45.1255 16.3739 45.1252 16.4247L45.1259 30.9031ZM44.2431 53.0007C44.3031 52.9637 44.3697 52.9388 44.4393 52.9276C44.5089 52.9163 44.58 52.9188 44.6486 52.9351C44.7172 52.9513 44.7819 52.9809 44.8391 53.0221C44.8963 53.0633 44.9448 53.1154 44.9818 53.1754C45.0188 53.2354 45.0437 53.302 45.055 53.3716C45.0662 53.4412 45.0637 53.5123 45.0474 53.5809C45.0312 53.6495 45.0017 53.7142 44.9604 53.7714C44.9192 53.8286 44.8671 53.877 44.8071 53.9141C44.0144 54.4077 43.1966 54.8599 42.357 55.2686C42.2291 55.3312 42.0817 55.3403 41.9471 55.2942C41.8126 55.248 41.7018 55.1503 41.6393 55.0224C41.5768 54.8946 41.5676 54.7472 41.6138 54.6126C41.66 54.478 41.7577 54.3673 41.8855 54.3048C42.6919 53.9083 43.4787 53.4732 44.2431 53.0007ZM16.4143 6.60654C15.8023 6.96103 15.2631 6.03232 15.8753 5.6763C16.7316 5.17989 17.6131 4.72838 18.5163 4.32361C18.646 4.26797 18.7923 4.26559 18.9237 4.31698C19.0551 4.36836 19.161 4.46939 19.2186 4.59823C19.2761 4.72706 19.2806 4.87336 19.2311 5.00549C19.1816 5.13762 19.0821 5.24497 18.9542 5.30435C18.0846 5.69203 17.2367 6.12674 16.4143 6.60654ZM29.2226 31.6407C31.7421 29.0509 34.2586 26.379 36.8206 23.8477L36.8197 23.8468C37.0387 23.6375 37.3313 23.5228 37.6341 23.5275C37.937 23.5323 38.2258 23.6561 38.4381 23.8722L38.4389 23.8713L39.616 25.0483C39.7251 25.1573 39.8114 25.2868 39.8699 25.4295C39.9284 25.5722 39.9579 25.7251 39.9566 25.8793C39.9553 26.0335 39.9232 26.1859 39.8624 26.3276C39.8015 26.4692 39.713 26.5974 39.602 26.7044L29.299 37.2123C29.2592 37.2527 29.2118 37.2849 29.1595 37.3069C29.1072 37.3289 29.0511 37.3403 28.9944 37.3406C28.9376 37.3408 28.8814 37.3298 28.8289 37.3082C28.7765 37.2866 28.7288 37.2548 28.6887 37.2147L28.6879 37.2156L22.2074 30.7351C21.99 30.5168 21.868 30.2213 21.8681 29.9132C21.8683 29.6051 21.9906 29.3097 22.2082 29.0917L22.2074 29.0907L23.4202 27.8817C23.6404 27.6789 23.9307 27.5692 24.23 27.5758C24.5293 27.5824 24.8145 27.7046 25.0256 27.9169L25.0265 27.9159L28.7538 31.6433C28.7846 31.6743 28.8212 31.6988 28.8616 31.7154C28.902 31.7321 28.9452 31.7405 28.9889 31.7402C29.0325 31.7399 29.0757 31.7309 29.1158 31.7137C29.156 31.6965 29.1923 31.6721 29.2226 31.6407ZM51.5937 48.872L53.0201 48.8172C53.1624 48.8122 53.3009 48.8639 53.4051 48.961C53.5093 49.0581 53.5707 49.1926 53.5757 49.3349C53.5808 49.4773 53.5291 49.6158 53.432 49.72C53.3349 49.8242 53.2004 49.8855 53.0581 49.8906L49.6328 50.0287C49.5396 50.0513 49.4421 50.0486 49.3503 50.0209C49.2585 49.9933 49.1757 49.9417 49.1104 49.8715C49.0452 49.8012 48.9998 49.7149 48.979 49.6213C48.9582 49.5277 48.9627 49.4302 48.992 49.339C49.0272 49.2309 49.1209 46.3347 49.1339 45.9664C49.1389 45.8241 49.2003 45.6896 49.3045 45.5925C49.4087 45.4954 49.5472 45.4437 49.6895 45.4487C49.8318 45.4537 49.9663 45.5151 50.0634 45.6193C50.1605 45.7234 50.2123 45.8619 50.2072 46.0043L50.1641 47.1282C50.1615 47.1969 50.1804 47.2647 50.2182 47.3221C50.256 47.3795 50.3108 47.4236 50.375 47.4484C50.4391 47.4731 50.5093 47.4772 50.5759 47.46C50.6425 47.4429 50.702 47.4054 50.7462 47.3527C59.6759 36.7023 59.0889 20.8431 49.1235 10.8777C45.6531 7.40822 41.3048 4.94742 36.5438 3.75846C31.7828 2.5695 26.7882 2.69712 22.0941 4.12767C21.4191 4.3331 21.1058 3.30654 21.7826 3.10052C26.6628 1.61244 31.8557 1.47909 36.8058 2.71473C41.7559 3.95037 46.277 6.50851 49.8853 10.1155C60.3396 20.5697 60.8658 37.2552 51.3315 48.3275C51.2896 48.3761 51.2629 48.4359 51.2545 48.4995C51.2461 48.563 51.2564 48.6277 51.2843 48.6855C51.3121 48.7433 51.3562 48.7917 51.4112 48.8248C51.4662 48.8578 51.5296 48.8745 51.5937 48.872ZM10.9179 10.0946C10.9715 10.1468 11.0135 10.2097 11.0414 10.2791C11.0692 10.3485 11.0822 10.423 11.0795 10.4977L10.9452 13.9854C10.9402 14.1277 10.8788 14.2622 10.7746 14.3593C10.6704 14.4564 10.532 14.5081 10.3896 14.5031C10.2473 14.4981 10.1128 14.4367 10.0157 14.3325C9.9186 14.2283 9.86687 14.0898 9.87189 13.9475L9.91677 12.7774C9.91931 12.7089 9.90042 12.6412 9.86275 12.584C9.82507 12.5267 9.77047 12.4825 9.70654 12.4577C9.64262 12.4329 9.57254 12.4286 9.50607 12.4454C9.43959 12.4623 9.38002 12.4994 9.33564 12.5517C0.322512 23.2003 0.878801 39.1262 10.8763 49.1242C14.4173 52.6672 18.8727 55.1572 23.7458 56.3166C28.619 57.4759 33.7184 57.2591 38.4755 55.6902C38.6108 55.6471 38.7577 55.6594 38.8841 55.7242C39.0104 55.7891 39.106 55.9013 39.1499 56.0364C39.1938 56.1714 39.1825 56.3184 39.1185 56.4451C39.0544 56.5719 38.9428 56.6682 38.8081 56.713C33.8513 58.3405 28.5406 58.5634 23.4649 57.3568C10.7881 54.3408 1.87771 42.9858 1.87771 30.0007C1.86921 23.253 4.29501 16.7287 8.70974 11.6257C8.75173 11.5771 8.77861 11.5173 8.78709 11.4537C8.79557 11.39 8.78527 11.3253 8.75747 11.2674C8.72966 11.2096 8.68555 11.1611 8.63056 11.1279C8.57557 11.0948 8.5121 11.0784 8.44794 11.0809L7.05868 11.1342C6.98821 11.1367 6.91793 11.1253 6.85187 11.1006C6.78581 11.0759 6.72526 11.0385 6.67367 10.9904C6.62207 10.9423 6.58046 10.8846 6.55119 10.8204C6.52193 10.7562 6.50558 10.6869 6.5031 10.6165C6.50061 10.546 6.51203 10.4757 6.53671 10.4096C6.56138 10.3436 6.59882 10.283 6.6469 10.2314C6.69498 10.1798 6.75274 10.1382 6.8169 10.109C6.88106 10.0797 6.95036 10.0634 7.02083 10.0609L10.5087 9.92693C10.5848 9.92408 10.6607 9.93756 10.7312 9.96644C10.8017 9.99532 10.8657 10.0392 10.9179 10.0946Z" fill="black"/>
</svg>
