<svg width="60" height="60" viewBox="0 0 60 60" fill="none" xmlns="http://www.w3.org/2000/svg">
<path d="M55.3125 37.5H53.4375V33.75C53.4375 28.5844 49.2281 24.375 44.0625 24.375C38.8969 24.375 34.6875 28.5844 34.6875 33.75V37.5H32.8125C31.2656 37.5 30 38.7656 30 40.3125V55.3125C30 56.8594 31.2656 58.125 32.8125 58.125H55.3125C56.8594 58.125 58.125 56.8594 58.125 55.3125V40.3125C58.125 38.7656 56.8594 37.5 55.3125 37.5ZM47.7656 52.2C47.8112 52.3412 47.8229 52.4911 47.7999 52.6377C47.7768 52.7843 47.7197 52.9234 47.633 53.0438C47.5463 53.1642 47.4326 53.2626 47.3009 53.331C47.1693 53.3994 47.0234 53.4359 46.875 53.4375H41.25C40.95 53.4375 40.6687 53.2969 40.4906 53.0438C40.4035 52.9235 40.3462 52.7844 40.3234 52.6377C40.3005 52.491 40.3129 52.341 40.3594 52.2L41.5312 48.6937C40.7531 47.9906 40.3125 47.0063 40.3125 45.9375C40.3125 43.8656 41.9906 42.1875 44.0625 42.1875C46.1344 42.1875 47.8125 43.8656 47.8125 45.9375C47.8125 47.0063 47.3719 47.9906 46.5938 48.6937L47.7656 52.2ZM47.8125 37.5H40.3125V33.75C40.3125 31.6781 41.9906 30 44.0625 30C46.1344 30 47.8125 31.6781 47.8125 33.75V37.5ZM51.5625 37.5H49.6875V33.75C49.6875 30.6469 47.1656 28.125 44.0625 28.125C40.9594 28.125 38.4375 30.6469 38.4375 33.75V37.5H36.5625V33.75C36.5625 29.6156 39.9281 26.25 44.0625 26.25C48.1969 26.25 51.5625 29.6156 51.5625 33.75V37.5Z" fill="black"/>
<path d="M27.5156 56.25H6.5625C5.01562 56.25 3.75 54.9844 3.75 53.4375V15H14.0625C14.5781 15 15 14.5781 15 14.0625V3.75H40.3125C41.8594 3.75 43.125 5.01562 43.125 6.5625V21.5625C43.125 22.0781 43.5469 22.5 44.0625 22.5C44.5781 22.5 45 22.0781 45 21.5625V6.5625C45 3.975 42.9 1.875 40.3125 1.875H14.0625C14.0625 1.875 14.025 1.875 14.0156 1.88437C13.9312 1.88437 13.8469 1.90312 13.7625 1.93125C13.7344 1.93125 13.7063 1.95 13.6875 1.95937C13.5844 2.00625 13.4906 2.0625 13.4062 2.14687L2.14687 13.3969C2.0625 13.4812 2.00625 13.575 1.95937 13.6687L1.93125 13.7531C1.90312 13.8281 1.88437 13.9125 1.88437 13.9969C1.88437 14.0156 1.875 14.0344 1.875 14.0531V53.4281C1.875 56.0156 3.975 58.1156 6.5625 58.1156H27.5156C28.0312 58.1156 28.4531 57.6938 28.4531 57.1781C28.4531 56.6625 28.0312 56.2406 27.5156 56.2406V56.25Z" fill="black"/>
<path d="M35.625 17.8125H11.25C10.7344 17.8125 10.3125 18.2344 10.3125 18.75C10.3125 19.2656 10.7344 19.6875 11.25 19.6875H35.625C36.1406 19.6875 36.5625 19.2656 36.5625 18.75C36.5625 18.2344 36.1406 17.8125 35.625 17.8125ZM35.625 11.25H22.5C21.9844 11.25 21.5625 11.6719 21.5625 12.1875C21.5625 12.7031 21.9844 13.125 22.5 13.125H35.625C36.1406 13.125 36.5625 12.7031 36.5625 12.1875C36.5625 11.6719 36.1406 11.25 35.625 11.25ZM36.5625 25.3125C36.5625 24.7969 36.1406 24.375 35.625 24.375H11.25C10.7344 24.375 10.3125 24.7969 10.3125 25.3125C10.3125 25.8281 10.7344 26.25 11.25 26.25H35.625C36.1406 26.25 36.5625 25.8281 36.5625 25.3125ZM11.25 30.9375C10.7344 30.9375 10.3125 31.3594 10.3125 31.875C10.3125 32.3906 10.7344 32.8125 11.25 32.8125H24.375C24.8906 32.8125 25.3125 32.3906 25.3125 31.875C25.3125 31.3594 24.8906 30.9375 24.375 30.9375H11.25Z" fill="black"/>
</svg>
