<?xml version="1.0" encoding="UTF-8"?>
<svg version="1.1" xmlns="http://www.w3.org/2000/svg" width="60" height="60">
<path d="M0 0 C2.41880375 1.8812918 3.33791905 2.84792427 4.25 5.75 C4.375 9 4.375 9 4.25 11.75 C5.2090625 11.9665625 5.2090625 11.9665625 6.1875 12.1875 C8.25 12.75 8.25 12.75 9.25 13.75 C9.40354338 16.55511953 9.48165776 19.31863671 9.5 22.125 C9.520625 22.90617187 9.54125 23.68734375 9.5625 24.4921875 C9.60182818 30.23410195 9.60182818 30.23410195 8.0715332 32.47802734 C5.56047547 34.23149347 3.82289483 34.10725701 0.77734375 34.078125 C-0.28677734 34.07296875 -1.35089844 34.0678125 -2.44726562 34.0625 C-3.55779297 34.041875 -4.66832031 34.02125 -5.8125 34 C-6.92689453 33.99484375 -8.04128906 33.9896875 -9.18945312 33.984375 C-17.44138451 33.90430775 -17.44138451 33.90430775 -19.75 32.75 C-19.75 26.15 -19.75 19.55 -19.75 12.75 C-18.43 12.42 -17.11 12.09 -15.75 11.75 C-15.811875 10.863125 -15.87375 9.97625 -15.9375 9.0625 C-15.72589729 5.32418547 -15.03109386 3.68283496 -12.75 0.75 C-8.70831417 -2.17673801 -4.4400365 -2.01819841 0 0 Z M-8.75 1.75 C-8.75 2.08 -8.75 2.41 -8.75 2.75 C-6.77 2.75 -4.79 2.75 -2.75 2.75 C-2.75 2.42 -2.75 2.09 -2.75 1.75 C-4.73 1.75 -6.71 1.75 -8.75 1.75 Z M-10.75 2.75 C-10.42 3.41 -10.09 4.07 -9.75 4.75 C-9.42 4.09 -9.09 3.43 -8.75 2.75 C-9.41 2.75 -10.07 2.75 -10.75 2.75 Z M-0.75 3.75 C0.25 5.75 0.25 5.75 0.25 5.75 Z M-12.75 5.75 C-12.75 7.73 -12.75 9.71 -12.75 11.75 C-12.42 11.75 -12.09 11.75 -11.75 11.75 C-11.75 9.77 -11.75 7.79 -11.75 5.75 C-12.08 5.75 -12.41 5.75 -12.75 5.75 Z M-5.75 4.75 C-6.74 5.41 -7.73 6.07 -8.75 6.75 C-9.00030977 9.33380177 -9.00030977 9.33380177 -8.75 11.75 C-6.77 11.75 -4.79 11.75 -2.75 11.75 C-2.49969023 9.33380177 -2.49969023 9.33380177 -2.75 6.75 C-3.74 6.09 -4.73 5.43 -5.75 4.75 Z M0.25 5.75 C0.25 7.73 0.25 9.71 0.25 11.75 C0.58 11.75 0.91 11.75 1.25 11.75 C1.25 9.77 1.25 7.79 1.25 5.75 C0.92 5.75 0.59 5.75 0.25 5.75 Z M-7.75 17.75 C-8.52842938 21.15562852 -8.84978121 24.25765756 -8.75 27.75 C-6.77 27.75 -4.79 27.75 -2.75 27.75 C-2.75 24.78 -2.75 21.81 -2.75 18.75 C-4.4 18.42 -6.05 18.09 -7.75 17.75 Z " fill="#FFFFFF" transform="translate(49.75,25.25)"/>
<path d="M0 0 C1.27939453 0.00580078 2.55878906 0.01160156 3.87695312 0.01757812 C13.34619272 0.14184636 13.34619272 0.14184636 17.9375 2.4375 C17.9375 9.0375 17.9375 15.6375 17.9375 22.4375 C17.2775 22.4375 16.6175 22.4375 15.9375 22.4375 C15.87691406 21.22191406 15.81632812 20.00632812 15.75390625 18.75390625 C15.66951668 17.16925772 15.5848679 15.58462298 15.5 14 C15.46068359 13.19755859 15.42136719 12.39511719 15.38085938 11.56835938 C15.5320704 7.68510439 15.5320704 7.68510439 13.9375 4.4375 C12.01271187 4.27943469 10.0825079 4.186365 8.15234375 4.12109375 C6.98251953 4.07919922 5.81269531 4.03730469 4.60742188 3.99414062 C2.75987305 3.93516602 2.75987305 3.93516602 0.875 3.875 C-0.36056641 3.83181641 -1.59613281 3.78863281 -2.86914062 3.74414062 C-5.93347335 3.63765802 -8.99789073 3.53564576 -12.0625 3.4375 C-12.0625 7.0675 -12.0625 10.6975 -12.0625 14.4375 C-15.6925 14.4375 -19.3225 14.4375 -23.0625 14.4375 C-22.7325 27.9675 -22.4025 41.4975 -22.0625 55.4375 C-14.1425 55.4375 -6.2225 55.4375 1.9375 55.4375 C1.6075 56.4275 1.2775 57.4175 0.9375 58.4375 C-2.64576501 58.49564085 -6.22890838 58.53114357 -9.8125 58.5625 C-10.82828125 58.57925781 -11.8440625 58.59601562 -12.890625 58.61328125 C-13.8703125 58.61972656 -14.85 58.62617187 -15.859375 58.6328125 C-17.21047363 58.64852295 -17.21047363 58.64852295 -18.58886719 58.66455078 C-21.23877581 58.42131993 -22.83090556 57.86689958 -25.0625 56.4375 C-27.66899495 51.2245101 -26.46126973 43.00833192 -26.52246094 37.20898438 C-26.54900867 35.28848247 -26.58986862 33.36812151 -26.64550781 31.44824219 C-27.16137314 13.43024724 -27.16137314 13.43024724 -22.84375 8.4453125 C-21.60468838 7.4164337 -20.34614464 6.41018789 -19.0625 5.4375 C-18.38316406 4.45652344 -17.70382813 3.47554688 -17.00390625 2.46484375 C-11.89264873 -1.05805486 -6.02962658 -0.15538704 0 0 Z " fill="#FFFFFF" transform="translate(27.0625,0.5625)"/>
<path d="M0 0 C8.91 0 17.82 0 27 0 C26.67 0.99 26.34 1.98 26 3 C17.42 3 8.84 3 0 3 C0 2.01 0 1.02 0 0 Z " fill="#FFFFFF" transform="translate(10,24)"/>
<path d="M0 0 C8.58 0 17.16 0 26 0 C26.33 0.99 26.66 1.98 27 3 C18.09 3 9.18 3 0 3 C0 2.01 0 1.02 0 0 Z " fill="#FFFFFF" transform="translate(10,17)"/>
<path d="M0 0 C4.62 0 9.24 0 14 0 C14.33 0.99 14.66 1.98 15 3 C9.72 3 4.44 3 -1 3 C-0.67 2.01 -0.34 1.02 0 0 Z " fill="#FFFFFF" transform="translate(11,30)"/>
<path d="M0 0 C5.28 0 10.56 0 16 0 C15.67 0.99 15.34 1.98 15 3 C10.38 3 5.76 3 1 3 C0.67 2.01 0.34 1.02 0 0 Z " fill="#FFFFFF" transform="translate(21,11)"/>
</svg>
