<svg width="52" height="60" viewBox="0 0 52 60" fill="none" xmlns="http://www.w3.org/2000/svg">
<path fill-rule="evenodd" clip-rule="evenodd" d="M0.705322 15.9375V22.8879C0.706015 23.0525 0.749734 23.2141 0.832144 23.3566C0.914554 23.4991 1.03279 23.6176 1.17513 23.7003L6.72431 26.9054V33.0952L1.17513 36.3003C1.03285 36.383 0.914652 36.5014 0.832245 36.6438C0.749838 36.7863 0.706085 36.9478 0.705322 37.1123V44.0625C0.706082 44.227 0.749835 44.3885 0.832243 44.5309C0.914651 44.6733 1.03285 44.7917 1.17513 44.8743L7.194 48.3492C7.33694 48.4315 7.49886 48.4751 7.6638 48.4758C7.82884 48.4758 7.99095 48.4322 8.1336 48.3492L13.6828 45.1452L19.0441 48.2403V54.649C19.0437 54.8138 19.0869 54.9758 19.1694 55.1185C19.252 55.2613 19.3708 55.3796 19.5139 55.4614L25.5328 58.9368C25.6758 59.019 25.8378 59.0622 26.0027 59.0624C26.1675 59.0615 26.3293 59.0183 26.4725 58.9368L32.4914 55.4614C32.6337 55.3787 32.7519 55.2602 32.8343 55.1176C32.9167 54.9751 32.9604 54.8136 32.9612 54.649V48.2404L38.3225 45.1453L43.8717 48.3493C44.0134 48.4322 44.1746 48.4759 44.3387 48.4759C44.5028 48.4759 44.664 48.4322 44.8057 48.3493L50.8303 44.8745C50.9719 44.7915 51.0892 44.6728 51.1707 44.5304C51.2521 44.3879 51.2948 44.2266 51.2945 44.0625V37.1123C51.2948 36.9482 51.2521 36.7869 51.1707 36.6444C51.0892 36.502 50.9719 36.3833 50.8303 36.3003L45.2756 33.0952V26.9054L50.8303 23.7003C50.9719 23.6173 51.0893 23.4986 51.1707 23.356C51.2522 23.2134 51.2948 23.052 51.2945 22.8879V15.9375C51.2948 15.7734 51.2521 15.6121 51.1706 15.4696C51.0892 15.3272 50.9718 15.2086 50.8303 15.1256L44.8057 11.6507C44.6638 11.5685 44.5027 11.5251 44.3387 11.5251C44.1747 11.5251 44.0136 11.5685 43.8717 11.6507L38.3225 14.8548L32.9608 11.7602V5.35098C32.9601 5.18637 32.9163 5.02481 32.8339 4.8823C32.7515 4.73979 32.6333 4.62129 32.491 4.53852L26.4725 1.06309C26.3296 0.980808 26.1676 0.9375 26.0026 0.9375C25.8377 0.9375 25.6757 0.980808 25.5328 1.06309L19.5139 4.53852C19.3708 4.62039 19.252 4.73869 19.1695 4.8814C19.0869 5.02411 19.0437 5.18613 19.0441 5.35098V11.7602L13.6828 14.8548L8.1336 11.6507C7.9907 11.5685 7.8287 11.5252 7.6638 11.5252C7.4989 11.5252 7.3369 11.5685 7.194 11.6507L1.17513 15.1256C1.03285 15.2082 0.914651 15.3266 0.832243 15.469C0.749835 15.6115 0.706082 15.7729 0.705322 15.9375ZM8.60376 24.7394V19.9535L12.749 17.5619V22.3467L8.60341 24.7394H8.60376ZM8.60376 26.9054L13.6831 23.9711L19.0445 27.0657V33.4759C19.0441 33.6405 19.0873 33.8023 19.1699 33.9447C19.2524 34.0872 19.3712 34.2052 19.5143 34.2867L25.0634 37.4919V43.6828L19.9841 46.6161L14.6227 43.5209V37.1123C14.622 36.9478 14.5782 36.7863 14.4958 36.6438C14.4134 36.5014 14.2952 36.383 14.1529 36.3003L8.60376 33.0952V26.9054ZM26.937 35.3275V30.5411L31.0821 28.1484V32.9343L26.9367 35.3275H26.937ZM32.4917 34.2868C32.634 34.2044 32.7522 34.0862 32.8346 33.9439C32.917 33.8017 32.9608 33.6404 32.9615 33.476V27.0658L38.3229 23.9713L43.4022 26.9054V33.0952L37.8531 36.3003C37.71 36.3821 37.5911 36.5003 37.5086 36.6429C37.4261 36.7856 37.3828 36.9475 37.3833 37.1123V43.5209L32.022 46.6161L26.9367 43.6828V37.492L32.4914 34.2868H32.4917ZM40.1965 37.1123L44.3419 34.719L48.4871 37.1123L44.3419 39.5049L40.1965 37.1123ZM45.2758 41.1282L49.4212 38.735V43.5209L45.2755 45.914V41.1281L45.2758 41.1282ZM21.8573 47.6988L26.0027 45.3062L30.1483 47.6988L26.0031 50.092L21.8573 47.6988ZM26.9367 51.7159L31.0821 49.3233V54.108L26.9367 56.5006V51.7159ZM7.6638 34.719L11.8092 37.1123L7.6638 39.5049L3.51853 37.1123L7.6638 34.719ZM8.60341 41.1282L12.7487 38.735V43.5209L8.60341 45.914V41.1281V41.1282ZM7.6638 18.3308L3.51853 15.9375L7.6638 13.5449L11.8092 15.9375L7.6638 18.3308ZM30.1483 5.35098L26.0027 7.74255L21.8573 5.35098L26.0027 2.95778L30.1483 5.35098ZM14.6224 22.3467V16.4791L19.9837 13.384L25.5328 16.5881C25.6756 16.6707 25.8377 16.7139 26.0027 16.7135C26.1675 16.7132 26.3295 16.67 26.4725 16.5881L32.0217 13.384L37.3829 16.4791V22.3467L32.0217 25.4424L26.4725 22.2378C26.3296 22.1555 26.1676 22.1122 26.0026 22.1122C25.8377 22.1122 25.6757 22.1555 25.5328 22.2378L19.9837 25.4424L14.6224 22.3467ZM44.3411 18.3308L40.1961 15.9375L44.3415 13.5449L48.4868 15.9375L44.3415 18.3308H44.3411ZM45.2751 19.9535L49.4205 17.5619V22.3467L45.2755 24.7394V19.9535H45.2751ZM26.0027 28.9173L21.8573 26.5247L26.0027 24.1325L30.1483 26.5247L26.0031 28.9173H26.0027ZM26.9367 14.1528V9.367L31.0821 6.97368V11.7602L26.9367 14.1528Z" fill="black"/>
</svg>
