<?xml version="1.0" encoding="UTF-8"?>
<svg version="1.1" xmlns="http://www.w3.org/2000/svg" width="60" height="60">
<path d="M0 0 C2.69143968 1.25982283 4.61948841 2.54868784 6.9375 4.375 C8.030625 4.931875 9.12375 5.48875 10.25 6.0625 C15.62301297 9.0848198 19.53809288 13.69787333 22.375 19.125 C23.85425169 27.67178753 24.05529817 36.03266557 18.9375 43.375 C14.53313371 48.13873584 9.91862969 51.79223945 3.9375 54.375 C3.1125 54.973125 2.2875 55.57125 1.4375 56.1875 C-1.0625 57.375 -1.0625 57.375 -4.125 56.75 C-6.81643968 55.49017717 -8.74448841 54.20131216 -11.0625 52.375 C-12.155625 51.818125 -13.24875 51.26125 -14.375 50.6875 C-19.74801297 47.6651802 -23.66309288 43.05212667 -26.5 37.625 C-27.97925169 29.07821247 -28.18029817 20.71733443 -23.0625 13.375 C-18.65813371 8.61126416 -14.04362969 4.95776055 -8.0625 2.375 C-7.2375 1.776875 -6.4125 1.17875 -5.5625 0.5625 C-3.0625 -0.625 -3.0625 -0.625 0 0 Z M-6.0625 4.375 C-6.10504356 6.37454746 -6.10330783 8.37541636 -6.0625 10.375 C-4.94413776 11.71904775 -4.94413776 11.71904775 -2.0625 11.5 C0.81913776 11.71904775 0.81913776 11.71904775 1.9375 10.375 C2.1875773 7.91690002 2.1875773 7.91690002 1.9375 5.375 C1.2775 4.715 0.6175 4.055 -0.0625 3.375 C-3.8388932 3.0768576 -3.8388932 3.0768576 -6.0625 4.375 Z M-12.0625 8.375 C-17.5195431 11.10352155 -20.4593166 14.8957188 -23.0625 20.375 C-23.92469774 23.68484583 -23.92469774 23.68484583 -24.0625 26.375 C-23.0725 26.045 -22.0825 25.715 -21.0625 25.375 C-20.33941431 23.40294813 -19.62053834 21.42902319 -18.94140625 19.44140625 C-17.02843725 14.94380359 -12.96201507 12.1191032 -9.0625 9.375 C-10.0525 9.045 -11.0425 8.715 -12.0625 8.375 Z M5.9375 8.375 C5.6075 9.035 5.2775 9.695 4.9375 10.375 C5.96875 10.7875 7 11.2 8.0625 11.625 C13.63110369 14.70984767 15.53346354 20.7743876 17.9375 26.375 C18.5975 26.375 19.2575 26.375 19.9375 26.375 C19.48145047 20.29433961 16.95107391 15.01926338 12.34375 10.9765625 C9.39760418 8.93368158 9.39760418 8.93368158 5.9375 8.375 Z M-12.75 15 C-17.08747854 19.45470769 -18.73856758 23.11230662 -19.0625 29.375 C-18.10634378 34.41655099 -16.5816035 37.6426175 -13.0625 41.375 C-9.64674812 43.65216792 -9.10788971 43.51233149 -5.25 42.9375 C-2.01134138 42.51383826 0.0061945 42.38925735 3.25 43.0625 C6.07154874 43.66877902 6.07154874 43.66877902 8.625 41.75 C12.96247854 37.29529231 14.61356758 33.63769338 14.9375 27.375 C13.98134378 22.33344901 12.4566035 19.1073825 8.9375 15.375 C5.52174812 13.09783208 4.98288971 13.23766851 1.125 13.8125 C-2.11365862 14.23616174 -4.1311945 14.36074265 -7.375 13.6875 C-10.19654874 13.08122098 -10.19654874 13.08122098 -12.75 15 Z M-24.0625 30.375 C-23.60255268 36.50763096 -21.03217026 41.64349878 -16.50390625 45.80859375 C-14.79071436 47.10681159 -14.79071436 47.10681159 -12.0625 48.375 C-11.0725 48.045 -10.0825 47.715 -9.0625 47.375 C-9.805 46.7975 -10.5475 46.22 -11.3125 45.625 C-16.91039728 41.04490223 -19.38391393 37.04296959 -22.0625 30.375 C-22.7225 30.375 -23.3825 30.375 -24.0625 30.375 Z M17.9375 30.375 C17.58558594 31.19484375 17.23367187 32.0146875 16.87109375 32.859375 C13.81552856 39.52896376 11.87057697 43.60176921 4.9375 46.375 C5.2675 47.035 5.5975 47.695 5.9375 48.375 C12.00594834 46.46777338 15.36184799 42.78223483 18.25 37.25 C19.55889745 34.59081705 19.9375 33.41970565 19.9375 30.375 C19.2775 30.375 18.6175 30.375 17.9375 30.375 Z M-6.0625 46.375 C-6.3125773 48.83309998 -6.3125773 48.83309998 -6.0625 51.375 C-5.4025 52.035 -4.7425 52.695 -4.0625 53.375 C-0.96323181 53.05301034 -0.96323181 53.05301034 1.9375 52.375 C1.98004356 50.37545254 1.97830783 48.37458364 1.9375 46.375 C0.81913776 45.03095225 0.81913776 45.03095225 -2.0625 45.25 C-4.94413776 45.03095225 -4.94413776 45.03095225 -6.0625 46.375 Z " fill="#828282" transform="translate(32.0625,1.625)"/>
<path d="M0 0 C0.33 0 0.66 0 1 0 C1.1953125 1.98567708 1.390625 3.97135417 1.5859375 5.95703125 C1.92665391 8.29988142 1.92665391 8.29988142 4 11 C4.70691945 12.3231398 5.3936502 13.6572141 6.0625 15 C6.40410156 15.680625 6.74570313 16.36125 7.09765625 17.0625 C8 19 8 19 9 22 C11.60242414 23.64820195 12.86248779 24 16 24 C15.0925 23.484375 14.185 22.96875 13.25 22.4375 C9.440884 19.89507341 7.85983937 17.1660402 6 13 C6.1875 10.8125 6.1875 10.8125 7 9 C7.34662049 7.67005898 7.68166803 6.33699426 8 5 C8.15855469 5.59167969 8.31710937 6.18335938 8.48046875 6.79296875 C10.03201632 12.04765747 11.49423367 15.56703518 16 19 C18.38901957 19.76129575 18.38901957 19.76129575 21 20 C23.33762223 20.65146849 25.67190457 21.31526605 28 22 C28 22.33 28 22.66 28 23 C26.02 23.33 24.04 23.66 22 24 C22 25.65 22 27.3 22 29 C25.47147842 29.74957157 25.47147842 29.74957157 29 30 C29 28.02 29 26.04 29 24 C29.33 24 29.66 24 30 24 C30.33 25.65 30.66 27.3 31 29 C31.99 28.67 32.98 28.34 34 28 C33.34 27.67 32.68 27.34 32 27 C33.70643868 23.58712264 37.53323975 23.15558675 41 22 C42.75947462 19.10664174 43.88351096 15.89510557 45.125 12.75 C45.47820313 11.85796875 45.83140625 10.9659375 46.1953125 10.046875 C46.46085937 9.37140625 46.72640625 8.6959375 47 8 C47.33 8 47.66 8 48 8 C48.33 5.36 48.66 2.72 49 0 C49.33 0 49.66 0 50 0 C50.47196005 7.74801078 50.56597241 14.44935158 46 21 C41.59563371 25.76373584 36.98112969 29.41723945 31 32 C30.175 32.598125 29.35 33.19625 28.5 33.8125 C26 35 26 35 22.9375 34.375 C20.24606032 33.11517717 18.31801159 31.82631216 16 30 C14.906875 29.443125 13.81375 28.88625 12.6875 28.3125 C7.31448703 25.2901802 3.39940712 20.67712667 0.5625 15.25 C-0.31524196 10.17860203 -0.14948236 5.13222754 0 0 Z " fill="#5B5B5B" transform="translate(5,24)"/>
<path d="M0 0 C1.8871875 0.00773437 1.8871875 0.00773437 3.8125 0.015625 C5.070625 0.01046875 6.32875 0.0053125 7.625 0 C10.8125 0.265625 10.8125 0.265625 12.8125 2.265625 C13.45020454 5.87928407 13.52395183 8.21643339 11.421875 11.31640625 C6.99207693 16.12177415 6.99207693 16.12177415 3.25 16.578125 C-0.24964902 14.69369861 -2.97070762 12.6019346 -5.1875 9.265625 C-5.6875 5.515625 -5.6875 5.515625 -5.1875 2.265625 C-3.1875 0.265625 -3.1875 0.265625 0 0 Z " fill="#FFFFFF" transform="translate(26.1875,21.734375)"/>
<path d="M0 0 C0.99 0.66 1.98 1.32 3 2 C2.67 3.32 2.34 4.64 2 6 C2.66 6 3.32 6 4 6 C4 6.99 4 7.98 4 9 C-0.47825089 10.65500576 -3.38726025 11.07848188 -8.125 10.3125 C-12.24264728 9.78168928 -12.24264728 9.78168928 -15.875 11.9375 C-20.07372733 17.98860704 -22.623353 22.51976399 -22 30 C-22.99 29.34 -23.98 28.68 -25 28 C-25 27.34 -25 26.68 -25 26 C-25.99 26 -26.98 26 -28 26 C-28.33 26.99 -28.66 27.98 -29 29 C-29.08075665 26.70890403 -29.13907731 24.41700733 -29.1875 22.125 C-29.22230469 20.84882813 -29.25710937 19.57265625 -29.29296875 18.2578125 C-29.19628906 17.18273437 -29.09960938 16.10765625 -29 15 C-28.01 14.34 -27.02 13.68 -26 13 C-26.33 15.97 -26.66 18.94 -27 22 C-24.53084645 21.0556213 -24.53084645 21.0556213 -23.6875 17.25 C-22.26515015 13.18718529 -20.27721948 10.84600639 -17 8 C-16.67 7.67 -16.34 7.34 -16 7 C-14.33382885 6.95936168 -12.66611905 6.957279 -11 7 C-10.67 6.01 -10.34 5.02 -10 4 C-10 4.66 -10 5.32 -10 6 C-7.36 6 -4.72 6 -2 6 C-1.34 4.02 -0.68 2.04 0 0 Z " fill="#8F8F8F" transform="translate(35,6)"/>
<path d="M0 0 C2.66392056 1.24694154 4.68405361 2.51007885 6.9375 4.375 C7.9275 5.035 8.9175 5.695 9.9375 6.375 C8.2875 7.365 6.6375 8.355 4.9375 9.375 C4.6075 8.055 4.2775 6.735 3.9375 5.375 C3.2775 6.695 2.6175 8.015 1.9375 9.375 C1.2775 7.725 0.6175 6.075 -0.0625 4.375 C-2.0425 4.375 -4.0225 4.375 -6.0625 4.375 C-6.0625 6.355 -6.0625 8.335 -6.0625 10.375 C-7.7125 10.705 -9.3625 11.035 -11.0625 11.375 C-10.7325 10.715 -10.4025 10.055 -10.0625 9.375 C-10.825625 9.684375 -11.58875 9.99375 -12.375 10.3125 C-14.25039677 11.05393593 -16.14934652 11.73728217 -18.0625 12.375 C-19.11271103 14.22471696 -19.11271103 14.22471696 -20.0625 16.375 C-21.03831759 17.72613205 -22.03279741 19.06446944 -23.0625 20.375 C-23.7225 19.055 -24.3825 17.735 -25.0625 16.375 C-20.61158314 10.80832196 -16.53149491 6.54266103 -10.09375 3.37890625 C-7.87380258 2.35118384 -7.87380258 2.35118384 -5.375 0.4375 C-3.0625 -0.625 -3.0625 -0.625 0 0 Z " fill="#838383" transform="translate(32.0625,1.625)"/>
<path d="M0 0 C0.33 0 0.66 0 1 0 C1.47196005 7.74801078 1.56597241 14.44935158 -3 21 C-7.37343033 25.73027569 -12.00808704 29.51554828 -18 32 C-18.99 32.495 -18.99 32.495 -20 33 C-20 32.34 -20 31.68 -20 31 C-20.66 30.67 -21.32 30.34 -22 30 C-21.34 30 -20.68 30 -20 30 C-20 28.02 -20 26.04 -20 24 C-19.67 24 -19.34 24 -19 24 C-18.67 25.65 -18.34 27.3 -18 29 C-17.01 28.67 -16.02 28.34 -15 28 C-15.66 27.67 -16.32 27.34 -17 27 C-15.29356132 23.58712264 -11.46676025 23.15558675 -8 22 C-6.24052538 19.10664174 -5.11648904 15.89510557 -3.875 12.75 C-3.52179687 11.85796875 -3.16859375 10.9659375 -2.8046875 10.046875 C-2.53914063 9.37140625 -2.27359375 8.6959375 -2 8 C-1.67 8 -1.34 8 -1 8 C-0.67 5.36 -0.34 2.72 0 0 Z " fill="#666666" transform="translate(54,24)"/>
<path d="M0 0 C3.58444158 -0.08961104 5.52009175 0.55243529 8.14453125 3 C13.36553872 8.8701057 15.15687394 11.75566555 15.0625 19.625 C15.05798828 20.33140625 15.05347656 21.0378125 15.04882812 21.765625 C15.03703875 23.51045275 15.01910324 25.255237 15 27 C14.34 26.01 13.68 25.02 13 24 C11.68 24 10.36 24 9 24 C9.33 22.68 9.66 21.36 10 20 C10.99 20.33 11.98 20.66 13 21 C12.37806106 19.24890978 11.75232002 17.49916969 11.125 15.75 C10.77695312 14.77546875 10.42890625 13.8009375 10.0703125 12.796875 C7.92353856 7.12263064 7.92353856 7.12263064 3 4 C1.25 2.4375 1.25 2.4375 0 1 C0 0.67 0 0.34 0 0 Z " fill="#6E6E6E" transform="translate(39,8)"/>
<path d="M0 0 C0.33 0 0.66 0 1 0 C0.67 2.97 0.34 5.94 0 9 C1.32 8.67 2.64 8.34 4 8 C4.33 7.01 4.66 6.02 5 5 C5 8.96 5 12.92 5 17 C4.01 16.34 3.02 15.68 2 15 C2 14.34 2 13.68 2 13 C1.01 13 0.02 13 -1 13 C-1.33 13.99 -1.66 14.98 -2 16 C-2.05384521 13.70858714 -2.09272087 11.41681812 -2.125 9.125 C-2.14820313 7.84882813 -2.17140625 6.57265625 -2.1953125 5.2578125 C-2 2 -2 2 0 0 Z " fill="#AFAFAF" transform="translate(8,19)"/>
<path d="M0 0 C0.33 0 0.66 0 1 0 C1 1.98 1 3.96 1 6 C5.455 6.99 5.455 6.99 10 8 C10 8.99 10 9.98 10 11 C6.92367604 11.96684467 5.48755783 12.21940102 2.5 10.875 C-0.26963403 8.79777447 -2.6230026 6.51282583 -5 4 C-4.0409375 3.8453125 -4.0409375 3.8453125 -3.0625 3.6875 C-2.381875 3.460625 -1.70125 3.23375 -1 3 C-0.67 2.01 -0.34 1.02 0 0 Z " fill="#989898" transform="translate(24,47)"/>
<path d="M0 0 C-0.556875 0.226875 -1.11375 0.45375 -1.6875 0.6875 C-7.38086507 3.91886936 -9.79939327 8.09310825 -12 14 C-12.99 13.67 -13.98 13.34 -15 13 C-14.52353853 7.99715458 -13.06711438 4.96920685 -10 1 C-6.1496895 -1.56687367 -4.41430237 -0.83288724 0 0 Z " fill="#727272" transform="translate(26,14)"/>
<path d="M0 0 C2.66392056 1.24694154 4.68405361 2.51007885 6.9375 4.375 C7.9275 5.035 8.9175 5.695 9.9375 6.375 C8.2875 7.365 6.6375 8.355 4.9375 9.375 C4.6075 8.055 4.2775 6.735 3.9375 5.375 C3.2775 6.695 2.6175 8.015 1.9375 9.375 C1.710625 8.59125 1.48375 7.8075 1.25 7 C0.16182884 4.19421178 0.16182884 4.19421178 -2.5 3.0625 C-5.10323423 2.24543572 -5.10323423 2.24543572 -8.0625 2.375 C-5.03144184 0.057132 -3.82657464 -0.7809336 0 0 Z " fill="#555555" transform="translate(32.0625,1.625)"/>
<path d="M0 0 C0.66 0.33 1.32 0.66 2 1 C1.77734375 2.83203125 1.77734375 2.83203125 1 5 C-0.99609375 6.44921875 -0.99609375 6.44921875 -3.4375 7.6875 C-4.24058594 8.10386719 -5.04367188 8.52023438 -5.87109375 8.94921875 C-6.57363281 9.29597656 -7.27617188 9.64273438 -8 10 C-8.99 10.495 -8.99 10.495 -10 11 C-10 10.34 -10 9.68 -10 9 C-10.66 8.67 -11.32 8.34 -12 8 C-11.34 8 -10.68 8 -10 8 C-10 6.02 -10 4.04 -10 2 C-9.67 2 -9.34 2 -9 2 C-8.67 3.65 -8.34 5.3 -8 7 C-7.01 6.67 -6.02 6.34 -5 6 C-5.66 5.67 -6.32 5.34 -7 5 C-5.60683123 2.21366246 -3.84019484 2.06507306 -1 1 C-0.67 0.67 -0.34 0.34 0 0 Z " fill="#535353" transform="translate(44,46)"/>
<path d="M0 0 C2.97 0.495 2.97 0.495 6 1 C6 1.66 6 2.32 6 3 C7.32 3 8.64 3 10 3 C9.67 4.65 9.34 6.3 9 8 C10.32 8.33 11.64 8.66 13 9 C11.02 9.66 9.04 10.32 7 11 C7 9.02 7 7.04 7 5 C6.34 5 5.68 5 5 5 C5 4.34 5 3.68 5 3 C3.02 3 1.04 3 -1 3 C-0.67 2.01 -0.34 1.02 0 0 Z " fill="#B8B8B8" transform="translate(28,43)"/>
<path d="M0 0 C2 3 2 3 2 5 C2.66 5.33 3.32 5.66 4 6 C3.01 6 2.02 6 1 6 C1 6.66 1 7.32 1 8 C1.99 8.33 2.98 8.66 4 9 C3.01 9.495 3.01 9.495 2 10 C1.27306096 11.97888961 0.60183749 13.97954558 0 16 C-0.99 15.67 -1.98 15.34 -3 15 C-2.8858134 13.06183265 -2.75826577 11.12444901 -2.625 9.1875 C-2.55539063 8.10855469 -2.48578125 7.02960937 -2.4140625 5.91796875 C-2 3 -2 3 0 0 Z " fill="#595959" transform="translate(48,23)"/>
<path d="M0 0 C0.33 0 0.66 0 1 0 C1.1953125 1.98567708 1.390625 3.97135417 1.5859375 5.95703125 C1.92665391 8.29988142 1.92665391 8.29988142 4 11 C4.75 13.5 4.75 13.5 5 16 C4.34 16.99 3.68 17.98 3 19 C-0.44572039 12.68284595 -0.31461385 7.09629025 0 0 Z " fill="#565656" transform="translate(5,24)"/>
<path d="M0 0 C2.28062828 3.42094242 2.21925007 4.68187222 2.125 8.6875 C2.10695313 9.68136719 2.08890625 10.67523438 2.0703125 11.69921875 C2.03550781 12.83810547 2.03550781 12.83810547 2 14 C1.34 13.01 0.68 12.02 0 11 C-1.32 11 -2.64 11 -4 11 C-3.67 9.68 -3.34 8.36 -3 7 C-2.01 7.33 -1.02 7.66 0 8 C0 5.36 0 2.72 0 0 Z " fill="#DCDCDC" transform="translate(52,21)"/>
<path d="M0 0 C5.53846154 0.61538462 5.53846154 0.61538462 7.875 2.5625 C8.431875 3.2740625 8.431875 3.2740625 9 4 C8.67 4.99 8.34 5.98 8 7 C1.125 3.375 1.125 3.375 0 0 Z " fill="#919191" transform="translate(39,8)"/>
<path d="M0 0 C4.39158329 1.4638611 4.87947433 3.97831338 7 8 C6.01 8.33 5.02 8.66 4 9 C1.47740939 7.02579865 1.0070192 6.03254358 0.3125 2.8125 C0.209375 1.884375 0.10625 0.95625 0 0 Z " fill="#979797" transform="translate(8,39)"/>
<path d="M0 0 C3.465 1.98 3.465 1.98 7 4 C7 4.99 7 5.98 7 7 C4.03824877 6.38722388 2.61941217 5.74627478 0 4 C0 2.68 0 1.36 0 0 Z " fill="#8A8A8A" transform="translate(15,40)"/>
<path d="M0 0 C0.99 0 1.98 0 3 0 C2.43628586 3.26954202 1.50037734 4.82575883 -1 7 C-1.99 6.67 -2.98 6.34 -4 6 C-2.1875 3 -2.1875 3 0 0 Z " fill="#929292" transform="translate(48,42)"/>
<path d="M0 0 C2 1 4 2 6 3 C6 4.32 6 5.64 6 7 C2.34683329 5.75023244 1.21934164 5.32901247 -1 2 C-0.67 1.34 -0.34 0.68 0 0 Z " fill="#707070" transform="translate(14,46)"/>
<path d="M0 0 C1.5 1.125 1.5 1.125 3 3 C3.1875 6.1875 3.1875 6.1875 3 9 C0.27573689 6.64722731 -0.8141763 4.37503669 -2 1 C-1.34 0.67 -0.68 0.34 0 0 Z " fill="#8A8A8A" transform="translate(45,18)"/>
<path d="M0 0 C-1.32 1.32 -2.64 2.64 -4 4 C-4.33 3.34 -4.66 2.68 -5 2 C-7.02463255 1.34786708 -7.02463255 1.34786708 -9 1 C-5.57367167 -0.61798838 -3.61944899 -1.34053666 0 0 Z " fill="#777777" transform="translate(43,44)"/>
<path d="M0 0 C0.33 0.66 0.66 1.32 1 2 C2.32467746 2.6837045 3.65863633 3.34964186 5 4 C5.66 4.66 6.32 5.32 7 6 C5.35 6 3.7 6 2 6 C2 5.34 2 4.68 2 4 C0.35 4 -1.3 4 -3 4 C-2.01 3.67 -1.02 3.34 0 3 C0 2.01 0 1.02 0 0 Z " fill="#C6C6C6" transform="translate(24,10)"/>
<path d="M0 0 C0.33 0 0.66 0 1 0 C1.125 2.875 1.125 2.875 1 6 C0.34 6.66 -0.32 7.32 -1 8 C-1.66 6.68 -2.32 5.36 -3 4 C-2.02727325 2.64664105 -1.0260734 1.31337396 0 0 Z " fill="#6D6D6D" transform="translate(10,14)"/>
<path d="M0 0 C0.66 0 1.32 0 2 0 C1.39816251 2.02045442 0.72693904 4.02111039 0 6 C-0.99 6.495 -0.99 6.495 -2 7 C-2.125 4.625 -2.125 4.625 -2 2 C-1.34 1.34 -0.68 0.68 0 0 Z " fill="#8D8D8D" transform="translate(13,11)"/>
</svg>
