<?xml version="1.0" encoding="UTF-8"?>
<svg version="1.1" xmlns="http://www.w3.org/2000/svg" width="60" height="60">
<path d="M0 0 C3.52918496 2.55302742 4.75520504 4.222416 6.0625 8.375 C5.97904387 13.2154558 4.83529906 15.09188508 2 19 C-0.72888264 21.33904226 -2.25888194 20.99589076 -5.9375 20.9375 C-9.11450379 20.42182961 -10.20117299 19.8544706 -12.9375 17.875 C-15.44741437 14.37633149 -16 12.29748201 -16 8 C-14.77776186 4.46908981 -13.6040399 2.53500677 -10.8125 0.0625 C-6.99814593 -1.3784782 -3.81562916 -1.24875136 0 0 Z " fill="#FFFFFF" transform="translate(35,20)"/>
<path d="M0 0 C6.6 0 13.2 0 20 0 C20 0.99 20 1.98 20 3 C13.4 3 6.8 3 0 3 C0 2.01 0 1.02 0 0 Z " fill="#FFFFFF" transform="translate(20,49)"/>
<path d="M0 0 C0.99 0 1.98 0 3 0 C3 6.6 3 13.2 3 20 C2.01 20 1.02 20 0 20 C0 13.4 0 6.8 0 0 Z " fill="#FFFFFF" transform="translate(48,20)"/>
<path d="M0 0 C0.99 0 1.98 0 3 0 C3 6.6 3 13.2 3 20 C2.01 20 1.02 20 0 20 C0 13.4 0 6.8 0 0 Z " fill="#FFFFFF" transform="translate(9,20)"/>
<path d="M0 0 C6.6 0 13.2 0 20 0 C20 0.99 20 1.98 20 3 C13.4 3 6.8 3 0 3 C0 2.01 0 1.02 0 0 Z " fill="#FFFFFF" transform="translate(20,8)"/>
<path d="M0 0 C0.3125 2.8125 0.3125 2.8125 0 6 C-2.38892501 7.88599343 -3.91851558 9 -7 9 C-7.3125 6.1875 -7.3125 6.1875 -7 3 C-4.61107499 1.11400657 -3.08148442 0 0 0 Z " fill="#FFFFFF" transform="translate(57,47)"/>
<path d="M0 0 C5.875 1.875 5.875 1.875 7 3 C7.04080783 4.99958364 7.04254356 7.00045254 7 9 C1.125 7.125 1.125 7.125 0 6 C-0.04080783 4.00041636 -0.04254356 1.99954746 0 0 Z " fill="#FFFFFF" transform="translate(3,47)"/>
<path d="M0 0 C0 1.98 0 3.96 0 6 C-3.465 7.485 -3.465 7.485 -7 9 C-7 6.69 -7 4.38 -7 2 C-4.35261084 0.5393715 -3.10551666 0 0 0 Z " fill="#FFFFFF" transform="translate(57,8)"/>
<path d="M0 0 C4.75 0.875 4.75 0.875 7 2 C7 4.31 7 6.62 7 9 C4.69 8.01 2.38 7.02 0 6 C0 4.02 0 2.04 0 0 Z " fill="#FFFFFF" transform="translate(3,8)"/>
<path d="M0 0 C0.66 0.33 1.32 0.66 2 1 C2 1.66 2 2.32 2 3 C-0.48770135 4.56633048 -1.65552204 5.04100928 -4.625 4.6875 C-7 4 -7 4 -9 3 C-9 2.34 -9 1.68 -9 1 C-5.64406166 -1.11299821 -3.77811119 -1.09366377 0 0 Z " fill="#FFFFFF" transform="translate(53,44)"/>
<path d="M0 0 C0.66 0.33 1.32 0.66 2 1 C2 1.66 2 2.32 2 3 C-0.48770135 4.56633048 -1.65552204 5.04100928 -4.625 4.6875 C-7 4 -7 4 -9 3 C-9 2.34 -9 1.68 -9 1 C-5.64406166 -1.11299821 -3.77811119 -1.09366377 0 0 Z " fill="#FFFFFF" transform="translate(14,44)"/>
<path d="M0 0 C2.03144641 0.93446535 4.03533587 1.93224776 6 3 C3.94766315 5.2477975 2.99332739 6.0022242 0 7 C-2.6875 5.5625 -2.6875 5.5625 -5 4 C-3.36587557 2.29159719 -2.13093906 1.06546953 0 0 Z " fill="#FFFFFF" transform="translate(49,3)"/>
<path d="M0 0 C2.03144641 0.93446535 4.03533587 1.93224776 6 3 C3.94766315 5.2477975 2.99332739 6.0022242 0 7 C-2.6875 5.5625 -2.6875 5.5625 -5 4 C-3.36587557 2.29159719 -2.13093906 1.06546953 0 0 Z " fill="#FFFFFF" transform="translate(10,3)"/>
<path d="M0 0 C1.98 0.99 3.96 1.98 6 3 C6 4.98 6 6.96 6 9 C4.02 8.34 2.04 7.68 0 7 C0 4.69 0 2.38 0 0 Z " fill="#FFFFFF" transform="translate(43,47)"/>
<path d="M0 0 C0 2.31 0 4.62 0 7 C-1.98 7.66 -3.96 8.32 -6 9 C-6.3125 6.1875 -6.3125 6.1875 -6 3 C-2.1 0 -2.1 0 0 0 Z " fill="#FFFFFF" transform="translate(17,47)"/>
<path d="M0 0 C1.98 0.66 3.96 1.32 6 2 C6 4.31 6 6.62 6 9 C4.02 8.01 2.04 7.02 0 6 C0 4.02 0 2.04 0 0 Z " fill="#FFFFFF" transform="translate(43,8)"/>
<path d="M0 0 C0 1.98 0 3.96 0 6 C-1.98 6.99 -3.96 7.98 -6 9 C-6 6.69 -6 4.38 -6 2 C-2.25 0 -2.25 0 0 0 Z " fill="#FFFFFF" transform="translate(17,8)"/>
<path d="M0 0 C3.26954202 0.56371414 4.82575883 1.49962266 7 4 C6.67 4.99 6.34 5.98 6 7 C3.69 5.35 1.38 3.7 -1 2 C-0.67 1.34 -0.34 0.68 0 0 Z " fill="#FFFFFF" transform="translate(16,15)"/>
<path d="M0 0 C2.86697492 1.28519565 4.97607712 2.57129254 7 5 C7 5.66 7 6.32 7 7 C3.74456771 6.65120368 2.98126893 5.97866739 0.75 3.4375 C-0.11625 2.2309375 -0.11625 2.2309375 -1 1 C-0.67 0.67 -0.34 0.34 0 0 Z " fill="#FFFFFF" transform="translate(39,37)"/>
<path d="M0 0 C0.99 0.33 1.98 0.66 3 1 C-0.61328125 5.6875 -0.61328125 5.6875 -2 7 C-2.99 7 -3.98 7 -5 7 C-3.70700306 4.11562221 -2.34058637 2.12780579 0 0 Z " fill="#FFFFFF" transform="translate(19,37)"/>
<path d="M0 0 C-0.1875 1.8125 -0.1875 1.8125 -1 4 C-3.5625 5.75 -3.5625 5.75 -6 7 C-6 3 -6 3 -4.6875 1.25 C-3 0 -3 0 0 0 Z " fill="#FFFFFF" transform="translate(44,15)"/>
</svg>
