<?xml version="1.0" encoding="UTF-8"?>
<svg version="1.1" xmlns="http://www.w3.org/2000/svg" width="60" height="60">
<path d="M0 0 C2.69143968 1.25982283 4.61948841 2.54868784 6.9375 4.375 C8.030625 4.931875 9.12375 5.48875 10.25 6.0625 C15.62301297 9.0848198 19.53809288 13.69787333 22.375 19.125 C23.85425169 27.67178753 24.05529817 36.03266557 18.9375 43.375 C14.53313371 48.13873584 9.91862969 51.79223945 3.9375 54.375 C3.1125 54.973125 2.2875 55.57125 1.4375 56.1875 C-1.0625 57.375 -1.0625 57.375 -4.125 56.75 C-6.81643968 55.49017717 -8.74448841 54.20131216 -11.0625 52.375 C-12.155625 51.818125 -13.24875 51.26125 -14.375 50.6875 C-19.74801297 47.6651802 -23.66309288 43.05212667 -26.5 37.625 C-27.97925169 29.07821247 -28.18029817 20.71733443 -23.0625 13.375 C-18.65813371 8.61126416 -14.04362969 4.95776055 -8.0625 2.375 C-7.2375 1.776875 -6.4125 1.17875 -5.5625 0.5625 C-3.0625 -0.625 -3.0625 -0.625 0 0 Z M-6.0625 4.375 C-6.10504356 6.37454746 -6.10330783 8.37541636 -6.0625 10.375 C-4.94413776 11.71904775 -4.94413776 11.71904775 -2.0625 11.5 C0.81913776 11.71904775 0.81913776 11.71904775 1.9375 10.375 C2.1875773 7.91690002 2.1875773 7.91690002 1.9375 5.375 C1.2775 4.715 0.6175 4.055 -0.0625 3.375 C-3.8388932 3.0768576 -3.8388932 3.0768576 -6.0625 4.375 Z M-12.0625 8.375 C-17.5195431 11.10352155 -20.4593166 14.8957188 -23.0625 20.375 C-23.92469774 23.68484583 -23.92469774 23.68484583 -24.0625 26.375 C-23.0725 26.045 -22.0825 25.715 -21.0625 25.375 C-20.33941431 23.40294813 -19.62053834 21.42902319 -18.94140625 19.44140625 C-17.02843725 14.94380359 -12.96201507 12.1191032 -9.0625 9.375 C-10.0525 9.045 -11.0425 8.715 -12.0625 8.375 Z M5.9375 8.375 C5.6075 9.035 5.2775 9.695 4.9375 10.375 C5.96875 10.7875 7 11.2 8.0625 11.625 C13.63110369 14.70984767 15.53346354 20.7743876 17.9375 26.375 C18.5975 26.375 19.2575 26.375 19.9375 26.375 C19.48145047 20.29433961 16.95107391 15.01926338 12.34375 10.9765625 C9.39760418 8.93368158 9.39760418 8.93368158 5.9375 8.375 Z M-12.75 15 C-17.08747854 19.45470769 -18.73856758 23.11230662 -19.0625 29.375 C-18.10634378 34.41655099 -16.5816035 37.6426175 -13.0625 41.375 C-9.64674812 43.65216792 -9.10788971 43.51233149 -5.25 42.9375 C-2.01134138 42.51383826 0.0061945 42.38925735 3.25 43.0625 C6.07154874 43.66877902 6.07154874 43.66877902 8.625 41.75 C12.96247854 37.29529231 14.61356758 33.63769338 14.9375 27.375 C13.98134378 22.33344901 12.4566035 19.1073825 8.9375 15.375 C5.52174812 13.09783208 4.98288971 13.23766851 1.125 13.8125 C-2.11365862 14.23616174 -4.1311945 14.36074265 -7.375 13.6875 C-10.19654874 13.08122098 -10.19654874 13.08122098 -12.75 15 Z M-24.0625 30.375 C-23.60255268 36.50763096 -21.03217026 41.64349878 -16.50390625 45.80859375 C-14.79071436 47.10681159 -14.79071436 47.10681159 -12.0625 48.375 C-11.0725 48.045 -10.0825 47.715 -9.0625 47.375 C-9.805 46.7975 -10.5475 46.22 -11.3125 45.625 C-16.91039728 41.04490223 -19.38391393 37.04296959 -22.0625 30.375 C-22.7225 30.375 -23.3825 30.375 -24.0625 30.375 Z M17.9375 30.375 C17.58558594 31.19484375 17.23367187 32.0146875 16.87109375 32.859375 C13.81552856 39.52896376 11.87057697 43.60176921 4.9375 46.375 C5.2675 47.035 5.5975 47.695 5.9375 48.375 C12.00594834 46.46777338 15.36184799 42.78223483 18.25 37.25 C19.55889745 34.59081705 19.9375 33.41970565 19.9375 30.375 C19.2775 30.375 18.6175 30.375 17.9375 30.375 Z M-6.0625 46.375 C-6.3125773 48.83309998 -6.3125773 48.83309998 -6.0625 51.375 C-5.4025 52.035 -4.7425 52.695 -4.0625 53.375 C-0.96323181 53.05301034 -0.96323181 53.05301034 1.9375 52.375 C1.98004356 50.37545254 1.97830783 48.37458364 1.9375 46.375 C0.81913776 45.03095225 0.81913776 45.03095225 -2.0625 45.25 C-4.94413776 45.03095225 -4.94413776 45.03095225 -6.0625 46.375 Z " fill="#727272" transform="translate(32.0625,1.625)"/>
<path d="M0 0 C2 3 2 3 2 5 C2.66 5.33 3.32 5.66 4 6 C3.01 6 2.02 6 1 6 C1 6.66 1 7.32 1 8 C1.99 8.33 2.98 8.66 4 9 C3.34 9.33 2.68 9.66 2 10 C1.566875 11.2375 1.13375 12.475 0.6875 13.75 C-1.31650627 19.40777527 -5.17425945 22.6041085 -10 26 C-9.236875 25.67 -8.47375 25.34 -7.6875 25 C-5 24 -5 24 -2 24 C-2.234375 25.83984375 -2.234375 25.83984375 -3 28 C-4.890625 29.37890625 -4.890625 29.37890625 -7.25 30.5625 C-9.91334494 31.9173137 -12.25487154 33.1837446 -14.6875 34.9375 C-17 36 -17 36 -20.0625 35.375 C-22.75393968 34.11517717 -24.68198841 32.82631216 -27 31 C-28.093125 30.443125 -29.18625 29.88625 -30.3125 29.3125 C-35.68551297 26.2901802 -39.60059288 21.67712667 -42.4375 16.25 C-43.31524196 11.17860203 -43.14948236 6.13222754 -43 1 C-42.67 1 -42.34 1 -42 1 C-41.8046875 2.98567708 -41.609375 4.97135417 -41.4140625 6.95703125 C-41.07334609 9.29988142 -41.07334609 9.29988142 -39 12 C-38.29308055 13.3231398 -37.6063498 14.6572141 -36.9375 16 C-36.59589844 16.680625 -36.25429688 17.36125 -35.90234375 18.0625 C-35 20 -35 20 -34 23 C-31.39757586 24.64820195 -30.13751221 25 -27 25 C-27.9075 24.484375 -28.815 23.96875 -29.75 23.4375 C-33.559116 20.89507341 -35.14016063 18.1660402 -37 14 C-36.8125 11.8125 -36.8125 11.8125 -36 10 C-35.65337951 8.67005898 -35.31833197 7.33699426 -35 6 C-34.84144531 6.59167969 -34.68289062 7.18335938 -34.51953125 7.79296875 C-32.96798368 13.04765747 -31.50576633 16.56703518 -27 20 C-23.97912001 21.08441846 -22.23241265 21.0395596 -19.0625 20.5 C-16 20 -16 20 -12.9375 20.75 C-9.83785375 21.34069004 -9.83785375 21.34069004 -7.3125 19 C-3.26234675 13.74574714 -1.8508133 9.5642149 -2 3 C-1.34 2.01 -0.68 1.02 0 0 Z M-22 25 C-22.2500773 27.45809998 -22.2500773 27.45809998 -22 30 C-21.34 30.66 -20.68 31.32 -20 32 C-16.90073181 31.67801034 -16.90073181 31.67801034 -14 31 C-13.95745644 29.00045254 -13.95919217 26.99958364 -14 25 C-15.11836224 23.65595225 -15.11836224 23.65595225 -18 23.875 C-20.88163776 23.65595225 -20.88163776 23.65595225 -22 25 Z " fill="#707070" transform="translate(48,23)"/>
<path d="M0 0 C1.8871875 0.00773437 1.8871875 0.00773437 3.8125 0.015625 C5.070625 0.01046875 6.32875 0.0053125 7.625 0 C10.8125 0.265625 10.8125 0.265625 12.8125 2.265625 C13.45020454 5.87928407 13.52395183 8.21643339 11.421875 11.31640625 C6.99207693 16.12177415 6.99207693 16.12177415 3.25 16.578125 C-0.24964902 14.69369861 -2.97070762 12.6019346 -5.1875 9.265625 C-5.6875 5.515625 -5.6875 5.515625 -5.1875 2.265625 C-3.1875 0.265625 -3.1875 0.265625 0 0 Z " fill="#000000" transform="translate(26.1875,21.734375)"/>
<path d="M0 0 C2 3 2 3 2 5 C2.66 5.33 3.32 5.66 4 6 C3.01 6 2.02 6 1 6 C1 6.66 1 7.32 1 8 C1.99 8.33 2.98 8.66 4 9 C3.01 9.495 3.01 9.495 2 10 C1.566875 11.2375 1.13375 12.475 0.6875 13.75 C-1.31650627 19.40777527 -5.17425945 22.6041085 -10 26 C-9.236875 25.67 -8.47375 25.34 -7.6875 25 C-5 24 -5 24 -2 24 C-2.22265625 25.83203125 -2.22265625 25.83203125 -3 28 C-4.99609375 29.44921875 -4.99609375 29.44921875 -7.4375 30.6875 C-8.24058594 31.10386719 -9.04367188 31.52023438 -9.87109375 31.94921875 C-10.57363281 32.29597656 -11.27617188 32.64273438 -12 33 C-12.99 33.495 -12.99 33.495 -14 34 C-14 33.34 -14 32.68 -14 32 C-14.66 31.67 -15.32 31.34 -16 31 C-15.34 31 -14.68 31 -14 31 C-14.33 29.02 -14.66 27.04 -15 25 C-16.98 24.67 -18.96 24.34 -21 24 C-20.67 22.68 -20.34 21.36 -20 20 C-19.33613281 20.13019531 -18.67226563 20.26039062 -17.98828125 20.39453125 C-12.20912768 21.38816673 -12.20912768 21.38816673 -7.0625 19 C-3.35693637 13.61008926 -1.85208255 9.50836768 -2 3 C-1.34 2.01 -0.68 1.02 0 0 Z " fill="#868686" transform="translate(48,23)"/>
<path d="M0 0 C2.8125 1.375 2.8125 1.375 4.8125 4.375 C4.1525 4.375 3.4925 4.375 2.8125 4.375 C2.8125 6.025 2.8125 7.675 2.8125 9.375 C2.585625 8.735625 2.35875 8.09625 2.125 7.4375 C0.96921877 5.12507642 0.96921877 5.12507642 -1.6875 4.625 C-4.10043425 4.34183209 -4.10043425 4.34183209 -6.1875 4.375 C-6.1875 6.355 -6.1875 8.335 -6.1875 10.375 C-7.8375 10.705 -9.4875 11.035 -11.1875 11.375 C-10.8575 10.715 -10.5275 10.055 -10.1875 9.375 C-11.3321875 9.87 -11.3321875 9.87 -12.5 10.375 C-15.1875 11.375 -15.1875 11.375 -18.1875 11.375 C-17.953125 9.53515625 -17.953125 9.53515625 -17.1875 7.375 C-15.296875 5.99609375 -15.296875 5.99609375 -12.9375 4.8125 C-10.27415506 3.4576863 -7.93262846 2.1912554 -5.5 0.4375 C-3.1875 -0.625 -3.1875 -0.625 0 0 Z " fill="#767676" transform="translate(32.1875,1.625)"/>
<path d="M0 0 C0.33 0.99 0.66 1.98 1 3 C1.66 3 2.32 3 3 3 C3.56144197 12.21700571 3.01521603 19.42711507 -3.25 26.5625 C-3.8275 27.036875 -4.405 27.51125 -5 28 C-5.99 27.67 -6.98 27.34 -8 27 C-7.59007812 26.35933594 -7.18015625 25.71867187 -6.7578125 25.05859375 C-3.66184574 20.08875238 -1.24627496 15.73286482 0 10 C-1.32 10.33 -2.64 10.66 -4 11 C-3.67 9.68 -3.34 8.36 -3 7 C-2.01 7.33 -1.02 7.66 0 8 C0 5.36 0 2.72 0 0 Z " fill="#919191" transform="translate(52,21)"/>
<path d="M0 0 C-1.29641428 4.32138095 -3.01636511 8.18602684 -5.09765625 12.16796875 C-6.12524215 14.14990796 -6.12524215 14.14990796 -7 17 C-5.01508358 16.73323796 -5.01508358 16.73323796 -3 16 C-2.67 15.01 -2.34 14.02 -2 13 C-2 16.96 -2 20.92 -2 25 C-2.99 24.34 -3.98 23.68 -5 23 C-5 22.34 -5 21.68 -5 21 C-5.99 21 -6.98 21 -8 21 C-8.33 21.99 -8.66 22.98 -9 24 C-9.47842051 14.41830036 -9.63558429 8.52704281 -3.375 1.0625 C-2 0 -2 0 0 0 Z " fill="#747474" transform="translate(15,11)"/>
<path d="M0 0 C0.33 0 0.66 0 1 0 C1.1953125 1.98567708 1.390625 3.97135417 1.5859375 5.95703125 C1.92665391 8.29988142 1.92665391 8.29988142 4 11 C4.70691945 12.3231398 5.3936502 13.6572141 6.0625 15 C6.40410156 15.680625 6.74570313 16.36125 7.09765625 17.0625 C8 19 8 19 9 22 C11.84937793 23.83174295 14.68437443 24.44739574 18 25 C17 28 17 28 15.22265625 28.9140625 C13 29 13 29 10.74609375 27.5234375 C9.98425781 26.81445312 9.22242188 26.10546875 8.4375 25.375 C7.67308594 24.68148437 6.90867187 23.98796875 6.12109375 23.2734375 C0.94310636 17.72355046 -0.14294011 13.15049004 -0.0625 5.75 C-0.04896484 4.13351563 -0.04896484 4.13351563 -0.03515625 2.484375 C-0.02355469 1.66453125 -0.01195312 0.8446875 0 0 Z " fill="#949494" transform="translate(5,24)"/>
<path d="M0 0 C6.9823608 1.57103118 11.8027161 6.1368725 16.0625 11.6875 C17 14 17 14 16.8125 16.25 C16 18 16 18 14 19 C13.35165346 17.730447 12.70642185 16.45930294 12.0625 15.1875 C11.70285156 14.47980469 11.34320313 13.77210937 10.97265625 13.04296875 C10 11 10 11 9 8 C6.15062207 6.16825705 3.31562557 5.55260426 0 5 C0 3.35 0 1.7 0 0 Z " fill="#7B7B7B" transform="translate(37,6)"/>
<path d="M0 0 C0.99 0.33 1.98 0.66 3 1 C2.67 2.65 2.34 4.3 2 6 C3.0828125 6.3403125 3.0828125 6.3403125 4.1875 6.6875 C8.0798863 8.50394694 11.06137486 11.12274973 13 15 C13.039992 16.99960012 13.04346799 19.00047242 13 21 C10.90399868 19.11359881 9.69340411 17.47440704 8.25 15 C6.05380553 12.07174071 5.49120724 11.5410801 2.3125 10.3125 C0.6728125 9.6628125 0.6728125 9.6628125 -1 9 C-2.25541557 5.23375329 -1.37061958 3.62811066 0 0 Z " fill="#646464" transform="translate(35,6)"/>
<path d="M0 0 C2 2 2 2 2.8125 5.3125 C4.16881332 9.52420977 5.59607582 11.22936404 9 14 C11.66533035 15.319018 11.66533035 15.319018 14 16 C13.01 16.99 12.02 17.98 11 19 C6.54443592 17.59967986 4.00046335 15.56811858 1 12 C-0.375 8.8125 -0.375 8.8125 -1 6 C-0.67 5.34 -0.34 4.68 0 4 C0 2.68 0 1.36 0 0 Z " fill="#808080" transform="translate(12,29)"/>
<path d="M0 0 C0.33 0 0.66 0 1 0 C1 3.96 1 7.92 1 12 C0.01 11.34 -0.98 10.68 -2 10 C-2 9.34 -2 8.68 -2 8 C-2.99 8 -3.98 8 -5 8 C-5.33 8.99 -5.66 9.98 -6 11 C-6 7.7 -6 4.4 -6 1 C-5.67 1.99 -5.34 2.98 -5 4 C-3.35 3.67 -1.7 3.34 0 3 C0 2.01 0 1.02 0 0 Z " fill="#444444" transform="translate(12,24)"/>
<path d="M0 0 C0.66 0.33 1.32 0.66 2 1 C1.77734375 2.83203125 1.77734375 2.83203125 1 5 C-0.99609375 6.44921875 -0.99609375 6.44921875 -3.4375 7.6875 C-4.24058594 8.10386719 -5.04367188 8.52023438 -5.87109375 8.94921875 C-6.57363281 9.29597656 -7.27617188 9.64273438 -8 10 C-8.99 10.495 -8.99 10.495 -10 11 C-10 10.34 -10 9.68 -10 9 C-10.66 8.67 -11.32 8.34 -12 8 C-11.34 8 -10.68 8 -10 8 C-10 6.02 -10 4.04 -10 2 C-9.67 2 -9.34 2 -9 2 C-8.67 3.65 -8.34 5.3 -8 7 C-7.01 6.67 -6.02 6.34 -5 6 C-5.66 5.67 -6.32 5.34 -7 5 C-5.60683123 2.21366246 -3.84019484 2.06507306 -1 1 C-0.67 0.67 -0.34 0.34 0 0 Z " fill="#A3A3A3" transform="translate(44,46)"/>
<path d="M0 0 C2 3 2 3 2 5 C2.66 5.33 3.32 5.66 4 6 C3.01 6 2.02 6 1 6 C1 6.66 1 7.32 1 8 C1.99 8.33 2.98 8.66 4 9 C3.01 9.495 3.01 9.495 2 10 C1.27306096 11.97888961 0.60183749 13.97954558 0 16 C-0.99 15.67 -1.98 15.34 -3 15 C-2.8858134 13.06183265 -2.75826577 11.12444901 -2.625 9.1875 C-2.55539063 8.10855469 -2.48578125 7.02960937 -2.4140625 5.91796875 C-2 3 -2 3 0 0 Z " fill="#9D9D9D" transform="translate(48,23)"/>
<path d="M0 0 C4.0042343 3.49087093 5.62671065 5.64951939 6 11 C5.01 11.33 4.02 11.66 3 12 C2.32591692 10.73308493 1.66099503 9.46129251 1 8.1875 C0.443125 7.12595703 0.443125 7.12595703 -0.125 6.04296875 C-1 4 -1 4 -1 1 C-0.67 0.67 -0.34 0.34 0 0 Z " fill="#8A8A8A" transform="translate(48,13)"/>
<path d="M0 0 C0.33 0 0.66 0 1 0 C1.1953125 1.98567708 1.390625 3.97135417 1.5859375 5.95703125 C1.92665391 8.29988142 1.92665391 8.29988142 4 11 C4.75 13.5 4.75 13.5 5 16 C4.34 16.99 3.68 17.98 3 19 C-0.44572039 12.68284595 -0.31461385 7.09629025 0 0 Z " fill="#A0A0A0" transform="translate(5,24)"/>
<path d="M0 0 C2.8125 1.375 2.8125 1.375 4.8125 4.375 C4.1525 4.375 3.4925 4.375 2.8125 4.375 C2.8125 6.025 2.8125 7.675 2.8125 9.375 C2.585625 8.75625 2.35875 8.1375 2.125 7.5 C0.41676581 4.7342875 -1.12688502 4.29318449 -4.1875 3.375 C-4.8475 3.375 -5.5075 3.375 -6.1875 3.375 C-6.8475 3.045 -7.5075 2.715 -8.1875 2.375 C-5.0932563 0.00881364 -3.91152638 -0.76696596 0 0 Z " fill="#A0A0A0" transform="translate(32.1875,1.625)"/>
<path d="M0 0 C2.28062828 3.42094242 2.21925007 4.68187222 2.125 8.6875 C2.10695313 9.68136719 2.08890625 10.67523438 2.0703125 11.69921875 C2.03550781 12.83810547 2.03550781 12.83810547 2 14 C1.34 13.01 0.68 12.02 0 11 C-1.32 11 -2.64 11 -4 11 C-3.67 9.68 -3.34 8.36 -3 7 C-2.01 7.33 -1.02 7.66 0 8 C0 5.36 0 2.72 0 0 Z " fill="#212121" transform="translate(52,21)"/>
<path d="M0 0 C4.39158329 1.4638611 4.87947433 3.97831338 7 8 C6.01 8.33 5.02 8.66 4 9 C1.47740939 7.02579865 1.0070192 6.03254358 0.3125 2.8125 C0.209375 1.884375 0.10625 0.95625 0 0 Z " fill="#626262" transform="translate(8,39)"/>
<path d="M0 0 C0.99 0 1.98 0 3 0 C2.43628586 3.26954202 1.50037734 4.82575883 -1 7 C-1.99 6.67 -2.98 6.34 -4 6 C-2.1875 3 -2.1875 3 0 0 Z " fill="#676767" transform="translate(48,42)"/>
<path d="M0 0 C0.6875 1.75 0.6875 1.75 1 4 C-0.4375 6.25 -0.4375 6.25 -2 8 C-2.66 7.67 -3.32 7.34 -4 7 C-4 4 -4 4 -2 1.8125 C-1.34 1.214375 -0.68 0.61625 0 0 Z " fill="#7A7A7A" transform="translate(46,37)"/>
<path d="M0 0 C1.670625 0.061875 1.670625 0.061875 3.375 0.125 C3.045 1.115 2.715 2.105 2.375 3.125 C-0.5 3.75 -0.5 3.75 -3.625 4.125 C-4.285 3.465 -4.945 2.805 -5.625 2.125 C-3.625 0.125 -3.625 0.125 0 0 Z " fill="#878787" transform="translate(31.625,12.875)"/>
<path d="M0 0 C1.5 1.125 1.5 1.125 3 3 C3.1875 6.1875 3.1875 6.1875 3 9 C0.27573689 6.64722731 -0.8141763 4.37503669 -2 1 C-1.34 0.67 -0.68 0.34 0 0 Z " fill="#6F6F6F" transform="translate(45,18)"/>
<path d="M0 0 C0.66 0.33 1.32 0.66 2 1 C1.67 2.32 1.34 3.64 1 5 C2.32 5.33 3.64 5.66 5 6 C3.02 6.66 1.04 7.32 -1 8 C-1.33 5.69 -1.66 3.38 -2 1 C-1.34 0.67 -0.68 0.34 0 0 Z " fill="#222222" transform="translate(36,46)"/>
<path d="M0 0 C2.475 0.495 2.475 0.495 5 1 C5.33 2.65 5.66 4.3 6 6 C3.37812506 4.95125002 2.20628639 4.35068687 0.75 1.875 C0.5025 1.25625 0.255 0.6375 0 0 Z " fill="#5B5B5B" transform="translate(39,14)"/>
<path d="M0 0 C1.65 0.33 3.3 0.66 5 1 C3.68 1.33 2.36 1.66 1 2 C1 2.66 1 3.32 1 4 C0.34 4 -0.32 4 -1 4 C-1.33 4.66 -1.66 5.32 -2 6 C-2.66 4.68 -3.32 3.36 -4 2 C-2.68 2 -1.36 2 0 2 C0 1.34 0 0.68 0 0 Z " fill="#3A3A3A" transform="translate(26,44)"/>
<path d="M0 0 C2.31 0.66 4.62 1.32 7 2 C6.01 2.99 5.02 3.98 4 5 C1.525 4.01 1.525 4.01 -1 3 C-0.67 2.01 -0.34 1.02 0 0 Z " fill="#9C9C9C" transform="translate(19,43)"/>
<path d="M0 0 C0.66 0 1.32 0 2 0 C1.39816251 2.02045442 0.72693904 4.02111039 0 6 C-0.99 6.495 -0.99 6.495 -2 7 C-2.125 4.625 -2.125 4.625 -2 2 C-1.34 1.34 -0.68 0.68 0 0 Z " fill="#6D6D6D" transform="translate(13,11)"/>
</svg>
