<svg width="60" height="60" viewBox="0 0 60 60" fill="none" xmlns="http://www.w3.org/2000/svg">
<path fill-rule="evenodd" clip-rule="evenodd" d="M18.9687 5.67262L18.9671 5.67307L18.9513 5.67768C18.9356 5.68231 18.9098 5.69008 18.8747 5.70102C18.8045 5.72293 18.6981 5.7574 18.5636 5.80465C18.2935 5.89953 17.9161 6.04391 17.4954 6.23892C16.8201 6.55196 16.108 6.96144 15.5409 7.45384C15.9814 10.2526 15.1237 13.2206 12.9637 15.3805C10.6035 17.7406 7.27855 18.546 4.26384 17.8017C3.77281 17.6805 3.38942 17.2971 3.2682 16.8061C2.52394 13.7914 3.3293 10.4665 5.68947 8.10635C7.84757 5.94828 10.8124 5.09016 13.609 5.52803C14.493 4.72149 15.5322 4.14719 16.3501 3.7681C16.8662 3.52887 17.327 3.3525 17.6609 3.23521C17.8284 3.17637 17.9654 3.13189 18.0632 3.10137C18.1121 3.0861 18.1513 3.07429 18.1798 3.06589L18.2142 3.05583L18.2251 3.05271L18.229 3.05162L18.2305 3.05119C18.2305 3.05119 18.2318 3.05085 18.5991 4.36203C18.9665 5.67322 18.2318 3.05085 18.2318 3.05085C18.9559 2.84794 19.7074 3.27049 19.9104 3.99464C20.1131 4.71807 19.6915 5.46883 18.9687 5.67262ZM30 5.72372C28.3653 5.72372 26.7696 5.88505 25.2286 6.19305C24.4911 6.34044 23.7738 5.8621 23.6264 5.12465C23.479 4.3872 23.9574 3.66989 24.6948 3.52249C26.4112 3.17944 28.1857 3.00035 30 3.00035C44.9116 3.00035 57 15.0886 57 30C57 32.5351 56.6507 34.9911 55.9948 37.321C55.791 38.0449 55.0389 38.4666 54.315 38.2628C53.5911 38.059 53.1695 37.3069 53.3733 36.583C53.962 34.4917 54.2766 32.284 54.2766 30C54.2766 16.5926 43.4075 5.72372 30 5.72372ZM36.1078 10.7835C36.6844 11.0939 36.9584 11.7707 36.7601 12.3948L32.6078 25.4632H41.7038C42.229 25.4632 42.7074 25.7653 42.9333 26.2395C43.1591 26.7137 43.092 27.2755 42.761 27.6832L25.555 48.8758C25.1421 49.3844 24.4255 49.5269 23.8494 49.2149C23.2733 48.9029 23.0011 48.225 23.2014 47.6012L27.3862 34.5695H18.2962C17.7714 34.5695 17.2934 34.268 17.0673 33.7944C16.8412 33.3209 16.9074 32.7596 17.2374 32.3516L34.4036 11.1262C34.8153 10.617 35.5312 10.4731 36.1078 10.7835ZM21.1487 31.8461H29.2536C29.6887 31.8461 30.0975 32.054 30.3539 32.4056C30.6102 32.7571 30.6831 33.2099 30.5501 33.6242L28.0116 41.5293L38.8443 28.1866H30.7464C30.3121 28.1866 29.9038 27.9794 29.6474 27.6289C29.3909 27.2784 29.3171 26.8265 29.4486 26.4126L31.9758 18.4589L21.1487 31.8461ZM5.68421 21.736C6.40824 21.9393 6.8303 22.6911 6.62692 23.4151C6.0389 25.5084 5.7234 27.7165 5.7234 30C5.7234 43.4074 16.5925 54.2763 30 54.2763C31.6346 54.2763 33.2293 54.115 34.7703 53.807C35.5078 53.6596 36.2251 54.1379 36.3725 54.8753C36.5199 55.6128 36.0416 56.3301 35.3041 56.4775C33.5877 56.8206 31.8143 56.9997 30 56.9997C15.0884 56.9997 3 44.9114 3 30C3 27.4644 3.35047 25.0087 4.005 22.6786C4.20838 21.9546 4.96019 21.5326 5.68421 21.736ZM44.4591 52.5462C44.0186 49.7475 44.8763 46.7794 47.0363 44.6195C49.3965 42.2594 52.7215 41.454 55.7362 42.1983C56.2272 42.3195 56.6106 42.7029 56.7318 43.1939C57.4761 46.2085 56.6707 49.5335 54.3105 51.8937C52.1524 54.0517 49.1876 54.9098 46.391 54.472C45.507 55.2785 44.4678 55.8528 43.65 56.2319C43.1339 56.4711 42.673 56.6475 42.3391 56.7648C42.1716 56.8236 42.0346 56.8681 41.9368 56.8986C41.8879 56.9139 41.8487 56.9257 41.8202 56.9341L41.7858 56.9442L41.7748 56.9473L41.771 56.9484L41.7695 56.9488C41.7695 56.9488 41.7682 56.9492 41.4008 55.638C41.0335 54.3268 41.7682 56.9492 41.7682 56.9492C41.0441 57.1521 40.2925 56.7295 40.0896 56.0053C39.8869 55.2818 40.3086 54.5309 41.0316 54.3273L41.0328 54.327M41.0328 54.327L41.0487 54.3223C41.0644 54.3177 41.0903 54.3099 41.1253 54.299C41.1955 54.2771 41.302 54.2426 41.4365 54.1953C41.7066 54.1005 42.0839 53.9561 42.5047 53.7611C43.18 53.448 43.892 53.0386 44.4591 52.5462" fill="black"/>
</svg>
