<svg width="31" height="30" viewBox="0 0 31 30" fill="none" xmlns="http://www.w3.org/2000/svg">
<g filter="url(#filter0_b_769_3433)">
<rect x="0.575562" width="30" height="30" rx="5" fill="white" fill-opacity="0.1"/>
</g>
<path d="M25.2631 11.5094C25.2191 10.5137 25.0581 9.8292 24.8274 9.23601C24.5895 8.6064 24.2234 8.04272 23.7439 7.57411C23.2752 7.09822 22.7078 6.72841 22.0855 6.4942C21.4889 6.26357 20.808 6.1025 19.8123 6.05864C18.8091 6.01098 18.4907 6 15.9465 6C13.4023 6 13.0838 6.01098 12.0844 6.05491C11.0887 6.09884 10.4042 6.25998 9.81121 6.49046C9.18142 6.72841 8.61774 7.09448 8.14913 7.57411C7.67323 8.04269 7.30361 8.6101 7.06921 9.23242C6.83858 9.8292 6.67755 10.51 6.63366 11.5057C6.58603 12.5088 6.57501 12.8273 6.57501 15.3715C6.57501 17.9157 6.58603 18.2342 6.62992 19.2335C6.67385 20.2293 6.835 20.9137 7.06566 21.5069C7.30361 22.1365 7.67323 22.7002 8.14913 23.1688C8.61774 23.6447 9.18515 24.0145 9.80747 24.2487C10.4042 24.4794 11.085 24.6404 12.0809 24.6843C13.0801 24.7284 13.3987 24.7392 15.9429 24.7392C18.4871 24.7392 18.8056 24.7284 19.805 24.6843C20.8007 24.6404 21.4852 24.4794 22.0782 24.2487C22.701 24.0079 23.2667 23.6396 23.7388 23.1675C24.211 22.6953 24.5794 22.1297 24.8202 21.5069C25.0507 20.9102 25.2119 20.2292 25.2558 19.2335C25.2997 18.2342 25.3107 17.9157 25.3107 15.3715C25.3107 12.8273 25.3069 12.5088 25.2631 11.5094ZM23.5756 19.1603C23.5352 20.0755 23.3815 20.5697 23.2534 20.8992C22.9385 21.7155 22.2906 22.3635 21.4742 22.6784C21.1447 22.8065 20.647 22.9602 19.7353 23.0004C18.7469 23.0444 18.4505 23.0553 15.9502 23.0553C13.4499 23.0553 13.1498 23.0444 12.1649 23.0004C11.2497 22.9602 10.7555 22.8065 10.4261 22.6784C10.0198 22.5282 9.65006 22.2902 9.34988 21.9791C9.03872 21.6752 8.80077 21.3092 8.65061 20.9029C8.52248 20.5734 8.36877 20.0755 8.32861 19.1641C8.28454 18.1757 8.2737 17.8791 8.2737 15.3788C8.2737 12.8784 8.28454 12.5783 8.32861 11.5936C8.36877 10.6784 8.52248 10.1843 8.65061 9.85478C8.80077 9.44837 9.03872 9.07867 9.35362 8.77842C9.65731 8.46726 10.0234 8.22931 10.4298 8.07933C10.7593 7.95121 11.2572 7.79745 12.1686 7.75715C13.157 7.71322 13.4536 7.70224 15.9538 7.70224C18.4578 7.70224 18.7542 7.71322 19.7391 7.75715C20.6543 7.79749 21.1485 7.95117 21.4779 8.07929C21.8841 8.22931 22.254 8.46726 22.5541 8.77842C22.8653 9.0823 23.1032 9.44837 23.2534 9.85478C23.3815 10.1843 23.5352 10.682 23.5755 11.5936C23.6194 12.582 23.6304 12.8784 23.6304 15.3788C23.6304 17.8791 23.6195 18.1719 23.5756 19.1603Z" fill="white"/>
<path d="M15.9466 10.5575C13.2889 10.5575 11.1327 12.7136 11.1327 15.3714C11.1327 18.0292 13.2889 20.1853 15.9466 20.1853C18.6042 20.1853 20.7604 18.0292 20.7604 15.3714C20.7604 12.7136 18.6042 10.5575 15.9466 10.5575ZM15.9466 18.494C14.2224 18.494 12.8239 17.0957 12.8239 15.3714C12.8239 13.6471 14.2224 12.2488 15.9465 12.2488C17.6708 12.2488 19.0692 13.6471 19.0692 15.3714C19.0692 17.0957 17.6708 18.494 15.9466 18.494ZM22.0747 10.3672C22.0747 10.9878 21.5714 11.491 20.9507 11.491C20.3301 11.491 19.8269 10.9878 19.8269 10.3672C19.8269 9.74647 20.3301 9.24341 20.9507 9.24341C21.5714 9.24341 22.0747 9.74643 22.0747 10.3672Z" fill="white"/>
<defs>
<filter id="filter0_b_769_3433" x="-19.4244" y="-20" width="70" height="70" filterUnits="userSpaceOnUse" color-interpolation-filters="sRGB">
<feFlood flood-opacity="0" result="BackgroundImageFix"/>
<feGaussianBlur in="BackgroundImageFix" stdDeviation="10"/>
<feComposite in2="SourceAlpha" operator="in" result="effect1_backgroundBlur_769_3433"/>
<feBlend mode="normal" in="SourceGraphic" in2="effect1_backgroundBlur_769_3433" result="shape"/>
</filter>
</defs>
</svg>
