<svg width="24" height="24" viewBox="0 0 24 24" fill="none" xmlns="http://www.w3.org/2000/svg">
<g filter="url(#filter0_b_957_7808)">
<rect width="24" height="24" rx="5" fill="white" fill-opacity="0.1"/>
</g>
<path d="M7.15226 5.4585C6.21366 5.4585 5.6 6.07482 5.6 6.8849C5.6 7.6771 6.1954 8.311 7.11626 8.311H7.13406C8.09102 8.311 8.68656 7.6771 8.68656 6.8849C8.66868 6.07482 8.09102 5.4585 7.15226 5.4585ZM5.7622 9.43812L8.5061 9.43812L8.5061 17.6933L5.76218 17.6933L5.7622 9.43812ZM15.2411 9.24436C13.7609 9.24436 12.7683 10.6353 12.7683 10.6353L12.7683 9.4381L10.0243 9.4381L10.0243 17.6933L12.7681 17.6933L12.7681 13.0833C12.7681 12.8365 12.786 12.5901 12.8585 12.4136C13.0569 11.9208 13.5083 11.4102 14.2663 11.4102C15.2592 11.4102 15.6563 12.1673 15.6563 13.277L15.6563 17.6933L18.4 17.6933L18.4 12.9599C18.4 10.4243 17.0462 9.24436 15.2411 9.24436Z" fill="white"/>
<defs>
<filter id="filter0_b_957_7808" x="-20" y="-20" width="64" height="64" filterUnits="userSpaceOnUse" color-interpolation-filters="sRGB">
<feFlood flood-opacity="0" result="BackgroundImageFix"/>
<feGaussianBlur in="BackgroundImageFix" stdDeviation="10"/>
<feComposite in2="SourceAlpha" operator="in" result="effect1_backgroundBlur_957_7808"/>
<feBlend mode="normal" in="SourceGraphic" in2="effect1_backgroundBlur_957_7808" result="shape"/>
</filter>
</defs>
</svg>
