<svg width="1239" height="496" viewBox="0 0 1239 496" fill="none" xmlns="http://www.w3.org/2000/svg">
<path fill-rule="evenodd" clip-rule="evenodd" d="M252.633 0V210.524L341.993 130.062C357.438 113.896 399.801 82.6667 445.694 87.0756C444.811 87.0756 445.325 103.241 445.694 111.324C437.972 112.427 422.527 117.276 422.527 127.858V369.244C423.63 375.49 429.808 387.541 445.694 385.778V410.027C430.249 411.497 392.52 408.704 365.16 385.778C337.801 362.852 278.742 311.561 252.633 288.782V438.684C250.059 454.116 234.32 487.182 191.958 496V289.064C165.323 312.295 107.515 362.488 80.5338 385.099C53.1744 408.025 15.4448 410.816 0 409.348V385.099C15.8861 386.862 22.0641 374.811 23.1673 368.565V127.177C23.1673 116.596 7.72242 111.746 0 110.644C0.367728 102.561 0.882567 86.3953 0 86.3953C45.8932 81.9864 88.2562 113.216 103.701 129.382L191.958 208.851V61.7244C194.532 46.2933 208.947 12.7858 246.014 2.20444C249.544 1.32267 251.899 0.367408 252.633 0ZM191.958 252.7V243.029L100.391 161.346V333.292L191.958 252.7ZM252.633 244.693V252.409L345.302 333.973V162.027L252.633 244.693ZM913.452 138.88H964.199V299.804H1054.66V348.302H964.199H913.452V299.804V138.88ZM792.1 139.982L900.214 348.302H842.847L836.228 335.076H747.971L741.352 348.302H688.399L792.1 139.982ZM790.996 239.182L811.957 287.68H772.242L790.996 239.182ZM679.573 141.084L621.103 141.086L569.253 225.665V141.085H520.712V350.507H569.253V318.306L588.166 287.922L628.826 349.407L687.172 349.409L617.308 241.109L679.573 141.084ZM1127.47 138.88H1078.93V348.302H1127.47V288.782H1158.36C1172.7 288.782 1193.67 287.68 1215.73 271.147C1237.79 254.613 1243.31 224.853 1234.48 184.071C1227.42 151.445 1199.92 140.35 1187.05 138.88H1127.47ZM1127.47 186.276V240.284H1170.5C1177.85 238.814 1191.68 229.703 1188.15 205.013C1187.05 191.787 1171.6 185.173 1159.47 186.276H1127.47Z" fill="black"/>
</svg>
