<svg width="102" height="41" viewBox="0 0 102 41" fill="none" xmlns="http://www.w3.org/2000/svg">
<path fill-rule="evenodd" clip-rule="evenodd" d="M20.7811 0V17.4022L28.1317 10.7511C29.4021 9.41482 32.8868 6.83333 36.6619 7.19778C36.5893 7.19778 36.6316 8.53407 36.6619 9.20222C36.0267 9.29333 34.7562 9.69422 34.7562 10.5689V30.5222C34.847 31.0385 35.3552 32.0347 36.6619 31.8889V33.8933C35.3915 34.0149 32.2879 33.784 30.0374 31.8889C27.7868 29.9938 22.9288 25.754 20.7811 23.8711V36.2622C20.5693 37.5378 19.2747 40.2711 15.7901 41V23.8944C13.5991 25.8147 8.84394 29.9637 6.62456 31.8328C4.37402 33.7279 1.27046 33.9586 0 33.8372V31.8328C1.30676 31.9785 1.81495 30.9823 1.90569 30.4661V10.5127C1.90569 9.63799 0.635231 9.2371 0 9.14599C0.0302486 8.47783 0.0725982 7.14154 0 7.14154C3.77509 6.7771 7.25979 9.35859 8.53025 10.6949L15.7901 17.2639V5.10222C16.0018 3.82667 17.1876 1.05689 20.2367 0.182222C20.527 0.109333 20.7207 0.0303704 20.7811 0ZM15.7901 20.8885V20.0891L8.25801 13.3371V27.5504L15.7901 20.8885ZM20.7811 20.2267V20.8644L28.4039 27.6067V13.3933L20.7811 20.2267ZM75.1388 11.48H79.3132V24.7822H86.7544V28.7911H79.3132H75.1388V24.7822V11.48ZM65.1566 11.5711L74.0498 28.7911H69.331L68.7865 27.6978H61.5267L60.9822 28.7911H56.6263L65.1566 11.5711ZM65.0658 19.7711L66.79 23.78H63.5231L65.0658 19.7711ZM55.9004 11.6622L51.0907 11.6623L46.8256 18.6537V11.6623H42.8327V28.9733H46.8256V26.3116L48.3814 23.8L51.726 28.8824L56.5254 28.8826L50.7786 19.9304L55.9004 11.6622ZM92.7438 11.48H88.7509V28.7911H92.7438V23.8711H95.2847C96.4644 23.8711 98.1886 23.78 100.004 22.4133C101.819 21.0467 102.272 18.5867 101.546 15.2156C100.965 12.5187 98.7028 11.6015 97.6441 11.48H92.7438ZM92.7438 15.3978V19.8622H96.2829C96.8878 19.7407 98.0253 18.9876 97.7349 16.9467C97.6441 15.8533 96.3737 15.3067 95.3755 15.3978H92.7438Z" fill="#C0C0C0"/>
</svg>
