<svg width="25" height="25" viewBox="0 0 25 25" fill="none" xmlns="http://www.w3.org/2000/svg">
<path d="M22.1 0.25H2.9C1.58 0.25 0.5 1.33 0.5 2.65V21.85C0.5 23.17 1.58 24.25 2.9 24.25H22.1C23.42 24.25 24.5 23.17 24.5 21.85V2.65C24.5 1.33 23.42 0.25 22.1 0.25ZM7.7 20.65H4.1V9.85H7.7V20.65ZM5.9 7.81C4.7 7.81 3.74 6.85 3.74 5.65C3.74 4.45 4.7 3.49 5.9 3.49C7.1 3.49 8.06 4.45 8.06 5.65C8.06 6.85 7.1 7.81 5.9 7.81ZM20.9 20.65H17.3V14.29C17.3 13.33 16.46 12.49 15.5 12.49C14.54 12.49 13.7 13.33 13.7 14.29V20.65H10.1V9.85H13.7V11.29C14.3 10.33 15.62 9.61 16.7 9.61C18.98 9.61 20.9 11.53 20.9 13.81V20.65Z" fill="white"/>
</svg>
