<svg width="31" height="30" viewBox="0 0 31 30" fill="none" xmlns="http://www.w3.org/2000/svg">
<g filter="url(#filter0_b_769_3431)">
<rect x="0.575562" width="30" height="30" rx="5" fill="white" fill-opacity="0.1"/>
</g>
<path d="M9.51589 6.82324C8.34264 6.82324 7.57556 7.59364 7.57556 8.60624C7.57556 9.59649 8.31981 10.3889 9.47089 10.3889H9.49314C10.6893 10.3889 11.4338 9.59649 11.4338 8.60624C11.4114 7.59364 10.6893 6.82324 9.51589 6.82324ZM7.77831 11.7978L11.2082 11.7978L11.2082 22.1167L7.77829 22.1167L7.77831 11.7978ZM19.6269 11.5556C17.7766 11.5556 16.5359 13.2942 16.5359 13.2942L16.5359 11.7977L13.1059 11.7977L13.1059 22.1167L16.5357 22.1167L16.5357 16.3542C16.5357 16.0457 16.5581 15.7377 16.6487 15.5171C16.8967 14.9011 17.4609 14.2629 18.4085 14.2629C19.6496 14.2629 20.146 15.2092 20.146 16.5964L20.146 22.1167L23.5756 22.1167L23.5756 16.2C23.5756 13.0305 21.8834 11.5556 19.6269 11.5556Z" fill="white"/>
<defs>
<filter id="filter0_b_769_3431" x="-19.4244" y="-20" width="70" height="70" filterUnits="userSpaceOnUse" color-interpolation-filters="sRGB">
<feFlood flood-opacity="0" result="BackgroundImageFix"/>
<feGaussianBlur in="BackgroundImageFix" stdDeviation="10"/>
<feComposite in2="SourceAlpha" operator="in" result="effect1_backgroundBlur_769_3431"/>
<feBlend mode="normal" in="SourceGraphic" in2="effect1_backgroundBlur_769_3431" result="shape"/>
</filter>
</defs>
</svg>
