<?xml version="1.0" encoding="UTF-8"?>
<!DOCTYPE svg PUBLIC "-//W3C//DTD SVG 1.1//EN" "http://www.w3.org/Graphics/SVG/1.1/DTD/svg11.dtd">
<svg xmlns="http://www.w3.org/2000/svg" version="1.1" width="31px" height="30px" style="shape-rendering:geometricPrecision; text-rendering:geometricPrecision; image-rendering:optimizeQuality; fill-rule:evenodd; clip-rule:evenodd" xmlns:xlink="http://www.w3.org/1999/xlink">
<g><path style="opacity:0.968" fill="#1c1c1c" d="M 1.5,-0.5 C 10.5,-0.5 19.5,-0.5 28.5,-0.5C 28.8333,0.5 29.5,1.16667 30.5,1.5C 30.5,9.83333 30.5,18.1667 30.5,26.5C 29.5987,27.2905 28.9321,28.2905 28.5,29.5C 19.5,29.5 10.5,29.5 1.5,29.5C 1.06795,28.2905 0.40128,27.2905 -0.5,26.5C -0.5,18.5 -0.5,10.5 -0.5,2.5C 0.40128,1.70951 1.06795,0.709515 1.5,-0.5 Z"/></g>
<g><path style="opacity:1" fill="#f9f9f9" d="M 7.5,6.5 C 8.5,6.5 9.5,6.5 10.5,6.5C 10.5,7.5 10.5,8.5 10.5,9.5C 9.5,9.5 8.5,9.5 7.5,9.5C 7.5,8.5 7.5,7.5 7.5,6.5 Z"/></g>
<g><path style="opacity:1" fill="#fefffe" d="M 7.5,11.5 C 8.5,11.5 9.5,11.5 10.5,11.5C 10.5,14.8333 10.5,18.1667 10.5,21.5C 9.5,21.5 8.5,21.5 7.5,21.5C 7.5,18.1667 7.5,14.8333 7.5,11.5 Z"/></g>
<g><path style="opacity:1" fill="#e7e7e7" d="M 12.5,11.5 C 21.3248,9.32804 24.9915,12.6614 23.5,21.5C 22.1667,21.5 20.8333,21.5 19.5,21.5C 19.6633,19.1432 19.4966,16.8098 19,14.5C 18.586,14.0426 18.086,13.7093 17.5,13.5C 16.52,16.0865 16.1866,18.7531 16.5,21.5C 15.1667,21.5 13.8333,21.5 12.5,21.5C 12.5,18.1667 12.5,14.8333 12.5,11.5 Z"/></g>
</svg>
