<svg width="24" height="24" viewBox="0 0 24 24" fill="none" xmlns="http://www.w3.org/2000/svg">
<g filter="url(#filter0_b_957_7810)">
<rect width="24" height="24" rx="5" fill="white" fill-opacity="0.1"/>
</g>
<path d="M19.75 9.20732C19.7149 8.41075 19.5861 7.86316 19.4015 7.38861C19.2111 6.88493 18.9183 6.43398 18.5346 6.0591C18.1597 5.67838 17.7058 5.38253 17.2079 5.19516C16.7307 5.01066 16.1859 4.88181 15.3894 4.84672C14.5869 4.80859 14.3321 4.7998 12.2967 4.7998C10.2614 4.7998 10.0066 4.80859 9.20708 4.84373C8.41053 4.87888 7.86291 5.00779 7.38851 5.19218C6.88468 5.38253 6.43374 5.67539 6.05885 6.0591C5.67813 6.43395 5.38243 6.88788 5.19492 7.38574C5.01041 7.86316 4.88159 8.40782 4.84647 9.20434C4.80837 10.0069 4.79956 10.2616 4.79956 12.297C4.79956 14.3323 4.80837 14.5871 4.84349 15.3866C4.87863 16.1832 5.00754 16.7308 5.19207 17.2053C5.38243 17.709 5.67813 18.16 6.05885 18.5349C6.43374 18.9156 6.88767 19.2114 7.38553 19.3988C7.86288 19.5833 8.40754 19.7122 9.20424 19.7472C10.0036 19.7825 10.2585 19.7912 12.2939 19.7912C14.3293 19.7912 14.584 19.7825 15.3835 19.7472C16.1801 19.7121 16.7277 19.5833 17.2021 19.3988C17.7004 19.2061 18.1529 18.9115 18.5306 18.5338C18.9084 18.1561 19.203 17.7036 19.3957 17.2053C19.5801 16.728 19.709 16.1832 19.7442 15.3866C19.7793 14.5871 19.7881 14.3323 19.7881 12.297C19.7881 10.2616 19.7851 10.0068 19.75 9.20732ZM18.4 15.3281C18.3677 16.0602 18.2447 16.4556 18.1422 16.7191C17.8903 17.3722 17.372 17.8906 16.7189 18.1425C16.4553 18.245 16.0571 18.368 15.3278 18.4001C14.5371 18.4353 14.3 18.444 12.2997 18.444C10.2995 18.444 10.0594 18.4353 9.27147 18.4001C8.53933 18.368 8.14397 18.245 7.8804 18.1425C7.55541 18.0224 7.2596 17.832 7.01945 17.5831C6.77052 17.34 6.58017 17.0471 6.46003 16.7221C6.35753 16.4586 6.23456 16.0602 6.20244 15.331C6.16718 14.5403 6.15851 14.3031 6.15851 12.3028C6.15851 10.3026 6.16718 10.0624 6.20244 9.27471C6.23456 8.54256 6.35753 8.14721 6.46003 7.88363C6.58017 7.5585 6.77052 7.26274 7.02244 7.02254C7.2654 6.77361 7.55825 6.58325 7.88339 6.46327C8.14696 6.36077 8.5453 6.23777 9.27446 6.20552C10.0652 6.17038 10.3025 6.1616 12.3026 6.1616C14.3058 6.1616 14.5429 6.17038 15.3308 6.20552C16.0629 6.2378 16.4583 6.36074 16.7219 6.46324C17.0469 6.58325 17.3427 6.77361 17.5828 7.02254C17.8318 7.26564 18.0221 7.5585 18.1422 7.88363C18.2447 8.14721 18.3677 8.5454 18.4 9.27471C18.4351 10.0654 18.4439 10.3026 18.4439 12.3028C18.4439 14.3031 18.4351 14.5373 18.4 15.3281Z" fill="white"/>
<path d="M12.2968 8.44583C10.1707 8.44583 8.44571 10.1707 8.44571 12.2969C8.44571 14.4231 10.1707 16.148 12.2968 16.148C14.423 16.148 16.1479 14.4231 16.1479 12.2969C16.1479 10.1707 14.423 8.44583 12.2968 8.44583ZM12.2968 14.795C10.9175 14.795 9.79866 13.6763 9.79866 12.2969C9.79866 10.9175 10.9175 9.79884 12.2968 9.79884C13.6762 9.79884 14.7949 10.9175 14.7949 12.2969C14.7949 13.6763 13.6762 14.795 12.2968 14.795ZM17.1993 8.29355C17.1993 8.79006 16.7967 9.19262 16.3001 9.19262C15.8036 9.19262 15.4011 8.79006 15.4011 8.29355C15.4011 7.79698 15.8036 7.39453 16.3001 7.39453C16.7967 7.39453 17.1993 7.79695 17.1993 8.29355Z" fill="white"/>
<defs>
<filter id="filter0_b_957_7810" x="-20" y="-20" width="64" height="64" filterUnits="userSpaceOnUse" color-interpolation-filters="sRGB">
<feFlood flood-opacity="0" result="BackgroundImageFix"/>
<feGaussianBlur in="BackgroundImageFix" stdDeviation="10"/>
<feComposite in2="SourceAlpha" operator="in" result="effect1_backgroundBlur_957_7810"/>
<feBlend mode="normal" in="SourceGraphic" in2="effect1_backgroundBlur_957_7810" result="shape"/>
</filter>
</defs>
</svg>
