<svg width="151" height="65" viewBox="0 0 151 65" fill="none" xmlns="http://www.w3.org/2000/svg">
<path d="M15.965 52.9989V39.3686C15.965 39.1627 16.1324 38.9774 16.3625 38.9774H25.0249C25.2551 38.9774 25.4224 39.1627 25.4224 39.3686V41.6129C25.4224 41.8188 25.2551 42.0041 25.0249 42.0041H19.229V44.969H23.9996C24.2089 44.969 24.3972 45.1543 24.3972 45.3602V47.6045C24.3972 47.8103 24.2089 47.9957 23.9996 47.9957H19.229V52.9989C19.229 53.2048 19.0407 53.3901 18.8315 53.3901H16.3625C16.1324 53.3901 15.965 53.2048 15.965 52.9989Z" fill="white"/>
<path d="M26.6878 46.2044C26.6878 42.0864 30.0147 38.7715 34.1994 38.7715C38.3841 38.7715 41.7319 42.0864 41.7319 46.2044C41.7319 50.3223 38.3841 53.596 34.1994 53.596C30.0147 53.596 26.6878 50.3223 26.6878 46.2044ZM30.0356 46.2044C30.0356 48.4486 31.9187 50.3017 34.1994 50.3017C36.501 50.3017 38.3841 48.4486 38.3841 46.2044C38.3841 43.9395 36.501 42.0658 34.1994 42.0658C31.9187 42.0658 30.0356 43.9395 30.0356 46.2044Z" fill="white"/>
<path d="M44.0557 47.8721V39.3686C44.0557 39.1627 44.244 38.9774 44.4533 38.9774H47.0269C47.257 38.9774 47.4244 39.1627 47.4244 39.3686V47.7074C47.4244 49.1487 48.5125 50.3017 49.998 50.3017C51.5045 50.3017 52.6135 49.1487 52.6135 47.7074V39.3686C52.6135 39.1627 52.7809 38.9774 53.011 38.9774H55.5846C55.7939 38.9774 55.9822 39.1627 55.9822 39.3686V47.8721C55.9822 51.0017 53.304 53.596 49.998 53.596C46.713 53.596 44.0557 51.0017 44.0557 47.8721Z" fill="white"/>
<path d="M59.3447 52.9989L59.3238 39.1421C59.3238 38.9362 59.5121 38.7715 59.7213 38.7715H60.2444L68.5929 46.6779H68.6138V39.3686C68.6138 39.1627 68.7812 38.9774 69.0114 38.9774H71.5222C71.7315 38.9774 71.9198 39.1627 71.9198 39.3686V53.2254C71.9198 53.4313 71.7315 53.596 71.5222 53.596H71.1874C71.1247 53.596 70.9573 53.5343 70.9154 53.4931L62.6506 45.319H62.6297V52.9989C62.6297 53.2048 62.4623 53.3901 62.2321 53.3901H59.7422C59.533 53.3901 59.3447 53.2048 59.3447 52.9989Z" fill="white"/>
<path d="M75.5278 52.9989V39.3686C75.5278 39.1627 75.6952 38.9774 75.9044 38.9774H81.0098C85.048 38.9774 88.354 42.21 88.354 46.1632C88.354 50.1576 85.048 53.3901 81.0098 53.3901H75.9044C75.6952 53.3901 75.5278 53.2048 75.5278 52.9989ZM78.7919 50.3429H80.8005C83.1649 50.3429 84.8806 48.5104 84.8806 46.1632C84.8806 43.8365 83.1649 42.0041 80.8005 42.0041H78.7919V50.3429Z" fill="white"/>
<path d="M89.2436 53.3901C88.9297 53.3901 88.7623 53.1225 88.8878 52.8548L95.4369 38.998C95.4997 38.8744 95.6462 38.7715 95.7926 38.7715H96.0019C96.1483 38.7715 96.2948 38.8744 96.3576 38.998L102.907 52.8548C103.032 53.1225 102.865 53.3901 102.551 53.3901H100.228C99.8518 53.3901 99.6844 53.2666 99.4961 52.8754L98.7429 51.2488H93.0516L92.2984 52.896C92.1938 53.1431 91.9636 53.3901 91.5451 53.3901H89.2436ZM94.3071 48.4486H97.4875L95.8973 45.0513H95.8763L94.3071 48.4486Z" fill="white"/>
<path d="M105.752 52.9989V42.0041H102.76C102.53 42.0041 102.362 41.8188 102.362 41.6129V39.3686C102.362 39.1627 102.53 38.9774 102.76 38.9774H112.05C112.28 38.9774 112.447 39.1627 112.447 39.3686V41.6129C112.447 41.8188 112.28 42.0041 112.05 42.0041H109.058V52.9989C109.058 53.2048 108.869 53.3901 108.66 53.3901H106.149C105.94 53.3901 105.752 53.2048 105.752 52.9989Z" fill="white"/>
<path d="M114.535 52.9989V39.3686C114.535 39.1627 114.723 38.9774 114.932 38.9774H117.443C117.652 38.9774 117.841 39.1627 117.841 39.3686V52.9989C117.841 53.2048 117.652 53.3901 117.443 53.3901H114.932C114.723 53.3901 114.535 53.2048 114.535 52.9989Z" fill="white"/>
<path d="M120.374 46.2044C120.374 42.0864 123.701 38.7715 127.886 38.7715C132.07 38.7715 135.418 42.0864 135.418 46.2044C135.418 50.3223 132.07 53.596 127.886 53.596C123.701 53.596 120.374 50.3223 120.374 46.2044ZM123.722 46.2044C123.722 48.4486 125.605 50.3017 127.886 50.3017C130.187 50.3017 132.07 48.4486 132.07 46.2044C132.07 43.9395 130.187 42.0658 127.886 42.0658C125.605 42.0658 123.722 43.9395 123.722 46.2044Z" fill="white"/>
<path d="M137.951 52.9989L137.93 39.1421C137.93 38.9362 138.119 38.7715 138.328 38.7715H138.851L147.2 46.6779H147.22V39.3686C147.22 39.1627 147.388 38.9774 147.618 38.9774H150.129C150.338 38.9774 150.526 39.1627 150.526 39.3686V53.2254C150.526 53.4313 150.338 53.596 150.129 53.596H149.794C149.731 53.596 149.564 53.5343 149.522 53.4931L141.257 45.319H141.236V52.9989C141.236 53.2048 141.069 53.3901 140.839 53.3901H138.349C138.14 53.3901 137.951 53.2048 137.951 52.9989Z" fill="white"/>
<path fill-rule="evenodd" clip-rule="evenodd" d="M19.5623 0V17.3058L26.885 10.6915C28.1507 9.36263 31.6222 6.79545 35.383 7.15788C35.3107 7.15788 35.3528 8.48676 35.383 9.15121C34.7502 9.24182 33.4845 9.64048 33.4845 10.5103V30.353C33.5626 30.7963 33.9508 31.5956 34.8935 31.7121C35.0425 31.7305 100.347 31.7184 100.525 31.6986V33.6919C100.383 33.7055 35.077 33.7281 34.8935 33.731C33.4363 33.7543 30.7748 33.3859 28.7835 31.7121C26.5415 29.8275 21.7018 25.6112 19.5623 23.7388V60.2885C19.3513 61.557 16.9212 64.2751 15.7304 65V23.762C13.5477 25.6716 8.81052 29.7976 6.59952 31.6563C4.35749 33.5409 1.26566 33.7703 0 33.6496V31.6563C1.30182 31.8013 1.80809 30.8106 1.89849 30.2972V10.4544C1.89849 9.58456 0.632831 9.18589 0 9.09529C0.0301343 8.43084 0.0723239 7.10196 0 7.10196C3.76082 6.73953 7.23235 9.30671 8.49801 10.6356L15.7304 17.1682V5.07394C15.7304 2.85088 16.5351 1.71053 19.0198 0.181212C19.3091 0.108727 19.502 0.0302021 19.5623 0ZM15.7304 20.7727V19.9777L8.2268 13.2632V27.3976L15.7304 20.7727ZM19.5623 20.1145V20.7488L27.1562 27.4536V13.3191L19.5623 20.1145ZM73.7145 11.4164H77.8731V24.6448H85.2862V28.6315H77.8731H73.7145V24.6448V11.4164ZM63.77 11.507L72.6296 28.6315H67.9286L67.3862 27.5442H60.1538L59.6114 28.6315H55.272L63.77 11.507ZM63.6796 19.6615L65.3973 23.6482H62.1427L63.6796 19.6615ZM54.5488 11.5976L49.7573 11.5977L45.5083 18.5503V11.5976H41.5305V28.8127H45.5083V26.1658L47.0582 23.6681L50.3902 28.7223L55.1715 28.7225L49.4463 19.8199L54.5488 11.5976ZM91.2529 11.4164H87.2751V28.6315H91.2529V23.7388H93.7843C94.9595 23.7388 96.6772 23.6482 98.4853 22.2891C100.293 20.93 100.745 18.4836 100.022 15.1312C99.4436 12.4493 97.1894 11.5372 96.1348 11.4164H91.2529ZM91.2529 15.3124V19.7521H94.7787C95.3813 19.6313 96.5145 18.8823 96.2252 16.8527C96.1348 15.7655 94.8691 15.2218 93.8747 15.3124H91.2529Z" fill="white"/>
</svg>
