<svg width="132" height="57" viewBox="0 0 132 57" fill="none" xmlns="http://www.w3.org/2000/svg">
<path d="M14 46.4764V34.5236C14 34.3431 14.1468 34.1806 14.3486 34.1806H21.9449C22.1467 34.1806 22.2935 34.3431 22.2935 34.5236V36.4917C22.2935 36.6722 22.1467 36.8347 21.9449 36.8347H16.8624V39.4347H21.0458C21.2293 39.4347 21.3944 39.5972 21.3944 39.7778V41.7458C21.3944 41.9264 21.2293 42.0889 21.0458 42.0889H16.8624V46.4764C16.8624 46.6569 16.6972 46.8194 16.5137 46.8194H14.3486C14.1468 46.8194 14 46.6569 14 46.4764Z" fill="black"/>
<path d="M23.4031 40.5181C23.4031 36.9069 26.3205 34 29.9902 34C33.6599 34 36.5956 36.9069 36.5956 40.5181C36.5956 44.1292 33.6599 47 29.9902 47C26.3205 47 23.4031 44.1292 23.4031 40.5181ZM26.3389 40.5181C26.3389 42.4861 27.9902 44.1111 29.9902 44.1111C32.0085 44.1111 33.6599 42.4861 33.6599 40.5181C33.6599 38.5319 32.0085 36.8889 29.9902 36.8889C27.9902 36.8889 26.3389 38.5319 26.3389 40.5181Z" fill="black"/>
<path d="M38.6334 41.9806V34.5236C38.6334 34.3431 38.7986 34.1806 38.9821 34.1806H41.2389C41.4408 34.1806 41.5875 34.3431 41.5875 34.5236V41.8361C41.5875 43.1 42.5417 44.1111 43.8444 44.1111C45.1655 44.1111 46.1379 43.1 46.1379 41.8361V34.5236C46.1379 34.3431 46.2847 34.1806 46.4866 34.1806H48.7434C48.9269 34.1806 49.092 34.3431 49.092 34.5236V41.9806C49.092 44.725 46.7434 47 43.8444 47C40.9637 47 38.6334 44.725 38.6334 41.9806Z" fill="black"/>
<path d="M52.0407 46.4764L52.0223 34.325C52.0223 34.1444 52.1875 34 52.3709 34H52.8297L60.1507 40.9333H60.169V34.5236C60.169 34.3431 60.3158 34.1806 60.5176 34.1806H62.7194C62.9029 34.1806 63.0681 34.3431 63.0681 34.5236V46.675C63.0681 46.8556 62.9029 47 62.7194 47H62.4259C62.3708 47 62.224 46.9458 62.1873 46.9097L54.9397 39.7417H54.9214V46.4764C54.9214 46.6569 54.7746 46.8194 54.5728 46.8194H52.3893C52.2058 46.8194 52.0407 46.6569 52.0407 46.4764Z" fill="black"/>
<path d="M66.232 46.4764V34.5236C66.232 34.3431 66.3788 34.1806 66.5623 34.1806H71.0393C74.5805 34.1806 77.4796 37.0153 77.4796 40.4819C77.4796 43.9847 74.5805 46.8194 71.0393 46.8194H66.5623C66.3788 46.8194 66.232 46.6569 66.232 46.4764ZM69.0944 44.1472H70.8558C72.9292 44.1472 74.4338 42.5403 74.4338 40.4819C74.4338 38.4417 72.9292 36.8347 70.8558 36.8347H69.0944V44.1472Z" fill="black"/>
<path d="M78.2597 46.8194C77.9845 46.8194 77.8377 46.5847 77.9478 46.35L83.6908 34.1986C83.7458 34.0903 83.8743 34 84.0027 34H84.1862C84.3147 34 84.4431 34.0903 84.4981 34.1986L90.2412 46.35C90.3513 46.5847 90.2045 46.8194 89.9293 46.8194H87.8926C87.5623 46.8194 87.4155 46.7111 87.2504 46.3681L86.5899 44.9417H81.5991L80.9386 46.3861C80.8468 46.6028 80.645 46.8194 80.278 46.8194H78.2597ZM82.7 42.4861H85.489L84.0945 39.5069H84.0761L82.7 42.4861Z" fill="black"/>
<path d="M92.7361 46.4764V36.8347H90.1123C89.9105 36.8347 89.7637 36.6722 89.7637 36.4917V34.5236C89.7637 34.3431 89.9105 34.1806 90.1123 34.1806H98.259C98.4608 34.1806 98.6076 34.3431 98.6076 34.5236V36.4917C98.6076 36.6722 98.4608 36.8347 98.259 36.8347H95.6352V46.4764C95.6352 46.6569 95.4701 46.8194 95.2866 46.8194H93.0848C92.9013 46.8194 92.7361 46.6569 92.7361 46.4764Z" fill="black"/>
<path d="M100.438 46.4764V34.5236C100.438 34.3431 100.603 34.1806 100.787 34.1806H102.989C103.172 34.1806 103.337 34.3431 103.337 34.5236V46.4764C103.337 46.6569 103.172 46.8194 102.989 46.8194H100.787C100.603 46.8194 100.438 46.6569 100.438 46.4764Z" fill="black"/>
<path d="M105.559 40.5181C105.559 36.9069 108.476 34 112.146 34C115.816 34 118.751 36.9069 118.751 40.5181C118.751 44.1292 115.816 47 112.146 47C108.476 47 105.559 44.1292 105.559 40.5181ZM108.495 40.5181C108.495 42.4861 110.146 44.1111 112.146 44.1111C114.164 44.1111 115.816 42.4861 115.816 40.5181C115.816 38.5319 114.164 36.8889 112.146 36.8889C110.146 36.8889 108.495 38.5319 108.495 40.5181Z" fill="black"/>
<path d="M120.973 46.4764L120.954 34.325C120.954 34.1444 121.119 34 121.303 34H121.762L129.083 40.9333H129.101V34.5236C129.101 34.3431 129.248 34.1806 129.45 34.1806H131.651C131.835 34.1806 132 34.3431 132 34.5236V46.675C132 46.8556 131.835 47 131.651 47H131.358C131.303 47 131.156 46.9458 131.119 46.9097L123.872 39.7417H123.853V46.4764C123.853 46.6569 123.707 46.8194 123.505 46.8194H121.321C121.138 46.8194 120.973 46.6569 120.973 46.4764Z" fill="black"/>
<path fill-rule="evenodd" clip-rule="evenodd" d="M17.1546 0V15.1758L23.5761 9.37564C24.686 8.21031 27.7302 5.95909 31.0282 6.27691C30.9648 6.27691 31.0017 7.44224 31.0282 8.02491C30.4732 8.10436 29.3634 8.45396 29.3634 9.21673V26.6173C29.4318 27.006 29.7722 27.7069 30.5989 27.8091C30.7296 27.8252 87.9965 27.8146 88.1523 27.7972V29.5452C88.0282 29.5571 30.7599 29.577 30.5989 29.5795C29.3211 29.5999 26.9871 29.2769 25.2409 27.8091C23.2748 26.1564 19.0308 22.4591 17.1546 20.8171V52.8684C16.9696 53.9807 14.8386 56.3644 13.7943 57V20.8374C11.8803 22.512 7.72615 26.1302 5.78727 27.7601C3.82119 29.4128 1.10989 29.614 0 29.5081V27.7601C1.1416 27.8873 1.58555 27.0185 1.66483 26.5683V9.16769C1.66483 8.40492 0.554944 8.05532 0 7.97587C0.0264255 7.3932 0.0634225 6.22787 0 6.22787C3.29795 5.91005 6.34222 8.16127 7.4521 9.3266L13.7943 15.0552V4.44945C13.7943 2.5 14.5 1.5 16.6789 0.158909C16.9326 0.0953454 17.1018 0.0264849 17.1546 0ZM13.7943 18.2161V17.5189L7.21427 11.6308V24.0256L13.7943 18.2161ZM17.1546 17.6389V18.1951L23.8139 24.0747V11.6798L17.1546 17.6389ZM64.6419 10.0113H68.2887V21.6116H74.7895V25.1076H68.2887H64.6419V21.6116V10.0113ZM55.9214 10.0907L63.6906 25.1076H59.5682L59.0925 24.1542H52.7503L52.2746 25.1076H48.4693L55.9214 10.0907ZM55.8421 17.2416L57.3484 20.7376H54.4944L55.8421 17.2416ZM47.8351 10.1702L43.6333 10.1703L39.9073 16.2672V10.1702H36.4191V25.2665H39.9073V22.9454L41.2664 20.7551L44.1883 25.1873L48.3811 25.1874L43.3606 17.3805L47.8351 10.1702ZM80.0218 10.0113H76.5336V25.1076H80.0218V20.8171H82.2416C83.2722 20.8171 84.7785 20.7376 86.364 19.5458C87.9496 18.354 88.346 16.2087 87.7117 13.2689C87.2044 10.9171 85.2277 10.1172 84.3028 10.0113H80.0218ZM80.0218 13.4278V17.3211H83.1136C83.6421 17.2151 84.6358 16.5583 84.3821 14.7785C84.3028 13.8251 83.1929 13.3484 82.3209 13.4278H80.0218Z" fill="black"/>
</svg>
