<?xml version="1.0" encoding="UTF-8"?>
<!DOCTYPE svg PUBLIC "-//W3C//DTD SVG 1.1//EN" "http://www.w3.org/Graphics/SVG/1.1/DTD/svg11.dtd">
<svg xmlns="http://www.w3.org/2000/svg" version="1.1" width="38px" height="32px" style="shape-rendering:geometricPrecision; text-rendering:geometricPrecision; image-rendering:optimizeQuality; fill-rule:evenodd; clip-rule:evenodd" xmlns:xlink="http://www.w3.org/1999/xlink">
<g><path style="opacity:0.71" fill="#caaf44" d="M 6.5,-0.5 C 7.83333,-0.5 9.16667,-0.5 10.5,-0.5C 12.0764,0.142944 13.4097,1.14294 14.5,2.5C 13.391,2.44312 12.391,2.10978 11.5,1.5C 8.42994,1.36772 5.42994,1.70105 2.5,2.5C 3.59026,1.14294 4.92359,0.142944 6.5,-0.5 Z"/></g>
<g><path style="opacity:1" fill="#ebd049" d="M 11.5,1.5 C 9.5,2.16667 7.5,2.83333 5.5,3.5C 4.83333,3.83333 4.16667,4.16667 3.5,4.5C 3.15829,3.66175 2.49162,3.32842 1.5,3.5C 1.5,2.83333 1.83333,2.5 2.5,2.5C 5.42994,1.70105 8.42994,1.36772 11.5,1.5 Z"/></g>
<g><path style="opacity:0.992" fill="#c6a536" d="M 11.5,1.5 C 12.391,2.10978 13.391,2.44312 14.5,2.5C 15.3382,2.84171 15.6716,3.50838 15.5,4.5C 14.5768,3.69708 13.5768,3.53042 12.5,4C 13.3366,5.01127 13.67,6.17793 13.5,7.5C 12.7281,6.30646 11.7281,5.30646 10.5,4.5C 9.08134,3.54885 7.41467,3.21552 5.5,3.5C 7.5,2.83333 9.5,2.16667 11.5,1.5 Z"/></g>
<g><path style="opacity:0.263" fill="#69380c" d="M 5.5,3.5 C 7.41467,3.21552 9.08134,3.54885 10.5,4.5C 8.14166,4.2525 6.14166,4.91917 4.5,6.5C 3.83333,6.5 3.5,6.16667 3.5,5.5C 3.5,5.16667 3.5,4.83333 3.5,4.5C 4.16667,4.16667 4.83333,3.83333 5.5,3.5 Z"/></g>
<g><path style="opacity:0.478" fill="#cab14a" d="M 36.5,4.5 C 35.1979,6.0276 33.5313,7.0276 31.5,7.5C 30.1128,4.81452 31.1128,3.14785 34.5,2.5C 35.5223,2.85549 36.189,3.52216 36.5,4.5 Z"/></g>
<g><path style="opacity:1" fill="#f1d74a" d="M 1.5,3.5 C 2.49162,3.32842 3.15829,3.66175 3.5,4.5C 3.5,4.83333 3.5,5.16667 3.5,5.5C 2.16667,6.83333 2.16667,8.16667 3.5,9.5C 3.5,9.83333 3.5,10.1667 3.5,10.5C 2.56552,11.5676 2.23219,12.901 2.5,14.5C 1.83333,14.5 1.16667,14.5 0.5,14.5C 1.11425,10.8648 1.44759,7.1981 1.5,3.5 Z"/></g>
<g><path style="opacity:1" fill="#ecce45" d="M 15.5,4.5 C 15.5,6.16667 15.5,7.83333 15.5,9.5C 14.5084,9.67158 13.8417,9.33825 13.5,8.5C 13.5,8.16667 13.5,7.83333 13.5,7.5C 13.67,6.17793 13.3366,5.01127 12.5,4C 13.5768,3.53042 14.5768,3.69708 15.5,4.5 Z"/></g>
<g><path style="opacity:1" fill="#9b751e" d="M 36.5,4.5 C 36.8333,4.5 37.1667,4.5 37.5,4.5C 37.5,5.5 37.5,6.5 37.5,7.5C 36.8333,7.5 36.5,7.83333 36.5,8.5C 35.5,8.5 34.5,8.5 33.5,8.5C 32.8333,8.5 32.1667,8.5 31.5,8.5C 31.5,8.16667 31.5,7.83333 31.5,7.5C 33.5313,7.0276 35.1979,6.0276 36.5,4.5 Z"/></g>
<g><path style="opacity:0.031" fill="#f7de5c" d="M 1.5,3.5 C 1.44759,7.1981 1.11425,10.8648 0.5,14.5C 0.801552,17.0593 0.468218,19.3926 -0.5,21.5C -0.5,16.8333 -0.5,12.1667 -0.5,7.5C 0.166667,6.16667 0.833333,4.83333 1.5,3.5 Z"/></g>
<g><path style="opacity:0.906" fill="#dfc43f" d="M 3.5,5.5 C 3.5,6.16667 3.83333,6.5 4.5,6.5C 5.91791,8.30794 7.91791,8.97461 10.5,8.5C 10.5,8.83333 10.5,9.16667 10.5,9.5C 8.16667,9.5 5.83333,9.5 3.5,9.5C 2.16667,8.16667 2.16667,6.83333 3.5,5.5 Z"/></g>
<g><path style="opacity:0.906" fill="#dfc042" d="M 15.5,4.5 C 16.4345,5.56764 16.7678,6.90097 16.5,8.5C 20.9707,7.91057 24.9707,8.57723 28.5,10.5C 27.8333,10.5 27.1667,10.5 26.5,10.5C 23.0381,9.51836 19.3714,9.18503 15.5,9.5C 15.5,7.83333 15.5,6.16667 15.5,4.5 Z"/></g>
<g><path style="opacity:1" fill="#eccf45" d="M 3.5,10.5 C 3.5,10.1667 3.5,9.83333 3.5,9.5C 5.83333,9.5 8.16667,9.5 10.5,9.5C 11.4916,9.32842 12.1583,9.66175 12.5,10.5C 12.5,10.8333 12.5,11.1667 12.5,11.5C 12.5,12.8333 12.5,14.1667 12.5,15.5C 11.609,14.8902 10.609,14.5569 9.5,14.5C 9.5,13.5 9.5,12.5 9.5,11.5C 8.34088,10.4865 6.34088,10.1532 3.5,10.5 Z"/></g>
<g><path style="opacity:1" fill="#e6c740" d="M 10.5,9.5 C 10.5,9.16667 10.5,8.83333 10.5,8.5C 11.5,8.5 12.5,8.5 13.5,8.5C 13.8417,9.33825 14.5084,9.67158 15.5,9.5C 19.3714,9.18503 23.0381,9.51836 26.5,10.5C 21.8333,10.5 17.1667,10.5 12.5,10.5C 12.1583,9.66175 11.4916,9.32842 10.5,9.5 Z"/></g>
<g><path style="opacity:0.757" fill="#c7a732" d="M 31.5,8.5 C 32.1667,8.5 32.8333,8.5 33.5,8.5C 33.5,8.83333 33.5,9.16667 33.5,9.5C 33.5,10.8333 33.5,12.1667 33.5,13.5C 32.8333,13.8333 32.1667,14.1667 31.5,14.5C 31.5,12.5 31.5,10.5 31.5,8.5 Z"/></g>
<g><path style="opacity:0.165" fill="#d8b640" d="M 33.5,9.5 C 33.5,9.16667 33.5,8.83333 33.5,8.5C 34.5,8.5 35.5,8.5 36.5,8.5C 36.5,11.8333 36.5,15.1667 36.5,18.5C 36.1667,18.5 35.8333,18.5 35.5,18.5C 36.0545,14.9878 35.3878,11.9878 33.5,9.5 Z"/></g>
<g><path style="opacity:0.682" fill="#a58427" d="M 12.5,11.5 C 12.5,11.1667 12.5,10.8333 12.5,10.5C 17.1667,10.5 21.8333,10.5 26.5,10.5C 27.1667,10.5 27.8333,10.5 28.5,10.5C 28.1583,11.3382 27.4916,11.6716 26.5,11.5C 23.6146,11.1936 20.9479,11.5269 18.5,12.5C 18.1667,12.5 17.8333,12.5 17.5,12.5C 16.4324,11.5655 15.099,11.2322 13.5,11.5C 13.1667,11.5 12.8333,11.5 12.5,11.5 Z"/></g>
<g><path style="opacity:0.999" fill="#e2c13e" d="M 26.5,11.5 C 27.1098,12.391 27.4431,13.391 27.5,14.5C 27.5,14.8333 27.5,15.1667 27.5,15.5C 26.7321,16.2625 26.2321,17.2625 26,18.5C 25.5065,16.8659 25.3398,15.1992 25.5,13.5C 23.2646,13.2053 21.2646,13.5386 19.5,14.5C 18.6618,14.1583 18.3284,13.4916 18.5,12.5C 20.9479,11.5269 23.6146,11.1936 26.5,11.5 Z"/></g>
<g><path style="opacity:0.941" fill="#c4a537" d="M 3.5,10.5 C 6.34088,10.1532 8.34088,10.4865 9.5,11.5C 7.5,11.5 5.5,11.5 3.5,11.5C 3.5,13.5 3.5,15.5 3.5,17.5C 3.16667,17.5 2.83333,17.5 2.5,17.5C 2.5,16.5 2.5,15.5 2.5,14.5C 2.23219,12.901 2.56552,11.5676 3.5,10.5 Z"/></g>
<g><path style="opacity:1" fill="#e5cb4f" d="M 0.5,14.5 C 1.16667,14.5 1.83333,14.5 2.5,14.5C 2.5,15.5 2.5,16.5 2.5,17.5C 2.5,19.1667 2.5,20.8333 2.5,22.5C 0.9724,23.8021 -0.0275999,25.4687 -0.5,27.5C -0.5,25.5 -0.5,23.5 -0.5,21.5C 0.468218,19.3926 0.801552,17.0593 0.5,14.5 Z"/></g>
<g><path style="opacity:0.757" fill="#d2b545" d="M 33.5,13.5 C 33.0773,15.7812 33.744,17.4479 35.5,18.5C 35.8333,18.5 36.1667,18.5 36.5,18.5C 36.5,19.1667 36.5,19.8333 36.5,20.5C 35.8501,20.8039 35.1835,21.1373 34.5,21.5C 33.7348,20.3881 32.7348,19.7214 31.5,19.5C 31.5,17.8333 31.5,16.1667 31.5,14.5C 32.1667,14.1667 32.8333,13.8333 33.5,13.5 Z"/></g>
<g><path style="opacity:0.974" fill="#edd356" d="M 9.5,14.5 C 10.609,14.5569 11.609,14.8902 12.5,15.5C 12.5,16.5 12.5,17.5 12.5,18.5C 11.5,18.5 10.5,18.5 9.5,18.5C 9.5,17.1667 9.5,15.8333 9.5,14.5 Z"/></g>
<g><path style="opacity:0.918" fill="#e6c749" d="M 33.5,9.5 C 35.3878,11.9878 36.0545,14.9878 35.5,18.5C 33.744,17.4479 33.0773,15.7812 33.5,13.5C 33.5,12.1667 33.5,10.8333 33.5,9.5 Z"/></g>
<g><path style="opacity:1" fill="#e1c64f" d="M 17.5,12.5 C 17.8333,12.5 18.1667,12.5 18.5,12.5C 18.3284,13.4916 18.6618,14.1583 19.5,14.5C 19.5,14.8333 19.5,15.1667 19.5,15.5C 19.5,17.5 19.5,19.5 19.5,21.5C 18.609,22.1098 17.609,22.4431 16.5,22.5C 16.1872,18.9581 16.5206,15.6248 17.5,12.5 Z"/></g>
<g><path style="opacity:0.784" fill="#c9ac40" d="M 27.5,15.5 C 28.0102,18.3878 27.3435,20.7211 25.5,22.5C 25.1667,21.5 24.5,20.8333 23.5,20.5C 23.5,18.5 23.5,16.5 23.5,14.5C 22.0413,14.4326 20.7079,14.7659 19.5,15.5C 19.5,15.1667 19.5,14.8333 19.5,14.5C 21.2646,13.5386 23.2646,13.2053 25.5,13.5C 25.3398,15.1992 25.5065,16.8659 26,18.5C 26.2321,17.2625 26.7321,16.2625 27.5,15.5 Z"/></g>
<g><path style="opacity:0.894" fill="#dabf4d" d="M 12.5,11.5 C 12.8333,11.5 13.1667,11.5 13.5,11.5C 13.5,14.5 13.5,17.5 13.5,20.5C 12.8485,21.0906 12.1818,21.7573 11.5,22.5C 10.5832,21.8728 9.58317,21.5394 8.5,21.5C 6.93819,21.7329 5.60486,22.3995 4.5,23.5C 5.1439,20.856 6.81057,19.1894 9.5,18.5C 10.5,18.5 11.5,18.5 12.5,18.5C 12.5,17.5 12.5,16.5 12.5,15.5C 12.5,14.1667 12.5,12.8333 12.5,11.5 Z"/></g>
<g><path style="opacity:0.277" fill="#ba9c3b" d="M 27.5,14.5 C 28.1663,18.3525 28.833,22.3525 29.5,26.5C 30.5223,26.1445 31.189,25.4778 31.5,24.5C 32.4916,24.3284 33.1583,24.6618 33.5,25.5C 32.8333,26.5 32.1667,27.5 31.5,28.5C 30.1667,28.5 28.8333,28.5 27.5,28.5C 26.3702,26.6854 25.7036,24.6854 25.5,22.5C 27.3435,20.7211 28.0102,18.3878 27.5,15.5C 27.5,15.1667 27.5,14.8333 27.5,14.5 Z"/></g>
<g><path style="opacity:1" fill="#c5aa3e" d="M 8.5,21.5 C 8.5,22.1667 8.5,22.8333 8.5,23.5C 8.5,24.1667 8.16667,24.5 7.5,24.5C 7.56544,24.0618 7.39877,23.7284 7,23.5C 6.2917,24.3805 5.45837,25.0472 4.5,25.5C 3.66175,25.1583 3.32842,24.4916 3.5,23.5C 3.83333,23.5 4.16667,23.5 4.5,23.5C 5.60486,22.3995 6.93819,21.7329 8.5,21.5 Z"/></g>
<g><path style="opacity:0.91" fill="#a78534" d="M 31.5,19.5 C 32.7348,19.7214 33.7348,20.3881 34.5,21.5C 35.1835,21.1373 35.8501,20.8039 36.5,20.5C 36.5,22.1667 36.5,23.8333 36.5,25.5C 35.5,24.1667 34.5,24.1667 33.5,25.5C 33.1583,24.6618 32.4916,24.3284 31.5,24.5C 31.5,22.8333 31.5,21.1667 31.5,19.5 Z"/></g>
<g><path style="opacity:0.216" fill="#ac8e35" d="M 13.5,20.5 C 13.8064,23.3854 13.4731,26.0521 12.5,28.5C 11.8333,28.5 11.1667,28.5 10.5,28.5C 10.7373,27.209 10.404,26.209 9.5,25.5C 9.67158,24.5084 9.33825,23.8417 8.5,23.5C 8.5,22.8333 8.5,22.1667 8.5,21.5C 9.58317,21.5394 10.5832,21.8728 11.5,22.5C 12.1818,21.7573 12.8485,21.0906 13.5,20.5 Z"/></g>
<g><path style="opacity:0.835" fill="#ae8c34" d="M 19.5,21.5 C 19.5,24.5 19.5,27.5 19.5,30.5C 18.5,30.5 17.5,30.5 16.5,30.5C 16.5,27.8333 16.5,25.1667 16.5,22.5C 17.609,22.4431 18.609,22.1098 19.5,21.5 Z"/></g>
<g><path style="opacity:0.606" fill="#a27b2c" d="M 23.5,20.5 C 24.5,20.8333 25.1667,21.5 25.5,22.5C 25.7036,24.6854 26.3702,26.6854 27.5,28.5C 26.8333,28.5 26.1667,28.5 25.5,28.5C 24.2264,26.0075 23.5597,23.3408 23.5,20.5 Z"/></g>
<g><path style="opacity:0.914" fill="#a0802e" d="M 36.5,25.5 C 36.0679,26.7095 35.4013,27.7095 34.5,28.5C 33.5,28.5 32.5,28.5 31.5,28.5C 32.1667,27.5 32.8333,26.5 33.5,25.5C 34.5,24.1667 35.5,24.1667 36.5,25.5 Z"/></g>
<g><path style="opacity:1" fill="#a1812e" d="M 7.5,24.5 C 7.5,24.8333 7.5,25.1667 7.5,25.5C 6.59603,26.209 6.26269,27.209 6.5,28.5C 7.83333,28.5 9.16667,28.5 10.5,28.5C 11.1667,28.5 11.8333,28.5 12.5,28.5C 11.6879,29.9931 10.3545,30.6598 8.5,30.5C 6.01818,30.8896 4.68485,29.8896 4.5,27.5C 4.5,26.8333 4.5,26.1667 4.5,25.5C 5.45837,25.0472 6.2917,24.3805 7,23.5C 7.39877,23.7284 7.56544,24.0618 7.5,24.5 Z"/></g>
<g><path style="opacity:0.941" fill="#94752d" d="M 2.5,17.5 C 2.83333,17.5 3.16667,17.5 3.5,17.5C 3.5,19.5 3.5,21.5 3.5,23.5C 3.32842,24.4916 3.66175,25.1583 4.5,25.5C 4.5,26.1667 4.5,26.8333 4.5,27.5C 3.59603,28.209 3.26269,29.209 3.5,30.5C 2.5,30.5 1.5,30.5 0.5,30.5C 2.20182,28.1998 2.86848,25.5331 2.5,22.5C 2.5,20.8333 2.5,19.1667 2.5,17.5 Z"/></g>
<g><path style="opacity:1" fill="#bfa142" d="M 7.5,25.5 C 8.39567,26.5063 9.06233,26.5063 9.5,25.5C 10.404,26.209 10.7373,27.209 10.5,28.5C 9.16667,28.5 7.83333,28.5 6.5,28.5C 6.26269,27.209 6.59603,26.209 7.5,25.5 Z"/></g>
<g><path style="opacity:0.943" fill="#ac8b30" d="M 2.5,22.5 C 2.86848,25.5331 2.20182,28.1998 0.5,30.5C 0.166667,30.5 -0.166667,30.5 -0.5,30.5C -0.5,29.5 -0.5,28.5 -0.5,27.5C -0.0275999,25.4687 0.9724,23.8021 2.5,22.5 Z"/></g>
<g><path style="opacity:0.984" fill="#8b6b2c" d="M 25.5,28.5 C 26.1667,28.5 26.8333,28.5 27.5,28.5C 28.8333,28.5 30.1667,28.5 31.5,28.5C 32.5,28.5 33.5,28.5 34.5,28.5C 33.6879,29.9931 32.3545,30.6598 30.5,30.5C 28.4434,30.5643 26.7767,29.8976 25.5,28.5 Z"/></g>
</svg>
