<?xml version="1.0" encoding="UTF-8"?>
<!DOCTYPE svg PUBLIC "-//W3C//DTD SVG 1.1//EN" "http://www.w3.org/Graphics/SVG/1.1/DTD/svg11.dtd">
<svg xmlns="http://www.w3.org/2000/svg" version="1.1" width="31px" height="30px" style="shape-rendering:geometricPrecision; text-rendering:geometricPrecision; image-rendering:optimizeQuality; fill-rule:evenodd; clip-rule:evenodd" xmlns:xlink="http://www.w3.org/1999/xlink">
<g><path style="opacity:0.97" fill="#1a1a1a" d="M 1.5,-0.5 C 10.5,-0.5 19.5,-0.5 28.5,-0.5C 28.8333,0.5 29.5,1.16667 30.5,1.5C 30.5,9.83333 30.5,18.1667 30.5,26.5C 29.5987,27.2905 28.9321,28.2905 28.5,29.5C 19.5,29.5 10.5,29.5 1.5,29.5C 1.06795,28.2905 0.40128,27.2905 -0.5,26.5C -0.5,18.5 -0.5,10.5 -0.5,2.5C 0.40128,1.70951 1.06795,0.709515 1.5,-0.5 Z"/></g>
<g><path style="opacity:1" fill="#b2b2b2" d="M 14.5,10.5 C 13.5416,10.0472 12.7083,9.38053 12,8.5C 11.8333,8.83333 11.6667,9.16667 11.5,9.5C 13.11,11.7254 14.4434,14.0587 15.5,16.5C 13.629,16.8588 12.129,17.8588 11,19.5C 10.8374,17.6133 11.6707,16.1133 13.5,15C 11.7093,12.586 10.0426,10.086 8.5,7.5C 11.8074,5.82977 13.8074,6.82977 14.5,10.5 Z"/></g>
<g><path style="opacity:1" fill="#bcbcbc" d="M 17.5,19.5 C 18.4232,20.3029 19.4232,20.4696 20.5,20C 17.8539,17.1984 15.8539,14.0317 14.5,10.5C 15.1174,10.6107 15.6174,10.944 16,11.5C 17.7401,9.04649 19.9067,7.54649 22.5,7C 20.4429,8.71939 18.7763,10.7194 17.5,13C 18.91,15.8184 20.5766,18.4851 22.5,21C 21.6667,21.1667 20.8333,21.3333 20,21.5C 18.6244,21.3158 17.7911,20.6491 17.5,19.5 Z"/></g>
<g><path style="opacity:1" fill="#2c2c2c" d="M 14.5,10.5 C 15.8539,14.0317 17.8539,17.1984 20.5,20C 19.4232,20.4696 18.4232,20.3029 17.5,19.5C 17.573,17.9731 16.9063,16.9731 15.5,16.5C 14.4434,14.0587 13.11,11.7254 11.5,9.5C 11.6667,9.16667 11.8333,8.83333 12,8.5C 12.7083,9.38053 13.5416,10.0472 14.5,10.5 Z"/></g>
<g><path style="opacity:1" fill="#b6b6b6" d="M 15.5,16.5 C 16.9063,16.9731 17.573,17.9731 17.5,19.5C 16.0937,19.0269 15.427,18.0269 15.5,16.5 Z"/></g>
</svg>
